<svg version="1.1" id="Layer_1" xmlns="http://www.w3.org/2000/svg" x="0" y="0" viewBox="0 0 960 560" xml:space="preserve"><style>.st0{fill:#fff}</style><path class="st0" d="M249.59 579.34c-.45-1.46-1.11-2.83-1.98-4.1-.83-1.21-1.85-2.31-3.08-3.27-.61-.46-1.26-.9-1.96-1.27.09-1.48-.04-3.01-.37-4.54-1.27-6.14-5.63-12.28-11.49-15.64-4.62-2.66-11.28-3.81-17.39-2.64-2.83-4.35-6.83-7.83-11.56-10.19.08-.29.15-.58.2-.87h.01c.56-2.63.6-5.4-.02-8.19-2.37-10.69-13.23-17.37-24.26-14.93-6 1.33-10.8 5.09-13.57 9.97-5.52-5.36-11.31-8.2-16.79-7.7-7.14-11.26-20.75-17.42-34.44-14.38-9.09 2.01-16.41 7.67-20.83 15.11-.12.18-.21.35-.31.53-5.02-3.92-11.9-5.66-18.88-4.11-4.76 1.05-8.82 3.47-11.84 6.69-4.58-7.62-14.36-11.74-24.38-9.52-12.24 2.71-20.19 13.86-17.74 24.91.04.2.11.39.17.59a30.41 30.41 0 00-4.48-.14c-6.13.3-11.67 2.34-16.36 5.54-1.26.84-2.45 1.78-3.58 2.79A35.31 35.31 0 00-9 547.76c-1.01 1.2-1.94 2.48-2.8 3.8a38.048 38.048 0 00-5.5 14.09c-2.08 12.17 4.26 26.57 15.35 33.49-.19.31-.37.63-.54.95-.02.04-.05.09-.06.13-.02.03-.03.06-.04.09-1.61 2.36-2.7 4.85-3.28 7.31-2.72 11.26 4.45 22.49 15.52 23.54 2.23.21 4.61.02 7.1-.67-.89 2.52-1.3 5-1.31 7.4-.04 14.05 13.83 25.23 27.96 23.57 4-.47 8.03-1.98 11.77-4.75.85-.63 1.69-1.33 2.5-2.09.93-.86 1.83-1.82 2.7-2.87.23-.27.46-.56.69-.84l.42.18c.48-.67.86-1.23 1.29-1.93 4.05 2.2 8.4 4.5 12.68 6.23.45.25.7.28 1.18.48 22.05 8.68 46.84 11.1 71.72 5.59 34.44-7.63 62.37-29.36 79.16-57.4.97.36 1.79.57 2.79.73.13-.28.24-.55.35-.82.28.02.57.03.84.02 1.65.03 3.23-.2 4.73-.6 1.57-.42 3.07-1.08 4.45-1.88 4.45-2.59 7.67-6.76 8.83-10.46 1.14-3.77 1.25-7.97.09-11.71zM18.58 631.01l-1.62-.57c.93-.27 1.87-.58 2.83-.99-.33.34-1.21 1.56-1.21 1.56z"/><linearGradient id="SVGID_1_" gradientUnits="userSpaceOnUse" x1="45.751" y1="569.937" x2="80.597" y2="569.937"><stop offset="0" stop-color="#26a9e0"/><stop offset=".981" stop-color="#2b388f"/></linearGradient><path d="M78.58 567.99c-.93 4.5-3.93 8.68-7.81 11.12-4.03 2.63-9.12 3.48-13.82 2.6-4.07-.76-7.67-2.55-11.2-4.65 3.16 3.06 6.91 5.54 11.24 6.58 5.22 1.23 10.6.47 15.16-2.4 4.29-2.8 7.45-7.39 8.23-12.49.72-4.7-.45-9.05-2.86-13.08 1.34 4.01 2.05 8.13 1.06 12.32z" fill="url(#SVGID_1_)"/><linearGradient id="SVGID_2_" gradientUnits="userSpaceOnUse" x1="36.98" y1="625.02" x2="47.877" y2="625.02"><stop offset="0" stop-color="#26a9e0"/><stop offset=".981" stop-color="#2b388f"/></linearGradient><path d="M43.19 633.01c-1.31 2.24-3.59 3.59-5.68 4.99 2.99-.63 6.59-2.12 8.14-4.99 1.56-2.39 2.53-5.45 2.13-8.33-.85-6.2-4.71-10.94-10.81-12.64 2.41 1.85 4.74 3.65 6.23 6.39 1.06 1.95 1.77 3.91 2.01 6.12.32 2.8-.21 6.19-2.02 8.46z" fill="url(#SVGID_2_)"/><linearGradient id="SVGID_3_" gradientUnits="userSpaceOnUse" x1="-19.538" y1="564.326" x2="101.091" y2="564.326"><stop offset="0" stop-color="#26a9e0"/><stop offset=".981" stop-color="#2b388f"/></linearGradient><path d="M93.67 518.17a24.63 24.63 0 00-5.43-4.14c-4.8-2.71-10.69-3.91-16.16-3.11-4.82.71-8.92 2.71-12.73 5.63-.08-.09-.14-.19-.21-.28-4.77-5.63-12.23-8.22-19.49-7.64-7.19.57-13.88 4.26-18.01 10.2-3.17 4.55-4.48 9.89-4.54 15.35-12.62-.67-24.39 6.42-31 17.14-3.33 5.39-5.5 11.81-5.63 18.18-.15 7.34 2.32 14.75 6.48 20.76 3.16 4.56 7.43 8.46 12.45 10.87-1.1 3.06-1.67 6-1.73 9.32.35 3.53 1.19 6.5 2.81 9.66-1.17-3.23-1.64-6.19-1.54-9.63.45-3.06 1.32-5.69 2.71-8.39.21.08.42.18.63.25 6.2 2.12 12.45 1.63 18.57-.44-4.63.95-9.26 1.25-13.89.06-4.96-1.27-9.4-3.98-12.98-7.62-7.29-7.41-10.94-18.04-9.48-28.33.99-6.99 4.78-13.92 9.64-18.97 5.32-5.52 12.38-9.11 20.05-9.78 12.97-1.15 26.63 6.63 32.47 18.26-3.44-9.61-12.1-16.98-21.83-19.95-.21-2.93-.1-5.71.45-8.67.98-3.34 2.32-6.14 4.32-8.97-2.43 2.66-4.58 5.58-5.69 9.06-.84 2.64-1.27 5.24-1.45 7.94-.53-.12-1.06-.22-1.59-.31-.3-5.33.76-10.62 3.88-15.07 3.86-5.51 10.19-8.69 16.85-9.1 6.56-.41 13.23 2.12 17.52 7.18 1.27 1.49 2.22 3.13 2.92 4.86-.01.01-.02.01-.03.02.02.03.05.06.07.09 1.32 3.32 1.64 6.96 1.12 10.62.64-3.25.57-6.5-.24-9.56.23.27.45.54.68.81 2.48-2.34 5.22-4.42 8.57-5.35 3.18-.88 6.15-1.07 9.42-.82-3.51-.72-7.15-1.1-10.67-.16-3.16.84-5.8 2.18-8.43 4.02-.24-.67-.52-1.33-.83-1.97.17.2.35.4.52.6 3.36-3.17 7.18-5.49 11.83-6.19 4.97-.75 10.13.14 14.54 2.57 4.36 2.39 8.03 6.27 9.52 11.09 1.36 4.4.85 8.68-.52 13 1.88-4.57 2.79-9.36 1.39-14.23-.73-2.54-1.99-4.85-3.6-6.9a48.4 48.4 0 012.15-5.16c1.1-1.66 2.24-3.13 3.58-4.61a39.6 39.6 0 00-4.61 3.86c-1.04 1.27-1.95 2.59-2.83 3.95z" fill="url(#SVGID_3_)"/><linearGradient id="SVGID_4_" gradientUnits="userSpaceOnUse" x1="-7.878" y1="631.586" x2="63.946" y2="631.586"><stop offset="0" stop-color="#26a9e0"/><stop offset=".981" stop-color="#2b388f"/></linearGradient><path d="M62.89 648.89c-.04.06-.07.11-.09.16-.43.71-.88 1.38-1.36 2.05-.2.31-.42.62-.66.91-.16.21-.32.44-.5.64-.64.81-1.33 1.59-2.06 2.32-.74.76-1.53 1.49-2.37 2.15-3.19 2.61-6.91 4.48-10.99 5.31-.66.15-1.31.25-1.99.33-7.25.88-14.66-1.56-20.27-6.19-5.43-4.5-9.03-11.2-9.14-18.31-.01-.82.02-1.62.09-2.42.12-1.23.33-2.45.63-3.65-1.12.25-2.26.4-3.38.44-4.67.19-9.33-1.37-13.02-5.03-5.73-5.69-7.03-14-4.27-21.05.89-2.28 2.19-4.42 3.91-6.32-1.22 3.01-2.16 5.97-2.41 9.14-.08.78-.11 1.58-.08 2.39.1 4.78 2.06 9.47 5.34 12.93 2.13 2.24 4.85 3.78 7.81 4.57 1.47.39 3 .6 4.54.6 2.79.01 5.4-.61 7.98-1.43 1.05-.32 2.09-.7 3.13-1.07.01 0 .01 0 .02-.01 0 0-.01 0-.01.01-.78.67-1.59 1.28-2.45 1.83-.76.5-1.57.94-2.38 1.34-.22.11-.45.22-.67.32.15.06.27.1.35.13h.01c-.99 3.05-1.38 6.15-1.07 9.18.31 3.14 1.34 6.2 3.16 9.03 3.9 6.01 10.53 10.1 17.64 10.97 1.1.13 2.21.19 3.3.16 4.56-.1 8.94-1.56 12.74-4.06.93-.6 1.81-1.26 2.65-1.98.46-.38.91-.77 1.34-1.19.53-.5 1.04-1.03 1.53-1.56h.01c.48-.55.94-1.1 1.41-1.66.31-.37.6-.76.9-1.13.16-.22.32-.42.47-.64.18-.23.8-1.45 1.06-1.51.74-.16-.73 2.08-.85 2.3z" fill="url(#SVGID_4_)"/><linearGradient id="SVGID_5_" gradientUnits="userSpaceOnUse" x1="22.311" y1="649.946" x2="49.051" y2="649.946"><stop offset="0" stop-color="#26a9e0"/><stop offset=".981" stop-color="#2b388f"/></linearGradient><path d="M26.47 648.19c-1.67-1.68-2.88-3.58-4.16-5.55 2.11 11.7 16.49 18.49 26.74 12.26-2.5.37-4.87.66-7.41.47-2.76-.07-5.47-1.12-7.99-2.14-2.65-1.37-5.06-2.92-7.18-5.04z" fill="url(#SVGID_5_)"/><linearGradient id="SVGID_6_" gradientUnits="userSpaceOnUse" x1="188.798" y1="564.435" x2="252.236" y2="564.435"><stop offset="0" stop-color="#26a9e0"/><stop offset=".981" stop-color="#2b388f"/></linearGradient><path d="M251.93 588.88c-1.13 6.73-6.24 12.44-12.52 14.93h-.02c-1.34.53-2.69.88-4.03 1.05-1.49.21-2.98.22-4.45.02-.21-.02-.43-.06-.66-.09-1-.17-1.99-.43-2.95-.79-1.76-.63-3.44-1.53-5.02-2.71 1.88.73 3.81 1.26 5.74 1.49 1.36.18 2.71.21 4.06.09 1.71-.16 3.41-.59 5.07-1.32.23-.09.47-.19.69-.31 1.54-.75 3-1.69 4.3-2.83l.01-.01c3.04-2.63 5.29-6.21 6.04-10.16.33-1.71.42-3.53.24-5.32-.17-1.9-.65-3.78-1.47-5.47v-.01c-.71-1.47-1.64-2.81-2.85-3.92-.26-.25-.54-.48-.82-.71 0 0-.96-.68-1.82-1.18-.17-.09-.33-.18-.49-.26-4.26-2.25-9.24-2.47-14-2.3 4.71-1.32 9.81-1.86 14.42-.3-.96-7.85-7.88-15.56-14.9-18.1-5.64-2.04-12.53-2.21-18.07.23-5.29 2.32-8.43 6.64-10.17 12.02.25-3.1.97-5.98 2.65-8.64 1.39-2.19 3.3-3.97 5.49-5.32-.75-2.58-2.27-4.64-4.38-6.52 2.66 1.34 4.72 3.1 6.19 5.52.37-.17.72-.34 1.09-.49.24-.1.47-.18.71-.27-1.27-3.75-4.2-6.36-7.95-7.92-4.38-1.82-8.95-1.36-13.25.34 2.98-1.84 6.13-2.87 9.41-3.03-.13-.06-.27-.11-.42-.17 1.95-3.6 1.86-9.2-.44-12.6 3.04 3.07 4.03 8.59 2.99 12.8.53.03 1.08.1 1.62.19h.01c.54.07 1.1.19 1.65.31 4.96 1.21 8.88 4.36 11.08 8.82 5.68-.92 11.82 0 16.71 2.78 5.37 3.04 9.62 8.21 11.44 14.13v.01c.38 1.19.65 2.42.82 3.68.15 1.08.17 2.17.1 3.24.31.18.64.35.96.56l.17.1c1.25.81 2.32 1.75 3.24 2.83.89 1.03 1.63 2.17 2.22 3.39 1.79 3.71 2.25 8.08 1.56 12.22z" fill="url(#SVGID_6_)"/><linearGradient id="SVGID_7_" gradientUnits="userSpaceOnUse" x1="-11.816" y1="566.847" x2="17.085" y2="566.847"><stop offset="0" stop-color="#26a9e0"/><stop offset=".981" stop-color="#2b388f"/></linearGradient><path d="M-7.22 560.62c2.16-5.38 5.73-10.24 10.46-13.64 4.16-2.99 8.84-4.48 13.85-5.27-5.62-.15-10.89 1.09-15.64 4.2-5.18 3.39-8.95 8.53-11.21 14.24-2.09 5.76-2.74 12.1-1.21 18.08 1.41 5.5 4.34 10.01 8.54 13.77-3.13-4.03-5.8-8.62-6.58-13.76-1.2-5.81-.4-12.15 1.79-17.62z" fill="url(#SVGID_7_)"/><g><path class="st0" d="M612.59 487.34c-.45-1.46-1.11-2.83-1.98-4.1-.83-1.21-1.85-2.31-3.08-3.27-.61-.46-1.26-.9-1.96-1.27.09-1.48-.04-3.01-.37-4.54-1.27-6.14-5.63-12.28-11.49-15.64-4.62-2.66-11.28-3.81-17.39-2.64-2.83-4.35-6.83-7.83-11.56-10.19.08-.29.15-.58.2-.87h.01c.56-2.63.6-5.4-.02-8.19-2.37-10.69-13.23-17.37-24.26-14.93-6 1.33-10.8 5.09-13.57 9.97-5.52-5.36-11.31-8.2-16.79-7.7-7.14-11.26-20.75-17.42-34.44-14.38-9.09 2.01-16.41 7.67-20.83 15.11-.12.18-.21.35-.31.53-5.02-3.92-11.9-5.66-18.88-4.11-4.76 1.05-8.82 3.47-11.84 6.69-4.58-7.62-14.36-11.74-24.38-9.52-12.24 2.71-20.19 13.86-17.74 24.91.04.2.11.39.17.59a30.41 30.41 0 00-4.48-.14c-6.13.3-11.67 2.34-16.36 5.54-1.26.84-2.45 1.78-3.58 2.79a35.31 35.31 0 00-3.66 3.78c-1.01 1.2-1.94 2.48-2.8 3.8a38.048 38.048 0 00-5.5 14.09c-2.08 12.17 4.26 26.57 15.35 33.49-.19.31-.37.63-.54.95-.02.04-.05.09-.06.13-.02.03-.03.06-.04.09-1.61 2.36-2.7 4.85-3.28 7.31-2.72 11.26 4.45 22.49 15.52 23.54 2.23.21 4.61.02 7.1-.67-.89 2.52-1.3 5-1.31 7.4-.04 14.05 13.83 25.23 27.96 23.57 4-.47 8.03-1.98 11.77-4.75.85-.63 1.69-1.33 2.5-2.09.93-.86 1.83-1.82 2.7-2.87.23-.27.46-.56.69-.84l.42.18c.48-.67.86-1.23 1.29-1.93 4.05 2.2 8.4 4.5 12.68 6.23.45.25.7.28 1.18.48 22.05 8.68 46.84 11.1 71.72 5.59 34.44-7.63 62.37-29.36 79.16-57.4.97.36 1.79.57 2.79.73.13-.28.24-.55.35-.82.28.02.57.03.84.02 1.65.03 3.23-.2 4.73-.6 1.57-.42 3.07-1.08 4.45-1.88 4.45-2.59 7.67-6.76 8.83-10.46 1.14-3.77 1.25-7.97.09-11.71zm-231.01 51.67l-1.62-.57c.93-.27 1.87-.58 2.83-.99-.33.34-1.21 1.56-1.21 1.56z"/><linearGradient id="SVGID_8_" gradientUnits="userSpaceOnUse" x1="408.751" y1="477.937" x2="443.597" y2="477.937"><stop offset="0" stop-color="#26a9e0"/><stop offset=".981" stop-color="#2b388f"/></linearGradient><path d="M441.58 475.99c-.93 4.5-3.93 8.68-7.81 11.12-4.03 2.63-9.12 3.48-13.82 2.6-4.07-.76-7.67-2.55-11.2-4.65 3.16 3.06 6.91 5.54 11.24 6.58 5.22 1.23 10.6.47 15.16-2.4 4.29-2.8 7.45-7.39 8.23-12.49.72-4.7-.45-9.05-2.86-13.08 1.34 4.01 2.05 8.13 1.06 12.32z" fill="url(#SVGID_8_)"/><linearGradient id="SVGID_9_" gradientUnits="userSpaceOnUse" x1="399.979" y1="533.02" x2="410.877" y2="533.02"><stop offset="0" stop-color="#26a9e0"/><stop offset=".981" stop-color="#2b388f"/></linearGradient><path d="M406.19 541.01c-1.31 2.24-3.59 3.59-5.68 4.99 2.99-.63 6.59-2.12 8.14-4.99 1.56-2.39 2.53-5.45 2.13-8.33-.85-6.2-4.71-10.94-10.81-12.64 2.41 1.85 4.74 3.65 6.23 6.39 1.06 1.95 1.77 3.91 2.01 6.12.32 2.8-.21 6.19-2.02 8.46z" fill="url(#SVGID_9_)"/><linearGradient id="SVGID_10_" gradientUnits="userSpaceOnUse" x1="343.462" y1="472.326" x2="464.091" y2="472.326"><stop offset="0" stop-color="#26a9e0"/><stop offset=".981" stop-color="#2b388f"/></linearGradient><path d="M456.67 426.17a24.63 24.63 0 00-5.43-4.14c-4.8-2.71-10.69-3.91-16.16-3.11-4.82.71-8.92 2.71-12.73 5.63-.08-.09-.14-.19-.21-.28-4.77-5.63-12.23-8.22-19.49-7.64-7.19.57-13.88 4.26-18.01 10.2-3.17 4.55-4.48 9.89-4.54 15.35-12.62-.67-24.39 6.42-31 17.14-3.33 5.39-5.5 11.81-5.63 18.18-.15 7.34 2.32 14.75 6.48 20.76 3.16 4.56 7.43 8.46 12.45 10.87-1.1 3.06-1.67 6-1.73 9.32.35 3.53 1.19 6.5 2.81 9.66-1.17-3.23-1.64-6.19-1.54-9.63.45-3.06 1.32-5.69 2.71-8.39.21.08.42.18.63.25 6.2 2.12 12.45 1.63 18.57-.44-4.63.95-9.26 1.25-13.89.06-4.96-1.27-9.4-3.98-12.98-7.62-7.29-7.41-10.94-18.04-9.48-28.33.99-6.99 4.78-13.92 9.64-18.97 5.32-5.52 12.38-9.11 20.05-9.78 12.97-1.15 26.63 6.63 32.47 18.26-3.44-9.61-12.1-16.98-21.83-19.95-.21-2.93-.1-5.71.45-8.67.98-3.34 2.32-6.14 4.32-8.97-2.43 2.66-4.58 5.58-5.69 9.06-.84 2.64-1.27 5.24-1.45 7.94-.53-.12-1.06-.22-1.59-.31-.3-5.33.76-10.62 3.88-15.07 3.86-5.51 10.19-8.69 16.85-9.1 6.56-.41 13.23 2.12 17.52 7.18 1.27 1.49 2.22 3.13 2.92 4.86-.01.01-.02.01-.03.02.02.03.05.06.07.09 1.32 3.32 1.64 6.96 1.12 10.62.64-3.25.57-6.5-.24-9.56.23.27.45.54.68.81 2.48-2.34 5.22-4.42 8.57-5.35 3.18-.88 6.15-1.07 9.42-.82-3.51-.72-7.15-1.1-10.67-.16-3.16.84-5.8 2.18-8.43 4.02-.24-.67-.52-1.33-.83-1.97.17.2.35.4.52.6 3.36-3.17 7.18-5.49 11.83-6.19 4.97-.75 10.13.14 14.54 2.57 4.36 2.39 8.03 6.27 9.52 11.09 1.36 4.4.85 8.68-.52 13 1.88-4.57 2.79-9.36 1.39-14.23-.73-2.54-1.99-4.85-3.6-6.9a48.4 48.4 0 012.15-5.16c1.1-1.66 2.24-3.13 3.58-4.61a39.6 39.6 0 00-4.61 3.86c-1.04 1.27-1.95 2.59-2.83 3.95z" fill="url(#SVGID_10_)"/><linearGradient id="SVGID_11_" gradientUnits="userSpaceOnUse" x1="355.122" y1="539.586" x2="426.946" y2="539.586"><stop offset="0" stop-color="#26a9e0"/><stop offset=".981" stop-color="#2b388f"/></linearGradient><path d="M425.89 556.89c-.04.06-.07.11-.09.16-.43.71-.88 1.38-1.36 2.05-.2.31-.42.62-.66.91-.16.21-.32.44-.5.64-.64.81-1.33 1.59-2.06 2.32-.74.76-1.53 1.49-2.37 2.15-3.19 2.61-6.91 4.48-10.99 5.31-.66.15-1.31.25-1.99.33-7.25.88-14.66-1.56-20.27-6.19-5.43-4.5-9.03-11.2-9.14-18.31-.01-.82.02-1.62.09-2.42.12-1.23.33-2.45.63-3.65-1.12.25-2.26.4-3.38.44-4.67.19-9.33-1.37-13.02-5.03-5.73-5.69-7.03-14-4.27-21.05.89-2.28 2.19-4.42 3.91-6.32-1.22 3.01-2.16 5.97-2.41 9.14-.08.78-.11 1.58-.08 2.39.1 4.78 2.06 9.47 5.34 12.93 2.13 2.24 4.85 3.78 7.81 4.57 1.47.39 3 .6 4.54.6 2.79.01 5.4-.61 7.98-1.43 1.05-.32 2.09-.7 3.13-1.07.01 0 .01 0 .02-.01 0 0-.01 0-.01.01-.78.67-1.59 1.28-2.45 1.83-.76.5-1.57.94-2.38 1.34-.22.11-.45.22-.67.32.15.06.27.1.35.13h.01c-.99 3.05-1.38 6.15-1.07 9.18.31 3.14 1.34 6.2 3.16 9.03 3.9 6.01 10.53 10.1 17.64 10.97 1.1.13 2.21.19 3.3.16 4.56-.1 8.94-1.56 12.74-4.06.93-.6 1.81-1.26 2.65-1.98.46-.38.91-.77 1.34-1.19.53-.5 1.04-1.03 1.53-1.56h.01c.48-.55.94-1.1 1.41-1.66.31-.37.6-.76.9-1.13.16-.22.32-.42.47-.64.18-.23.8-1.45 1.06-1.51.74-.16-.73 2.08-.85 2.3z" fill="url(#SVGID_11_)"/><linearGradient id="SVGID_12_" gradientUnits="userSpaceOnUse" x1="385.311" y1="557.946" x2="412.051" y2="557.946"><stop offset="0" stop-color="#26a9e0"/><stop offset=".981" stop-color="#2b388f"/></linearGradient><path d="M389.47 556.19c-1.67-1.68-2.88-3.58-4.16-5.55 2.11 11.7 16.49 18.49 26.74 12.26-2.5.37-4.87.66-7.41.47-2.76-.07-5.47-1.12-7.99-2.14-2.65-1.37-5.06-2.92-7.18-5.04z" fill="url(#SVGID_12_)"/><linearGradient id="SVGID_13_" gradientUnits="userSpaceOnUse" x1="551.798" y1="472.435" x2="615.236" y2="472.435"><stop offset="0" stop-color="#26a9e0"/><stop offset=".981" stop-color="#2b388f"/></linearGradient><path d="M614.93 496.88c-1.13 6.73-6.24 12.44-12.52 14.93h-.02c-1.34.53-2.69.88-4.03 1.05-1.49.21-2.98.22-4.45.02-.21-.02-.43-.06-.66-.09-1-.17-1.99-.43-2.95-.79-1.76-.63-3.44-1.53-5.02-2.71 1.88.73 3.81 1.26 5.74 1.49 1.36.18 2.71.21 4.06.09 1.71-.16 3.41-.59 5.07-1.32.23-.09.47-.19.69-.31 1.54-.75 3-1.69 4.3-2.83l.01-.01c3.04-2.63 5.29-6.21 6.04-10.16.33-1.71.42-3.53.24-5.32-.17-1.9-.65-3.78-1.47-5.47v-.01c-.71-1.47-1.64-2.81-2.85-3.92-.26-.25-.54-.48-.82-.71 0 0-.96-.68-1.82-1.18-.17-.09-.33-.18-.49-.26-4.26-2.25-9.24-2.47-14-2.3 4.71-1.32 9.81-1.86 14.42-.3-.96-7.85-7.88-15.56-14.9-18.1-5.64-2.04-12.53-2.21-18.07.23-5.29 2.32-8.43 6.64-10.17 12.02.25-3.1.97-5.98 2.65-8.64 1.39-2.19 3.3-3.97 5.49-5.32-.75-2.58-2.27-4.64-4.38-6.52 2.66 1.34 4.72 3.1 6.19 5.52.37-.17.72-.34 1.09-.49.24-.1.47-.18.71-.27-1.27-3.75-4.2-6.36-7.95-7.92-4.38-1.82-8.95-1.36-13.25.34 2.98-1.84 6.13-2.87 9.41-3.03-.13-.06-.27-.11-.42-.17 1.95-3.6 1.86-9.2-.44-12.6 3.04 3.07 4.03 8.59 2.99 12.8.53.03 1.08.1 1.62.19h.01c.54.07 1.1.19 1.65.31 4.96 1.21 8.88 4.36 11.08 8.82 5.68-.92 11.82 0 16.71 2.78 5.37 3.04 9.62 8.21 11.44 14.13v.01c.38 1.19.65 2.42.82 3.68.15 1.08.17 2.17.1 3.24.32.18.64.35.96.56l.17.1c1.25.81 2.32 1.75 3.24 2.83.89 1.03 1.63 2.17 2.22 3.39 1.79 3.71 2.25 8.08 1.56 12.22z" fill="url(#SVGID_13_)"/><linearGradient id="SVGID_14_" gradientUnits="userSpaceOnUse" x1="351.184" y1="474.848" x2="380.086" y2="474.848"><stop offset="0" stop-color="#26a9e0"/><stop offset=".981" stop-color="#2b388f"/></linearGradient><path d="M355.78 468.62c2.16-5.38 5.73-10.24 10.46-13.64 4.16-2.99 8.84-4.48 13.85-5.27-5.62-.15-10.89 1.09-15.64 4.2-5.18 3.39-8.95 8.53-11.21 14.24-2.09 5.76-2.74 12.1-1.21 18.08 1.41 5.5 4.34 10.01 8.54 13.77-3.13-4.03-5.8-8.62-6.58-13.76-1.2-5.81-.4-12.15 1.79-17.62z" fill="url(#SVGID_14_)"/></g><g><path class="st0" d="M567.26 578.99c-.64-2.05-1.57-4-2.79-5.79a20.373 20.373 0 00-4.35-4.61c-.87-.66-1.77-1.27-2.77-1.8.12-2.09-.06-4.24-.52-6.4-1.79-8.66-7.94-17.33-16.21-22.07-6.51-3.75-15.92-5.38-24.55-3.73-3.99-6.14-9.64-11.05-16.31-14.38.11-.41.21-.82.28-1.22h.02c.8-3.71.85-7.62-.02-11.55-3.34-15.09-18.68-24.52-34.24-21.07-8.47 1.88-15.25 7.19-19.15 14.07-7.78-7.57-15.96-11.57-23.7-10.87-10.07-15.89-29.28-24.58-48.61-20.29-12.82 2.84-23.17 10.82-29.4 21.33-.16.26-.3.49-.44.74-7.08-5.54-16.79-7.99-26.65-5.8-6.72 1.49-12.44 4.89-16.71 9.45-6.47-10.75-20.27-16.56-34.41-13.43-17.28 3.83-28.5 19.56-25.04 35.16.06.28.16.55.24.83-2.09-.22-4.21-.3-6.32-.2-8.65.43-16.48 3.3-23.09 7.82a45.76 45.76 0 00-5.06 3.94 51.154 51.154 0 00-5.17 5.34c-1.43 1.7-2.74 3.5-3.95 5.37a53.68 53.68 0 00-7.76 19.88c-2.93 17.18 6.01 37.5 21.66 47.27-.27.43-.52.89-.77 1.35-.02.06-.07.13-.09.18-.03.05-.04.08-.06.13-2.28 3.34-3.8 6.84-4.63 10.32-3.84 15.89 6.28 31.73 21.9 33.23 3.14.3 6.5.03 10.02-.95-1.26 3.55-1.84 7.05-1.85 10.44-.06 19.83 19.52 35.61 39.46 33.26 5.65-.67 11.33-2.79 16.6-6.7 1.2-.89 2.38-1.87 3.53-2.95 1.31-1.21 2.58-2.56 3.81-4.05.32-.38.65-.79.97-1.19.2.08.39.17.59.25.68-.94 1.21-1.73 1.82-2.73 5.71 3.1 11.85 6.35 17.89 8.79.64.35.99.4 1.66.68 31.11 12.25 66.1 15.66 101.22 7.88 48.61-10.77 88.01-41.43 111.71-81 1.36.51 2.53.8 3.94 1.04.19-.39.34-.77.5-1.16.39.02.8.04 1.19.03 2.32.04 4.55-.28 6.67-.85 2.22-.6 4.34-1.53 6.28-2.66 6.28-3.66 10.82-9.54 12.47-14.76 1.68-5.36 1.84-11.29.19-16.57zm-326 72.92l-2.29-.8c1.31-.38 2.63-.82 4-1.4-.47.48-1.71 2.2-1.71 2.2z"/><linearGradient id="SVGID_15_" gradientUnits="userSpaceOnUse" x1="279.6" y1="565.724" x2="328.777" y2="565.724"><stop offset="0" stop-color="#26a9e0"/><stop offset=".981" stop-color="#2b388f"/></linearGradient><path d="M325.93 562.97c-1.32 6.35-5.55 12.25-11.02 15.69-5.69 3.7-12.87 4.92-19.51 3.67-5.75-1.08-10.83-3.59-15.8-6.56 4.46 4.32 9.76 7.82 15.86 9.29 7.36 1.73 14.96.66 21.4-3.38 6.06-3.96 10.52-10.43 11.62-17.63 1.02-6.64-.63-12.78-4.03-18.46 1.87 5.66 2.88 11.47 1.48 17.38z" fill="url(#SVGID_15_)"/><linearGradient id="SVGID_16_" gradientUnits="userSpaceOnUse" x1="267.222" y1="643.458" x2="282.6" y2="643.458"><stop offset="0" stop-color="#26a9e0"/><stop offset=".981" stop-color="#2b388f"/></linearGradient><path d="M275.99 654.73c-1.85 3.17-5.07 5.07-8.02 7.05 4.22-.88 9.3-2.99 11.49-7.04 2.2-3.37 3.57-7.69 3.01-11.76-1.21-8.74-6.64-15.45-15.25-17.84 3.4 2.6 6.69 5.16 8.79 9.01 1.5 2.75 2.5 5.52 2.84 8.64.45 3.96-.32 8.74-2.86 11.94z" fill="url(#SVGID_16_)"/><linearGradient id="SVGID_17_" gradientUnits="userSpaceOnUse" x1="187.462" y1="557.805" x2="357.698" y2="557.805"><stop offset="0" stop-color="#26a9e0"/><stop offset=".981" stop-color="#2b388f"/></linearGradient><path d="M347.22 492.67a34.911 34.911 0 00-7.66-5.84c-6.78-3.82-15.08-5.52-22.8-4.39-6.81 1-12.59 3.83-17.96 7.95-.11-.13-.19-.27-.3-.4-6.74-7.95-17.26-11.6-27.51-10.78-10.15.81-19.59 6.01-25.42 14.39-4.48 6.43-6.33 13.96-6.4 21.66-17.8-.94-34.42 9.06-43.75 24.18-4.7 7.61-7.76 16.66-7.95 25.66-.22 10.36 3.27 20.82 9.15 29.3 4.46 6.44 10.49 11.94 17.57 15.34-1.55 4.32-2.35 8.47-2.44 13.15.49 4.98 1.69 9.18 3.96 13.63-1.65-4.55-2.31-8.74-2.17-13.59.64-4.32 1.87-8.03 3.82-11.84.3.11.59.25.89.36 8.76 3 17.57 2.3 26.2-.62-6.53 1.34-13.07 1.76-19.6.08-7-1.79-13.27-5.62-18.32-10.76-10.29-10.46-15.44-25.46-13.38-39.98 1.4-9.87 6.74-19.65 13.6-26.77 7.5-7.79 17.48-12.85 28.29-13.81 18.3-1.63 37.58 9.36 45.82 25.77-4.85-13.56-17.08-23.96-30.81-28.15-.3-4.14-.14-8.06.63-12.23 1.38-4.71 3.27-8.66 6.1-12.66-3.43 3.75-6.47 7.88-8.03 12.79-1.19 3.73-1.8 7.39-2.05 11.21-.75-.17-1.5-.31-2.25-.44-.42-7.52 1.08-14.99 5.48-21.27 5.45-7.78 14.38-12.26 23.78-12.84 9.26-.58 18.67 3 24.73 10.13 1.79 2.11 3.13 4.42 4.11 6.85-.01.01-.02.02-.04.03.03.04.07.08.1.13 1.86 4.68 2.32 9.82 1.58 14.99.91-4.58.8-9.17-.34-13.5.32.38.64.77.95 1.15 3.5-3.3 7.37-6.24 12.09-7.55 4.49-1.24 8.68-1.52 13.3-1.15-4.95-1.02-10.09-1.56-15.06-.23-4.46 1.19-8.18 3.07-11.89 5.67-.33-.95-.73-1.88-1.18-2.79.24.28.49.56.73.84 4.74-4.48 10.13-7.74 16.69-8.74 7.02-1.06 14.3.2 20.52 3.62 6.15 3.38 11.34 8.85 13.44 15.65 1.92 6.21 1.19 12.26-.73 18.35 2.66-6.46 3.94-13.21 1.96-20.08-1.03-3.59-2.81-6.85-5.08-9.73.89-2.51 1.87-4.89 3.03-7.29 1.55-2.34 3.16-4.42 5.05-6.51a54.691 54.691 0 00-6.5 5.45 85.95 85.95 0 00-3.95 5.61z" fill="url(#SVGID_17_)"/><linearGradient id="SVGID_18_" gradientUnits="userSpaceOnUse" x1="203.917" y1="652.726" x2="305.278" y2="652.726"><stop offset="0" stop-color="#26a9e0"/><stop offset=".981" stop-color="#2b388f"/></linearGradient><path d="M303.79 677.14c-.06.08-.1.15-.13.23-.61 1-1.25 1.95-1.92 2.89-.29.43-.6.87-.93 1.28-.23.3-.45.61-.7.91-.91 1.14-1.88 2.24-2.9 3.28-1.05 1.08-2.17 2.1-3.34 3.04-4.5 3.69-9.75 6.32-15.51 7.49-.93.21-1.85.36-2.8.47-10.23 1.24-20.69-2.21-28.6-8.73-7.66-6.35-12.74-15.8-12.9-25.84-.02-1.16.03-2.29.13-3.41.17-1.73.47-3.45.88-5.15-1.58.35-3.19.56-4.78.62-6.59.26-13.16-1.94-18.38-7.1-8.09-8.03-9.92-19.76-6.03-29.71 1.26-3.22 3.09-6.24 5.52-8.92-1.73 4.25-3.05 8.42-3.4 12.9-.11 1.11-.15 2.22-.12 3.37.15 6.74 2.91 13.36 7.54 18.25 3 3.16 6.85 5.34 11.02 6.45 2.07.55 4.24.85 6.41.85 3.94.01 7.62-.86 11.26-2.02 1.48-.46 2.95-.98 4.41-1.51.02 0 .02 0 .03-.01 0 0-.02 0-.01.02-1.1.94-2.25 1.81-3.46 2.59-1.08.7-2.21 1.33-3.36 1.88-.31.16-.63.31-.95.45.22.08.38.14.5.18h.02c-1.4 4.31-1.94 8.68-1.51 12.96.43 4.44 1.89 8.75 4.46 12.75 5.5 8.48 14.87 14.26 24.89 15.48 1.55.19 3.12.27 4.65.22 6.43-.14 12.61-2.21 17.98-5.73 1.31-.84 2.55-1.78 3.74-2.8.65-.53 1.29-1.09 1.89-1.68.75-.7 1.46-1.45 2.16-2.21h.02c.67-.78 1.33-1.55 1.98-2.34.44-.52.85-1.07 1.27-1.6.23-.31.46-.6.66-.91.26-.33 1.13-2.05 1.5-2.13 1.06-.22-1.02 2.93-1.19 3.24z" fill="url(#SVGID_18_)"/><linearGradient id="SVGID_19_" gradientUnits="userSpaceOnUse" x1="246.521" y1="678.635" x2="284.257" y2="678.635"><stop offset="0" stop-color="#26a9e0"/><stop offset=".981" stop-color="#2b388f"/></linearGradient><path d="M252.39 676.16c-2.36-2.37-4.07-5.05-5.87-7.84 2.97 16.52 23.27 26.09 37.74 17.3-3.53.52-6.87.94-10.46.67-3.9-.1-7.71-1.57-11.27-3.02-3.74-1.93-7.15-4.12-10.14-7.11z" fill="url(#SVGID_19_)"/><linearGradient id="SVGID_20_" gradientUnits="userSpaceOnUse" x1="481.474" y1="557.959" x2="571" y2="557.959"><stop offset="0" stop-color="#26a9e0"/><stop offset=".981" stop-color="#2b388f"/></linearGradient><path d="M570.57 592.46c-1.59 9.5-8.81 17.56-17.67 21.07-.02 0-.02 0-.03.01-1.9.75-3.79 1.25-5.69 1.48-2.11.3-4.2.31-6.27.03-.3-.02-.61-.09-.93-.13-1.41-.24-2.81-.61-4.17-1.12-2.48-.89-4.86-2.16-7.09-3.83 2.66 1.03 5.38 1.77 8.1 2.11 1.92.26 3.82.3 5.73.13 2.42-.22 4.81-.83 7.15-1.86.32-.12.66-.27.97-.44 2.17-1.05 4.24-2.39 6.07-3.99l.01-.02c4.29-3.71 7.46-8.76 8.53-14.33.46-2.42.59-4.99.34-7.51-.25-2.68-.92-5.33-2.08-7.72v-.02c-1-2.08-2.31-3.96-4.03-5.53-.37-.36-.76-.68-1.16-1 0 0-1.35-.97-2.57-1.67-.23-.13-.46-.25-.69-.36-6-3.18-13.04-3.48-19.76-3.24 6.65-1.86 13.85-2.63 20.35-.42-1.35-11.08-11.12-21.96-21.02-25.54-7.96-2.87-17.68-3.12-25.51.33-7.47 3.27-11.89 9.37-14.35 16.97.36-4.37 1.37-8.44 3.74-12.19 1.97-3.09 4.65-5.6 7.74-7.51-1.07-3.64-3.2-6.54-6.18-9.2 3.75 1.89 6.65 4.38 8.73 7.78.52-.24 1.02-.48 1.54-.69.34-.15.66-.25 1-.38-1.8-5.29-5.93-8.98-11.22-11.17-6.18-2.57-12.63-1.91-18.7.49 4.21-2.59 8.65-4.05 13.28-4.27-.18-.09-.39-.16-.59-.24 2.75-5.08 2.63-12.98-.63-17.79 4.29 4.33 5.68 12.12 4.22 18.06.75.05 1.52.14 2.29.26h.02c.76.1 1.55.26 2.33.44 7 1.71 12.53 6.15 15.64 12.45 8.01-1.29 16.67.01 23.58 3.93 7.57 4.28 13.57 11.59 16.14 19.94v.02c.54 1.68.92 3.42 1.15 5.19.21 1.52.23 3.06.14 4.57.44.25.9.5 1.35.79l.24.14c1.76 1.14 3.27 2.47 4.57 4 1.26 1.45 2.3 3.06 3.14 4.79 2.57 5.18 3.22 11.34 2.25 17.19z" fill="url(#SVGID_20_)"/><linearGradient id="SVGID_21_" gradientUnits="userSpaceOnUse" x1="198.359" y1="561.363" x2="239.147" y2="561.363"><stop offset="0" stop-color="#26a9e0"/><stop offset=".981" stop-color="#2b388f"/></linearGradient><path d="M204.85 552.57c3.05-7.59 8.09-14.45 14.76-19.25 5.87-4.22 12.48-6.33 19.54-7.43-7.94-.21-15.37 1.54-22.07 5.93-7.31 4.78-12.63 12.04-15.82 20.09-2.95 8.12-3.86 17.08-1.71 25.51 1.98 7.76 6.12 14.12 12.05 19.43-4.42-5.69-8.19-12.17-9.28-19.42-1.7-8.19-.57-17.13 2.53-24.86z" fill="url(#SVGID_21_)"/></g><g><path class="st0" d="M791.59 578.34c-.45-1.46-1.11-2.83-1.98-4.1-.83-1.21-1.85-2.31-3.08-3.27-.61-.46-1.26-.9-1.96-1.27.09-1.48-.04-3.01-.37-4.54-1.27-6.14-5.63-12.28-11.49-15.64-4.62-2.66-11.28-3.81-17.39-2.64-2.83-4.35-6.83-7.83-11.56-10.19.08-.29.15-.58.2-.87h.01c.56-2.63.6-5.4-.02-8.19-2.37-10.69-13.23-17.37-24.26-14.93-6 1.33-10.8 5.09-13.57 9.97-5.52-5.36-11.31-8.2-16.79-7.7-7.14-11.26-20.75-17.42-34.44-14.38-9.09 2.01-16.41 7.67-20.83 15.11-.12.18-.21.35-.31.53-5.02-3.92-11.9-5.66-18.88-4.11-4.76 1.05-8.82 3.47-11.84 6.69-4.58-7.62-14.36-11.74-24.38-9.52-12.24 2.71-20.19 13.86-17.74 24.91.04.2.11.39.17.59a30.41 30.41 0 00-4.48-.14c-6.13.3-11.67 2.34-16.36 5.54-1.26.84-2.45 1.78-3.58 2.79a35.31 35.31 0 00-3.66 3.78c-1.01 1.2-1.94 2.48-2.8 3.8a38.048 38.048 0 00-5.5 14.09c-2.08 12.17 4.26 26.57 15.35 33.49-.19.31-.37.63-.54.95-.02.04-.05.09-.06.13-.02.03-.03.06-.04.09-1.61 2.36-2.7 4.85-3.28 7.31-2.72 11.26 4.45 22.49 15.52 23.54 2.23.21 4.61.02 7.1-.67-.89 2.52-1.3 5-1.31 7.4-.04 14.05 13.83 25.23 27.96 23.57 4-.47 8.03-1.98 11.77-4.75.85-.63 1.69-1.33 2.5-2.09.93-.86 1.83-1.82 2.7-2.87.23-.27.46-.56.69-.84l.42.18c.48-.67.86-1.23 1.29-1.93 4.05 2.2 8.4 4.5 12.68 6.23.45.25.7.28 1.18.48 22.05 8.68 46.84 11.1 71.72 5.59 34.44-7.63 62.37-29.36 79.16-57.4.97.36 1.79.57 2.79.73.13-.28.24-.55.35-.82.28.02.57.03.84.02 1.65.03 3.23-.2 4.73-.6 1.57-.42 3.07-1.08 4.45-1.88 4.45-2.59 7.67-6.76 8.83-10.46 1.14-3.77 1.25-7.97.09-11.71zm-231.01 51.67l-1.62-.57c.93-.27 1.87-.58 2.83-.99-.33.34-1.21 1.56-1.21 1.56z"/><linearGradient id="SVGID_22_" gradientUnits="userSpaceOnUse" x1="587.751" y1="568.937" x2="622.597" y2="568.937"><stop offset="0" stop-color="#26a9e0"/><stop offset=".981" stop-color="#2b388f"/></linearGradient><path d="M620.58 566.99c-.93 4.5-3.93 8.68-7.81 11.12-4.03 2.63-9.12 3.48-13.82 2.6-4.07-.76-7.67-2.55-11.2-4.65 3.16 3.06 6.91 5.54 11.24 6.58 5.22 1.23 10.6.47 15.16-2.4 4.29-2.8 7.45-7.39 8.23-12.49.72-4.7-.45-9.05-2.86-13.08 1.34 4.01 2.05 8.13 1.06 12.32z" fill="url(#SVGID_22_)"/><linearGradient id="SVGID_23_" gradientUnits="userSpaceOnUse" x1="578.979" y1="624.02" x2="589.877" y2="624.02"><stop offset="0" stop-color="#26a9e0"/><stop offset=".981" stop-color="#2b388f"/></linearGradient><path d="M585.19 632.01c-1.31 2.24-3.59 3.59-5.68 4.99 2.99-.63 6.59-2.12 8.14-4.99 1.56-2.39 2.53-5.45 2.13-8.33-.85-6.2-4.71-10.94-10.81-12.64 2.41 1.85 4.74 3.65 6.23 6.39 1.06 1.95 1.77 3.91 2.01 6.12.32 2.8-.21 6.19-2.02 8.46z" fill="url(#SVGID_23_)"/><linearGradient id="SVGID_24_" gradientUnits="userSpaceOnUse" x1="522.462" y1="563.326" x2="643.091" y2="563.326"><stop offset="0" stop-color="#26a9e0"/><stop offset=".981" stop-color="#2b388f"/></linearGradient><path d="M635.67 517.17a24.63 24.63 0 00-5.43-4.14c-4.8-2.71-10.69-3.91-16.16-3.11-4.82.71-8.92 2.71-12.73 5.63-.08-.09-.14-.19-.21-.28-4.77-5.63-12.23-8.22-19.49-7.64-7.19.57-13.88 4.26-18.01 10.2-3.17 4.55-4.48 9.89-4.54 15.35-12.62-.67-24.39 6.42-31 17.14-3.33 5.39-5.5 11.81-5.63 18.18-.15 7.34 2.32 14.75 6.48 20.76 3.16 4.56 7.43 8.46 12.45 10.87-1.1 3.06-1.67 6-1.73 9.32.35 3.53 1.19 6.5 2.81 9.66-1.17-3.23-1.64-6.19-1.54-9.63.45-3.06 1.32-5.69 2.71-8.39.21.08.42.18.63.25 6.2 2.12 12.45 1.63 18.57-.44-4.63.95-9.26 1.25-13.89.06-4.96-1.27-9.4-3.98-12.98-7.62-7.29-7.41-10.94-18.04-9.48-28.33.99-6.99 4.78-13.92 9.64-18.97 5.32-5.52 12.38-9.11 20.05-9.78 12.97-1.15 26.63 6.63 32.47 18.26-3.44-9.61-12.1-16.98-21.83-19.95-.21-2.93-.1-5.71.45-8.67.98-3.34 2.32-6.14 4.32-8.97-2.43 2.66-4.58 5.58-5.69 9.06-.84 2.64-1.27 5.24-1.45 7.94-.53-.12-1.06-.22-1.59-.31-.3-5.33.76-10.62 3.88-15.07 3.86-5.51 10.19-8.69 16.85-9.1 6.56-.41 13.23 2.12 17.52 7.18 1.27 1.49 2.22 3.13 2.92 4.86-.01.01-.02.01-.03.02.02.03.05.06.07.09 1.32 3.32 1.64 6.96 1.12 10.62.64-3.25.57-6.5-.24-9.56.23.27.45.54.68.81 2.48-2.34 5.22-4.42 8.57-5.35 3.18-.88 6.15-1.07 9.42-.82-3.51-.72-7.15-1.1-10.67-.16-3.16.84-5.8 2.18-8.43 4.02-.24-.67-.52-1.33-.83-1.97.17.2.35.4.52.6 3.36-3.17 7.18-5.49 11.83-6.19 4.97-.75 10.13.14 14.54 2.57 4.36 2.39 8.03 6.27 9.52 11.09 1.36 4.4.85 8.68-.52 13 1.88-4.57 2.79-9.36 1.39-14.23-.73-2.54-1.99-4.85-3.6-6.9a48.4 48.4 0 012.15-5.16c1.1-1.66 2.24-3.13 3.58-4.61a39.6 39.6 0 00-4.61 3.86c-1.04 1.27-1.95 2.59-2.83 3.95z" fill="url(#SVGID_24_)"/><linearGradient id="SVGID_25_" gradientUnits="userSpaceOnUse" x1="534.122" y1="630.586" x2="605.946" y2="630.586"><stop offset="0" stop-color="#26a9e0"/><stop offset=".981" stop-color="#2b388f"/></linearGradient><path d="M604.89 647.89c-.04.06-.07.11-.09.16-.43.71-.88 1.38-1.36 2.05-.2.31-.42.62-.66.91-.16.21-.32.44-.5.64-.64.81-1.33 1.59-2.06 2.32-.74.76-1.53 1.49-2.37 2.15-3.19 2.61-6.91 4.48-10.99 5.31-.66.15-1.31.25-1.99.33-7.25.88-14.66-1.56-20.27-6.19-5.43-4.5-9.03-11.2-9.14-18.31-.01-.82.02-1.62.09-2.42.12-1.23.33-2.45.63-3.65-1.12.25-2.26.4-3.38.44-4.67.19-9.33-1.37-13.02-5.03-5.73-5.69-7.03-14-4.27-21.05.89-2.28 2.19-4.42 3.91-6.32-1.22 3.01-2.16 5.97-2.41 9.14-.08.78-.11 1.58-.08 2.39.1 4.78 2.06 9.47 5.34 12.93 2.13 2.24 4.85 3.78 7.81 4.57 1.47.39 3 .6 4.54.6 2.79.01 5.4-.61 7.98-1.43 1.05-.32 2.09-.7 3.13-1.07.01 0 .01 0 .02-.01 0 0-.01 0-.01.01-.78.67-1.59 1.28-2.45 1.83-.76.5-1.57.94-2.38 1.34-.22.11-.45.22-.67.32.15.06.27.1.35.13h.01c-.99 3.05-1.38 6.15-1.07 9.18.31 3.14 1.34 6.2 3.16 9.03 3.9 6.01 10.53 10.1 17.64 10.97 1.1.13 2.21.19 3.3.16 4.56-.1 8.94-1.56 12.74-4.06.93-.6 1.81-1.26 2.65-1.98.46-.38.91-.77 1.34-1.19.53-.5 1.04-1.03 1.53-1.56h.01c.48-.55.94-1.1 1.41-1.66.31-.37.6-.76.9-1.13.16-.22.32-.42.47-.64.18-.23.8-1.45 1.06-1.51.74-.16-.73 2.08-.85 2.3z" fill="url(#SVGID_25_)"/><linearGradient id="SVGID_26_" gradientUnits="userSpaceOnUse" x1="564.311" y1="648.946" x2="591.051" y2="648.946"><stop offset="0" stop-color="#26a9e0"/><stop offset=".981" stop-color="#2b388f"/></linearGradient><path d="M568.47 647.19c-1.67-1.68-2.88-3.58-4.16-5.55 2.11 11.7 16.49 18.49 26.74 12.26-2.5.37-4.87.66-7.41.47-2.76-.07-5.47-1.12-7.99-2.14-2.65-1.37-5.06-2.92-7.18-5.04z" fill="url(#SVGID_26_)"/><linearGradient id="SVGID_27_" gradientUnits="userSpaceOnUse" x1="730.798" y1="563.435" x2="794.236" y2="563.435"><stop offset="0" stop-color="#26a9e0"/><stop offset=".981" stop-color="#2b388f"/></linearGradient><path d="M793.93 587.88c-1.13 6.73-6.24 12.44-12.52 14.93h-.02c-1.34.53-2.69.88-4.03 1.05-1.49.21-2.98.22-4.45.02-.21-.02-.43-.06-.66-.09-1-.17-1.99-.43-2.95-.79-1.76-.63-3.44-1.53-5.02-2.71 1.88.73 3.81 1.26 5.74 1.49 1.36.18 2.71.21 4.06.09 1.71-.16 3.41-.59 5.07-1.32.23-.09.47-.19.69-.31 1.54-.75 3-1.69 4.3-2.83l.01-.01c3.04-2.63 5.29-6.21 6.04-10.16.33-1.71.42-3.53.24-5.32-.17-1.9-.65-3.78-1.47-5.47v-.01c-.71-1.47-1.64-2.81-2.85-3.92-.26-.25-.54-.48-.82-.71 0 0-.96-.68-1.82-1.18-.17-.09-.33-.18-.49-.26-4.26-2.25-9.24-2.47-14-2.3 4.71-1.32 9.81-1.86 14.42-.3-.96-7.85-7.88-15.56-14.9-18.1-5.64-2.04-12.53-2.21-18.07.23-5.29 2.32-8.43 6.64-10.17 12.02.25-3.1.97-5.98 2.65-8.64 1.39-2.19 3.3-3.97 5.49-5.32-.75-2.58-2.27-4.64-4.38-6.52 2.66 1.34 4.72 3.1 6.19 5.52.37-.17.72-.34 1.09-.49.24-.1.47-.18.71-.27-1.27-3.75-4.2-6.36-7.95-7.92-4.38-1.82-8.95-1.36-13.25.34 2.98-1.84 6.13-2.87 9.41-3.03-.13-.06-.27-.11-.42-.17 1.95-3.6 1.86-9.2-.44-12.6 3.04 3.07 4.03 8.59 2.99 12.8.53.03 1.08.1 1.62.19h.01c.54.07 1.1.19 1.65.31 4.96 1.21 8.88 4.36 11.08 8.82 5.68-.92 11.82 0 16.71 2.78 5.37 3.04 9.62 8.21 11.44 14.13v.01c.38 1.19.65 2.42.82 3.68.15 1.08.17 2.17.1 3.24.32.18.64.35.96.56l.17.1c1.25.81 2.32 1.75 3.24 2.83.89 1.03 1.63 2.17 2.22 3.39 1.79 3.71 2.25 8.08 1.56 12.22z" fill="url(#SVGID_27_)"/><linearGradient id="SVGID_28_" gradientUnits="userSpaceOnUse" x1="530.184" y1="565.847" x2="559.086" y2="565.847"><stop offset="0" stop-color="#26a9e0"/><stop offset=".981" stop-color="#2b388f"/></linearGradient><path d="M534.78 559.62c2.16-5.38 5.73-10.24 10.46-13.64 4.16-2.99 8.84-4.48 13.85-5.27-5.62-.15-10.89 1.09-15.64 4.2-5.18 3.39-8.95 8.53-11.21 14.24-2.09 5.76-2.74 12.1-1.21 18.08 1.41 5.5 4.34 10.01 8.54 13.77-3.13-4.03-5.8-8.62-6.58-13.76-1.2-5.81-.4-12.15 1.79-17.62z" fill="url(#SVGID_28_)"/></g><g><path class="st0" d="M712.63 579.78c2.62 3.62 7.66 7.01 13.46 8.23 1.79.38 3.67.55 5.55.44 1.79-.1 3.6-.43 5.39-1.06.3-.09.61-.21.91-.33.22.26.44.51.68.77 1.04-.55 1.86-1.07 2.79-1.82 28.56 24.56 66.99 38.17 107.43 34 29.22-3.02 55.45-14.67 76.4-32.18.45-.39.7-.52 1.11-.95 4.05-3.44 7.97-7.54 11.6-11.42.73.62 1.35 1.09 2.11 1.65.13-.12.25-.23.39-.35.35.23.71.46 1.06.67 1.34.83 2.67 1.55 4 2.15 1.16.54 2.33 1 3.49 1.38 5.1 1.67 10.04 1.85 14.59.92 16.06-3.31 27.17-20.58 22.02-35.93-.88-2.62-2.23-5.18-4.12-7.61 2.98-.14 5.65-.81 8.01-1.84 11.72-5.18 15.48-20.07 8.41-31.39-1.54-2.48-3.62-4.8-6.25-6.8l-.08-.08c-.03-.04-.08-.08-.12-.12-.31-.29-.62-.58-.94-.85 9.61-11.6 11.31-29.65 4.61-42.21A43.69 43.69 0 00984 441.64c-1.42-1.14-2.9-2.19-4.44-3.14a40.993 40.993 0 00-5.38-2.8c-1.61-.69-3.25-1.29-4.93-1.75-6.29-1.8-13.1-2.01-19.91-.11-1.66.47-3.28 1.08-4.85 1.78-.01-.24 0-.47-.03-.71-1.34-12.98-14.08-22.28-28.46-20.8-11.76 1.21-20.96 9.27-23.2 19.27-4.48-2.43-9.8-3.59-15.38-3.01-8.2.85-15.1 5.25-19.15 11.36-.18-.16-.34-.3-.53-.46-7.53-6.54-17.6-10.06-28.27-8.95-16.08 1.66-28.73 13.33-32.44 28.24-6.18 1.45-11.48 6.66-15.57 14.53-4.8-4.33-11.41-6.7-18.46-5.97-12.95 1.34-22.4 12.59-21.11 25.15.34 3.27 1.39 6.29 2.96 8.96h.02c.16.29.34.58.53.87-4.31 4.29-7.42 9.56-8.93 15.35-7.11.94-13.98 4.63-18.06 9.21-5.18 5.8-7.72 14.1-6.88 21.27.2 1.79.61 3.5 1.25 5.09-.64.67-1.18 1.38-1.69 2.11-1 1.49-1.72 3.07-2.18 4.69-.49 1.7-.71 3.45-.67 5.21.08 4.51 1.72 9.06 4.39 12.75zm265.11-41.48c1.2.1 2.34.1 3.46.05l-1.57 1.21c0 .01-1.4-1-1.89-1.26z"/><linearGradient id="SVGID_29_" gradientUnits="userSpaceOnUse" x1="887.127" y1="491.934" x2="930.309" y2="491.934"><stop offset="0" stop-color="#26a9e0"/><stop offset=".981" stop-color="#2b388f"/></linearGradient><path d="M891.11 492.46c2.66 4.58 7.45 8.07 12.58 9.32 5.36 1.41 11.24.5 16.06-2.18 4.18-2.32 7.46-5.57 10.56-9.15-2.35 4.5-5.54 8.58-9.9 11.28-5.26 3.24-11.42 4.36-17.45 2.89-5.71-1.51-10.83-5.37-13.54-10.67-2.5-4.88-2.8-10.06-1.63-15.34 0 4.87.71 9.63 3.32 13.85z" fill="url(#SVGID_29_)"/><linearGradient id="SVGID_30_" gradientUnits="userSpaceOnUse" x1="945.046" y1="539.879" x2="961.465" y2="539.879"><stop offset="0" stop-color="#26a9e0"/><stop offset=".981" stop-color="#2b388f"/></linearGradient><path d="M953.44 550.7c2.25 1.98 5.24 2.63 8.03 3.4-3.5.4-7.98.08-10.72-2.5-2.57-2.04-4.75-5.04-5.36-8.33-1.32-7.09 1.17-13.68 7.23-17.75-1.97 2.89-3.86 5.72-4.49 9.25-.45 2.52-.51 4.92.02 7.42.67 3.18 2.5 6.69 5.29 8.51z" fill="url(#SVGID_30_)"/><linearGradient id="SVGID_31_" gradientUnits="userSpaceOnUse" x1="845.542" y1="466.819" x2="1001.135" y2="466.819"><stop offset="0" stop-color="#26a9e0"/><stop offset=".981" stop-color="#2b388f"/></linearGradient><path d="M856.51 443.47c1.16-2.35 2.66-4.55 4.43-6.5 4.27-4.71 10.26-8.16 16.54-9.27 5.53-.98 10.74-.28 15.97 1.54.05-.13.08-.26.13-.39 3.17-7.89 10.39-13.43 18.54-15.44 8.07-1.99 16.73-.38 23.41 4.61 5.12 3.83 8.5 9.19 10.54 15.14 13.55-5.32 29-1.84 40.13 7.47 5.6 4.69 10.3 10.91 12.77 17.83 2.84 7.97 2.83 16.97.46 25.06-1.8 6.14-5.05 11.95-9.67 16.41 2.31 2.95 4 5.96 5.28 9.56.9 3.99 1.06 7.55.44 11.58.1-3.95-.46-7.37-1.82-11.09-1.61-3.18-3.51-5.74-6.01-8.19-.2.17-.39.35-.6.51-6.01 4.58-13.02 6.31-20.46 6.27 5.4-.65 10.58-2 15.21-4.99 4.96-3.19 8.83-7.77 11.42-13.05 5.28-10.75 5.41-23.7.07-34.43-3.63-7.29-10.29-13.49-17.43-17.24-7.82-4.11-16.85-5.46-25.48-3.41-14.6 3.45-26.71 16.93-28.87 31.77.26-11.76 7.06-22.97 16.62-29.75-.83-3.29-1.97-6.28-3.64-9.32-2.28-3.29-4.77-5.87-7.99-8.24 3.63 2.02 7.04 4.44 9.52 7.85 1.88 2.58 3.3 5.26 4.47 8.16.54-.32 1.08-.62 1.63-.92-1.61-5.94-4.69-11.34-9.72-15.07-6.23-4.63-14.3-5.8-21.74-3.83-7.32 1.94-13.7 7.13-16.55 14.21-.85 2.1-1.29 4.23-1.42 6.37.01 0 .02.01.04.01-.02.04-.03.08-.05.12-.23 4.11.73 8.21 2.64 12.02-1.88-3.32-2.98-6.9-3.21-10.54-.15.38-.3.76-.44 1.14-3.56-1.65-7.32-2.94-11.31-2.74-3.8.19-7.11 1.06-10.6 2.53 3.58-2.07 7.41-3.8 11.61-4.06 3.76-.22 7.13.27 10.67 1.33.02-.82.08-1.64.19-2.46-.12.28-.23.56-.35.84-4.83-2.25-9.84-3.39-15.18-2.47-5.71.98-11.03 3.84-14.97 8.09-3.89 4.2-6.5 9.78-6.38 15.59.11 5.31 2.23 9.8 5.29 14.03-3.72-4.32-6.46-9.22-6.69-15.06-.12-3.05.42-6.03 1.43-8.85-1.34-1.72-2.7-3.31-4.23-4.87a43.559 43.559 0 00-5.59-3.74c2.26.7 4.31 1.52 6.44 2.55 1.57 1.05 3.05 2.16 4.51 3.33z" fill="url(#SVGID_31_)"/><linearGradient id="SVGID_32_" gradientUnits="userSpaceOnUse" x1="935.719" y1="540.957" x2="1003.508" y2="540.957"><stop offset="0" stop-color="#26a9e0"/><stop offset=".981" stop-color="#2b388f"/></linearGradient><path d="M937.67 575.23c.06.05.11.09.16.15.73.62 1.47 1.19 2.23 1.74.33.26.69.52 1.05.75.25.18.51.36.77.52 1 .65 2.03 1.25 3.09 1.79 1.09.56 2.22 1.07 3.37 1.49 4.44 1.7 9.19 2.39 13.95 1.81.77-.08 1.53-.2 2.29-.36 8.25-1.67 15.47-7.04 19.91-14.13 4.3-6.89 5.8-15.53 3.34-23.34-.29-.9-.61-1.77-.98-2.61-.58-1.3-1.25-2.55-2.01-3.76 1.31-.14 2.62-.39 3.86-.75 5.17-1.49 9.7-4.89 12.41-10.23 4.2-8.31 2.6-17.87-2.98-24.57-1.8-2.17-4-4.04-6.57-5.49 2.43 2.85 4.53 5.74 5.96 9.12.37.83.69 1.68.96 2.58 1.62 5.26 1.19 11.1-1.14 16.08-1.51 3.22-3.93 5.9-6.88 7.83-1.46.96-3.06 1.75-4.75 2.31-3.05 1.02-6.12 1.3-9.24 1.34-1.27.03-2.54 0-3.81-.03h-.03s.02 0 .02.01c1.09.45 2.21.82 3.34 1.12 1.02.26 2.05.46 3.09.6.28.04.57.07.85.1-.15.12-.26.2-.34.27h-.02c2.2 2.97 3.74 6.22 4.51 9.65.81 3.55.79 7.27-.18 11.03-2.08 7.99-7.85 14.88-15.3 18.41-1.15.55-2.34 1.01-3.55 1.37-5.02 1.55-10.34 1.54-15.41.19-1.23-.32-2.44-.72-3.62-1.21-.64-.24-1.28-.51-1.9-.82-.76-.35-1.51-.75-2.24-1.15h-.01c-.72-.43-1.43-.86-2.14-1.3-.47-.29-.93-.61-1.39-.91-.25-.18-.51-.35-.75-.53-.28-.19-1.4-1.3-1.71-1.27-.84.09 1.58 2 1.79 2.2z" fill="url(#SVGID_32_)"/><linearGradient id="SVGID_33_" gradientUnits="userSpaceOnUse" x1="954.989" y1="565.438" x2="979.967" y2="565.438"><stop offset="0" stop-color="#26a9e0"/><stop offset=".981" stop-color="#2b388f"/></linearGradient><path d="M977.24 561.23c1.22-2.44 1.85-4.96 2.53-7.58 1.95 13.56-11.31 26.21-24.79 23.12 2.87-.5 5.57-1.04 8.28-2.18 3-1.08 5.57-3.21 7.96-5.24 2.4-2.46 4.48-5.03 6.02-8.12z" fill="url(#SVGID_33_)"/><linearGradient id="SVGID_34_" gradientUnits="userSpaceOnUse" x1="706.248" y1="538.734" x2="760.279" y2="538.734"><stop offset="0" stop-color="#26a9e0"/><stop offset=".981" stop-color="#2b388f"/></linearGradient><path d="M709.13 578.31c3.68 6.95 11.35 11.34 19.12 11.78h.03c1.66.09 3.26-.01 4.79-.32 1.71-.31 3.34-.85 4.87-1.59.23-.1.45-.22.68-.34 1.04-.55 2.02-1.2 2.94-1.94a22.12 22.12 0 004.5-4.79c-1.79 1.49-3.71 2.76-5.74 3.72-1.42.69-2.88 1.21-4.41 1.58-1.93.45-3.94.6-6.02.4-.28-.01-.58-.04-.87-.09-1.96-.26-3.9-.76-5.73-1.53l-.02-.01c-4.28-1.77-8.04-4.86-10.3-8.91-.98-1.75-1.74-3.71-2.2-5.73-.5-2.14-.66-4.37-.38-6.52V564c.24-1.87.77-3.66 1.69-5.32.2-.37.41-.72.64-1.07 0 0 .8-1.1 1.56-1.96.15-.16.29-.31.44-.46 3.83-4.01 9.21-6.06 14.48-7.6-5.64.27-11.41 1.53-15.88 4.91-1.81-8.93 2.96-19.88 9.71-25.21 5.43-4.28 12.9-6.97 19.85-6.32 6.63.61 11.63 4.2 15.49 9.45-1.4-3.3-3.23-6.19-6.04-8.48-2.32-1.89-5.04-3.14-7.93-3.83-.11-3.1.79-5.9 2.42-8.72-2.42 2.43-4.03 5.11-4.76 8.28-.47-.05-.91-.11-1.37-.14-.3-.03-.58-.03-.87-.04.03-4.56 2.28-8.48 5.81-11.55 4.13-3.58 9.29-4.73 14.62-4.44-3.93-.92-7.75-.91-11.39.11.12-.11.26-.22.39-.34-3.44-3.23-5.38-9.39-4.09-13.94-2.21 4.46-1.28 10.86 1.38 15.08-.57.23-1.14.5-1.7.79h-.02c-.56.28-1.13.6-1.69.94-4.99 3.13-8.13 7.99-8.91 13.67-6.54 1.06-12.92 4.3-17.26 9.12-4.77 5.27-7.53 12.47-7.37 19.61v.01c.02 1.44.17 2.89.45 4.32.23 1.23.61 2.43 1.06 3.58-.28.31-.57.62-.84.96l-.15.17c-1.07 1.34-1.9 2.76-2.51 4.27-.6 1.45-.99 2.96-1.2 4.52-.61 4.72.48 9.66 2.73 13.94z" fill="url(#SVGID_34_)"/><linearGradient id="SVGID_35_" gradientUnits="userSpaceOnUse" x1="948.81" y1="464.289" x2="992.849" y2="464.289"><stop offset="0" stop-color="#26a9e0"/><stop offset=".981" stop-color="#2b388f"/></linearGradient><path d="M982.26 453.22c-4.32-5.1-9.99-9.12-16.39-11.11-5.63-1.76-11.3-1.69-17.06-.73 6.1-2.2 12.31-2.77 18.63-1.09 6.89 1.82 12.88 6.08 17.43 11.5 4.38 5.54 7.39 12.24 7.89 19.33.46 6.52-1.11 12.52-4.33 18.16 1.96-5.55 3.21-11.54 2.19-17.44-.8-6.8-3.97-13.43-8.36-18.62z" fill="url(#SVGID_35_)"/></g><g><circle class="st0" cx="827" cy="386.33" r="24.87"/><linearGradient id="SVGID_36_" gradientUnits="userSpaceOnUse" x1="805.294" y1="378.803" x2="835.159" y2="378.803"><stop offset="0" stop-color="#26a9e0"/><stop offset=".981" stop-color="#2b388f"/></linearGradient><path d="M813.48 371.39c3.06-2.86 6.88-4.94 11.01-5.72 3.63-.68 7.15-.23 10.67.79-3.63-1.82-7.46-2.62-11.51-2.04-4.42.63-8.46 2.84-11.69 5.88-3.13 3.13-5.49 7.08-6.32 11.45-.76 4.03-.22 7.87 1.37 11.61-.82-3.59-1.16-7.42-.09-11.01.99-4.15 3.45-8.05 6.56-10.96z" fill="url(#SVGID_36_)"/></g><g><circle class="st0" cx="783" cy="428.46" r="10"/><linearGradient id="SVGID_37_" gradientUnits="userSpaceOnUse" x1="774.272" y1="425.434" x2="786.281" y2="425.434"><stop offset="0" stop-color="#26a9e0"/><stop offset=".981" stop-color="#2b388f"/></linearGradient><path d="M777.56 422.45c1.23-1.15 2.77-1.99 4.43-2.3 1.46-.27 2.88-.09 4.29.32-1.46-.73-3-1.05-4.63-.82-1.78.25-3.4 1.14-4.7 2.37-1.26 1.26-2.21 2.85-2.54 4.61-.31 1.62-.09 3.17.55 4.67-.33-1.45-.47-2.98-.04-4.43.4-1.68 1.39-3.25 2.64-4.42z" fill="url(#SVGID_37_)"/></g><g><circle class="st0" cx="593.87" cy="428.18" r="15.13"/><linearGradient id="SVGID_38_" gradientUnits="userSpaceOnUse" x1="580.656" y1="423.604" x2="598.832" y2="423.604"><stop offset="0" stop-color="#26a9e0"/><stop offset=".981" stop-color="#2b388f"/></linearGradient><path d="M585.64 419.09c1.86-1.74 4.19-3.01 6.7-3.48 2.21-.41 4.35-.14 6.49.48-2.21-1.11-4.54-1.59-7.01-1.24-2.69.38-5.15 1.73-7.11 3.58-1.9 1.9-3.34 4.31-3.85 6.97-.46 2.45-.14 4.79.83 7.07-.5-2.19-.71-4.51-.06-6.7.62-2.54 2.12-4.91 4.01-6.68z" fill="url(#SVGID_38_)"/></g><g><circle class="st0" cx="370.56" cy="404.93" r="19.44"/><linearGradient id="SVGID_39_" gradientUnits="userSpaceOnUse" x1="353.597" y1="399.044" x2="376.94" y2="399.044"><stop offset="0" stop-color="#26a9e0"/><stop offset=".981" stop-color="#2b388f"/></linearGradient><path d="M360 393.25c2.39-2.23 5.38-3.86 8.61-4.47 2.84-.53 5.59-.18 8.34.62-2.84-1.42-5.83-2.05-9-1.59-3.46.49-6.61 2.22-9.14 4.6-2.44 2.44-4.29 5.53-4.94 8.95-.6 3.15-.17 6.15 1.07 9.08-.64-2.81-.91-5.8-.07-8.61.77-3.26 2.7-6.31 5.13-8.58z" fill="url(#SVGID_39_)"/></g><g><circle class="st0" cx="307.12" cy="463.9" r="6.88"/><linearGradient id="SVGID_40_" gradientUnits="userSpaceOnUse" x1="301.119" y1="461.823" x2="309.379" y2="461.823"><stop offset="0" stop-color="#26a9e0"/><stop offset=".981" stop-color="#2b388f"/></linearGradient><path d="M303.38 459.77c.85-.79 1.9-1.37 3.05-1.58 1-.19 1.98-.06 2.95.22-1-.5-2.06-.72-3.18-.56-1.22.17-2.34.79-3.23 1.63-.86.86-1.52 1.96-1.75 3.17-.21 1.11-.06 2.18.38 3.21-.23-.99-.32-2.05-.03-3.05.27-1.16.95-2.23 1.81-3.04z" fill="url(#SVGID_40_)"/></g><g><circle class="st0" cx="83.42" cy="462.53" r="20.58"/><linearGradient id="SVGID_41_" gradientUnits="userSpaceOnUse" x1="65.451" y1="456.303" x2="90.17" y2="456.303"><stop offset="0" stop-color="#26a9e0"/><stop offset=".981" stop-color="#2b388f"/></linearGradient><path d="M72.23 450.17c2.53-2.37 5.7-4.09 9.11-4.74 3.01-.56 5.92-.19 8.83.65-3.01-1.5-6.17-2.17-9.53-1.69-3.66.52-7 2.35-9.67 4.87-2.59 2.59-4.55 5.86-5.23 9.48-.63 3.33-.18 6.52 1.14 9.61-.67-2.98-.96-6.14-.08-9.11.82-3.44 2.85-6.66 5.43-9.07z" fill="url(#SVGID_41_)"/></g><g><circle class="st0" cx="34.54" cy="481.87" r="10.46"/><linearGradient id="SVGID_42_" gradientUnits="userSpaceOnUse" x1="25.412" y1="478.702" x2="37.973" y2="478.702"><stop offset="0" stop-color="#26a9e0"/><stop offset=".981" stop-color="#2b388f"/></linearGradient><path d="M28.85 475.58c1.29-1.2 2.89-2.08 4.63-2.41 1.53-.29 3.01-.1 4.49.33-1.53-.76-3.14-1.1-4.84-.86-1.86.27-3.56 1.2-4.92 2.47-1.32 1.31-2.31 2.98-2.66 4.82-.32 1.69-.09 3.31.58 4.88-.34-1.51-.49-3.12-.04-4.63.42-1.73 1.46-3.37 2.76-4.6z" fill="url(#SVGID_42_)"/></g><path class="st0" d="M-10 594.07s12 16.39 38 9.39 76-14 76-14l75 21 30.49-3.38S222 620.46 252 610.46s84 2 84 2l196-13h7l.48-.36s9.62 6.73 23.37 1.79 162.8-6.89 162.8-6.89l117.19-32.64L935.91 573s18.39 21.52 40.29 4.92v485.34H-19.54L-10 594.07z"/></svg>