<svg xmlns="http://www.w3.org/2000/svg" width="512" height="512" viewBox="0 0 512.011 512.011"><g xmlns="http://www.w3.org/2000/svg" fill="#fff"><path d="M44.782 232.717c0 22.864 14.611 43.165 36.867 51.989v21.582c-6.916 2.965-11.775 9.837-11.775 17.826v42.924c0 4.481 1.542 8.6 4.105 11.887-2.563 3.287-4.105 7.406-4.105 11.887v34.339c0 10.69 8.697 19.387 19.387 19.387h7.389l1.37 49.16.005.131c.479 10.574 8.535 18.182 19.164 18.182 9.404 0 16.935-6.292 18.601-15.695l11.578-51.778h91.139c4.143 0 7.5-3.358 7.5-7.5s-3.357-7.5-7.5-7.5H89.262c-2.378 0-4.387-2.009-4.387-4.387v-34.339c0-2.378 2.009-4.387 4.387-4.387H422.75c2.378 0 4.387 2.009 4.387 4.387v34.339c0 2.378-2.009 4.387-4.387 4.387H273.506c-4.143 0-7.5 3.358-7.5 7.5s3.357 7.5 7.5 7.5h91.138l11.578 51.778c1.667 9.404 9.195 15.696 18.601 15.695 10.627 0 18.685-7.606 19.164-18.182l.005-.131 1.37-49.16h7.389c10.689 0 19.387-8.697 19.387-19.387v-34.339c0-4.481-1.542-8.6-4.105-11.887 2.563-3.287 4.105-7.406 4.105-11.887v-3.962c0-4.142-3.357-7.5-7.5-7.5s-7.5 3.358-7.5 7.5v3.962c0 2.378-2.009 4.387-4.387 4.387H89.261c-2.378 0-4.387-2.009-4.387-4.387v-42.924c0-2.363 1.985-4.357 4.343-4.382.078-.001.156-.002.232-.005h333.123c.081.003.15.004.221.004 2.359.025 4.344 2.019 4.344 4.382v3.962c0 4.142 3.357 7.5 7.5 7.5s7.5-3.358 7.5-7.5v-3.962c0-7.989-4.859-14.861-11.775-17.826v-21.582c22.256-8.824 36.867-29.125 36.867-51.989 0-25.487-18.216-47.081-43.165-54.119l9.898-61.41c4.142-25.694-12.828-49.69-38.633-54.629-15.452-2.958-28.435-10.242-38.587-21.651-9.955-11.188-23.179-20.529-39.302-27.766-39.043-17.522-83.827-17.521-122.87 0-16.123 7.236-29.347 16.578-39.302 27.766-10.152 11.409-23.135 18.693-38.587 21.651-25.805 4.939-42.774 28.935-38.633 54.629l9.898 61.41c-24.947 7.039-43.164 28.633-43.164 54.12zm87.214 211.821l-10.886 48.686c-.03.135-.057.27-.079.406-.519 3.122-2.874 3.451-4.228 3.37-1.348-.081-3.625-.683-3.792-3.797l-1.356-48.665zm267.003 48.665c-.167 3.114-2.444 3.716-3.792 3.797-1.362.08-3.709-.249-4.228-3.37a7.091 7.091 0 00-.079-.406l-10.886-48.686h20.341zM125.365 304.727H96.65v-22.98c0-6.616-3.326-12.465-8.423-15.816h-.001c-6.788-4.459-10.841-11.961-10.841-20.069 0-13.228 10.762-23.99 23.99-23.99 15.017 0 23.99 12.478 23.99 24.542zm220.355 0H166.291v-11.086c0-6.718 5.463-12.216 12.216-12.216h154.997c6.742 0 12.216 5.486 12.216 12.216zm0-72.01v36.607a27.276 27.276 0 00-12.216-2.898H178.507a27.38 27.38 0 00-12.216 2.898v-36.607c0-20.245-11.872-39.582-31.676-49.647l-11.998-74.441c-.089-.553.31-1.069.908-1.174 25.77-4.516 48.465-17.1 65.632-36.392 5.672-6.374 13.742-11.937 23.985-16.534a104.773 104.773 0 0185.742.007c10.236 4.597 18.302 10.158 23.97 16.527 17.167 19.293 39.861 31.877 65.631 36.392.599.105.997.621.908 1.174l-11.998 74.442c-19.084 9.697-31.675 28.641-31.675 49.646zm78.064 33.214c-5.01 3.291-8.423 9.1-8.423 15.816v22.98h-28.715v-58.315c0-15.362 12.197-24.542 23.989-24.542 13.229 0 23.99 10.762 23.99 23.99.001 8.109-4.052 15.611-10.841 20.071zm28.445-33.214c0 4.821-.911 9.491-2.609 13.854.447-21.654-17.14-39.7-38.983-39.7-21.863 0-38.989 17.369-38.989 39.542v58.315H360.72v-72.011c0-15.504 9.804-30.494 26.208-37.554 30.062-12.951 65.301 7.031 65.301 37.554zM119.502 77.29c18.771-3.593 34.574-12.479 46.972-26.412 8.539-9.596 20.059-17.688 34.239-24.053 35.137-15.769 75.444-15.771 110.585 0 14.181 6.364 25.7 14.457 34.239 24.053 12.397 13.933 28.201 22.819 46.972 26.412 17.782 3.404 29.486 19.88 26.645 37.51l-9.901 61.433a64.835 64.835 0 00-15.763 1.253l10.713-66.471c1.386-8.598-4.503-16.823-13.128-18.335-22.724-3.981-41.905-14.609-57.014-31.589-7.085-7.96-16.853-14.77-29.031-20.239-31.146-13.986-66.877-13.988-98.027-.009-12.188 5.47-21.962 12.282-29.05 20.248-15.109 16.979-34.292 27.607-57.017 31.589-8.624 1.511-14.513 9.736-13.127 18.335l10.709 66.443c-4.878-.987-10.434-1.454-15.759-1.224l-9.901-61.433c-2.842-17.631 8.862-34.107 26.644-37.511zm-13.965 113.882c24.662 0 45.754 18.155 45.754 41.544v72.011h-10.926v-58.315c0-22.173-17.127-39.542-38.99-39.542-21.499 0-38.99 17.491-38.99 38.99 0 .237.002.473.007.709a38.108 38.108 0 01-2.609-13.854c-.001-23.299 20.993-41.543 45.754-41.543z" data-original="#000000"/><path d="M188.541 154.431h-.453v-.453c0-4.142-3.357-7.5-7.5-7.5s-7.5 3.358-7.5 7.5v.453h-.453c-4.143 0-7.5 3.358-7.5 7.5s3.357 7.5 7.5 7.5h.453v.453c0 4.142 3.357 7.5 7.5 7.5s7.5-3.358 7.5-7.5v-.453h.453c4.143 0 7.5-3.358 7.5-7.5s-3.357-7.5-7.5-7.5zm75.418 0h-.453v-.453c0-4.142-3.357-7.5-7.5-7.5s-7.5 3.358-7.5 7.5v.453h-.453c-4.143 0-7.5 3.358-7.5 7.5s3.357 7.5 7.5 7.5h.453v.453c0 4.142 3.357 7.5 7.5 7.5s7.5-3.358 7.5-7.5v-.453h.453c4.143 0 7.5-3.358 7.5-7.5s-3.357-7.5-7.5-7.5zm75.417 0h-.453v-.453c0-4.142-3.357-7.5-7.5-7.5s-7.5 3.358-7.5 7.5v.453h-.453c-4.143 0-7.5 3.358-7.5 7.5s3.357 7.5 7.5 7.5h.453v.453c0 4.142 3.357 7.5 7.5 7.5s7.5-3.358 7.5-7.5v-.453h.453c4.143 0 7.5-3.358 7.5-7.5s-3.357-7.5-7.5-7.5zM226.25 213.764h-.453v-.453c0-4.142-3.357-7.5-7.5-7.5s-7.5 3.358-7.5 7.5v.453h-.453c-4.143 0-7.5 3.358-7.5 7.5s3.357 7.5 7.5 7.5h.453v.453c0 4.142 3.357 7.5 7.5 7.5s7.5-3.358 7.5-7.5v-.453h.453c4.143 0 7.5-3.358 7.5-7.5s-3.357-7.5-7.5-7.5zm75.417 0h-.453v-.453c0-4.142-3.357-7.5-7.5-7.5s-7.5 3.358-7.5 7.5v.453h-.453c-4.143 0-7.5 3.358-7.5 7.5s3.357 7.5 7.5 7.5h.453v.453c0 4.142 3.357 7.5 7.5 7.5s7.5-3.358 7.5-7.5v-.453h.453c4.143 0 7.5-3.358 7.5-7.5s-3.357-7.5-7.5-7.5zM226.25 95.097h-.453v-.453c0-4.142-3.357-7.5-7.5-7.5s-7.5 3.358-7.5 7.5v.453h-.453c-4.143 0-7.5 3.358-7.5 7.5s3.357 7.5 7.5 7.5h.453v.453c0 4.142 3.357 7.5 7.5 7.5s7.5-3.358 7.5-7.5v-.453h.453c4.143 0 7.5-3.358 7.5-7.5s-3.357-7.5-7.5-7.5zm75.417 0h-.453v-.453c0-4.142-3.357-7.5-7.5-7.5s-7.5 3.358-7.5 7.5v.453h-.453c-4.143 0-7.5 3.358-7.5 7.5s3.357 7.5 7.5 7.5h.453v.453c0 4.142 3.357 7.5 7.5 7.5s7.5-3.358 7.5-7.5v-.453h.453c4.143 0 7.5-3.358 7.5-7.5s-3.357-7.5-7.5-7.5z" data-original="#000000"/></g></svg>