<svg xmlns="http://www.w3.org/2000/svg" viewBox="0 0 512 512"><path d="M437.02 74.98C388.667 26.629 324.38 0 255.999 0c-49.149 0-96.898 13.969-138.081 40.397a8.486 8.486 0 009.165 14.282c38.444-24.67 83.023-37.709 128.916-37.709 131.801 0 239.029 107.228 239.029 239.029 0 42.668-11.378 84.542-32.905 121.097-20.903 35.496-50.788 65.178-86.424 85.839a8.485 8.485 0 108.514 14.681c38.157-22.121 70.155-53.902 92.535-91.909C499.811 346.546 512 301.694 512 255.999c0-68.379-26.628-132.667-74.98-181.019zm-81.818 408.006c-1.731-4.355-6.665-6.484-11.019-4.754-28.064 11.146-57.733 16.798-88.184 16.798C124.198 495.03 16.97 387.802 16.97 256c0-69.849 30.449-136.016 83.541-181.534a8.485 8.485 0 00-11.045-12.884C32.609 110.329 0 181.192 0 255.999c0 68.379 26.628 132.668 74.98 181.02C123.333 485.371 187.62 512 255.999 512c32.605 0 64.382-6.055 94.449-17.996a8.485 8.485 0 004.754-11.018z"/><path d="M393.848 119.96a8.465 8.465 0 00-.828-.979 8.366 8.366 0 00-.979-.828c-35.014-34.559-83.076-55.927-136.042-55.927s-101.028 21.368-136.042 55.927c-.341.25-.671.519-.979.827s-.578.639-.828.979c-34.557 35.014-55.925 83.076-55.925 136.04s21.368 101.026 55.926 136.04c.25.341.52.671.828.979s.639.578.979.828c35.014 34.558 83.075 55.926 136.04 55.926s101.028-21.368 136.042-55.927c.341-.25.671-.519.979-.827s.578-.638.828-.979c34.558-35.013 55.926-83.075 55.926-136.04s-21.367-101.026-55.925-136.039zm-7.028 254.857l-28.874-28.874a8.486 8.486 0 00-12.001 0 8.484 8.484 0 00-.002 12.001l28.875 28.874c-29.459 26.78-67.968 43.766-110.332 45.778v-40.912a8.485 8.485 0 00-8.485-8.485 8.485 8.485 0 00-8.485 8.485v40.912c-42.365-2.012-80.873-18.998-110.332-45.778l28.875-28.874a8.484 8.484 0 000-11.999 8.486 8.486 0 00-12.001 0l-28.874 28.874c-26.78-29.459-43.766-67.968-45.778-110.332h40.911a8.485 8.485 0 008.485-8.485 8.485 8.485 0 00-8.485-8.485H79.406c2.012-42.365 18.998-80.873 45.778-110.332l28.874 28.874a8.467 8.467 0 006.001 2.486 8.46 8.46 0 006.001-2.486 8.484 8.484 0 000-11.999l-28.875-28.874c29.459-26.78 67.968-43.766 110.332-45.778v40.912c0 4.686 3.798 8.485 8.485 8.485s8.485-3.799 8.485-8.485V79.405c42.365 2.012 80.873 18.998 110.332 45.778l-28.875 28.874a8.484 8.484 0 000 11.999 8.46 8.46 0 006.001 2.486 8.46 8.46 0 006.001-2.486l28.874-28.874c26.78 29.459 43.766 67.968 45.778 110.332h-40.911c-4.687 0-8.485 3.799-8.485 8.485s3.798 8.485 8.485 8.485h40.911c-2.012 42.365-18.999 80.874-45.778 110.333z"/><path d="M319.865 283.864l-38.408-38.408v-74.885c0-14.037-11.419-25.456-25.456-25.456-14.037 0-25.456 11.419-25.456 25.456V256c0 6.801 2.647 13.193 7.456 18l45.864 45.864c4.808 4.808 11.201 7.456 18 7.456 6.8 0 13.192-2.649 17.999-7.456 4.81-4.807 7.457-11.2 7.457-18-.001-6.8-2.648-13.193-7.456-18zm-12.001 24.001c-1.602 1.603-3.734 2.486-6 2.486s-4.397-.883-6-2.486L250 262a8.431 8.431 0 01-2.484-6v-85.429c0-4.679 3.806-8.485 8.485-8.485 4.678 0 8.485 3.806 8.485 8.486v81.914l43.379 43.379c1.602 1.603 2.484 3.734 2.484 6s-.882 4.397-2.485 6z"/></svg>