<svg version="1.1" id="Layer_1" xmlns="http://www.w3.org/2000/svg" x="0" y="0" viewBox="0 0 2000 2000" xml:space="preserve"><style>.st0{fill:#424143}.st1{fill:#fff}</style><path class="st0" d="M1411.7 1698.86c-4.04-19.05-12.82-36.21-23.26-52.4-1.41-2.19-2.86-4.36-4.31-6.52-4.56-6.7-9.32-13.25-14.06-19.71-2.54-3.25-4.98-6.61-7.37-10.04v-.01a283.9 283.9 0 01-9.14-14.11c-10.11-16.66-18.87-34.48-26.93-51.66-37.8-80.6-55.29-169.68-53.44-258.58.84-39.33 8.28-77.21 12.95-116.1.12-1.03.32-2.71.46-4.64.17-2.45.25-5.28-.07-7.7-.03-.27-.07-.55-.12-.81l-1.29-6.53-8.17-41.23-180.11-62.09-6.46-2.22-1.45 1.33-32.4 29.97-5.54 5.12-5.62 5.19-11.95 11.05.02.02c-5.88 7.24-11.55 14.67-17.13 22.04-27.68 36.56-52.97 75.4-84.11 109.13-12.72 13.77-26.55 27.39-42.69 37.13-16.05 9.7-33.47 13.52-51.78 15.84-4.76.56-9.6 1.78-14.36 3.57-1.91.71-3.8 1.52-5.67 2.41-20.38 9.7-37.84 29.37-38.05 50.38-.05 4.25.62 8.57 2.11 12.86 0 .02.01.04.02.05.92 2.65 2.15 5.29 3.74 7.9-1.59.74-3.18 1.45-4.78 2.16-2.19.98-4.4 1.94-6.62 2.87-30.85 12.74-62.41 19.79-95.39 23.83-19.34 2.29-38.78 6.46-56.66 14.36-16.07 7.08-35.43 20.13-34.74 39.96.3 9.11 4.72 16.96 10.9 23.47 1.97 2.06 4.11 3.99 6.36 5.78.02.02.05.04.07.06-11.93 4.39-23.98 8.44-36.17 12.29-4.57 1.44-9.16 2.86-13.77 4.25-2.56.77-5.12 1.54-7.69 2.29-15.65 4.31-30.84 10.31-44.96 18.26-2.2 1.24-4.38 2.53-6.53 3.86-2.97 1.86-5.89 3.8-8.75 5.84-18.34 13.09-36.85 30.99-42.3 53.61-10.93 45.45 40.87 70.24 77.63 74.86 13.34 1.68 26.38 1.44 39.2-.17 5.02-.62 10.01-1.45 14.97-2.49 9.51-1.95 18.89-4.57 28.19-7.62 4.72-1.56 9.43-3.22 14.1-4.97-3.41 3.51-6.66 7.09-9.73 10.82-.01 0-.01.01-.01.01-5.55 6.69-10.49 13.77-14.51 21.33-6.21 11.68-9.4 27.01.34 37.75 9.46 10.41 25.25 12.73 38.61 12.53.22 0 .44-.01.66-.01 2.41-.04 4.79-.34 7.18-.53-1.18 2.54-2.31 5.11-3.37 7.72v.01c-.64 1.57-1.23 3.13-1.81 4.72-7.56 20.93-9.9 46.46 2.66 66 15.53 24.14 46.29 26.94 72.11 21.92 10.69-2.09 21.04-5.66 30.93-10.27 4.55-2.11 9-4.46 13.35-6.98 7.91-4.58 15.47-9.76 22.61-15.29 10.19-7.89 19.29-16.86 28.21-26.09.01-.02.02-.03.04-.04 2.77-2.87 5.53-5.76 8.3-8.65 2.68-2.77 5.24-5.65 7.88-8.44-2.35 5.16-4.49 10.39-6.3 15.69v.01c-3.2 9.29-5.46 18.76-6.29 28.34-1.25 14.48 1.61 30.98 16.96 36.57 14.29 5.19 31.13.82 44.43-5.19 15.02-6.82 28.13-16.36 39.81-27.5 0-.01.01-.01.01-.01 3.56-3.37 6.97-6.9 10.29-10.56-1.51 4.28-2.87 8.66-4.05 13.09v.01c-4.1 15.39-6.11 31.53-5.17 47.26.25 4.33.74 8.64 1.48 12.88.3 1.83.67 3.64 1.07 5.45 5.38 24.01 20.71 46.87 46.07 52.27 40.47 8.62 79.14-26.98 98.18-58.89a188.9 188.9 0 004.75-8.46c1.35-2.54 2.66-5.11 3.94-7.7 1.46 3.06 3.01 6.07 4.69 9 0 .01.01.02.02.03 2.66 4.64 5.64 9.09 8.99 13.29 12.83 16.08 31.56 27.92 52.72 26.95 18.1-.87 34.28-10.64 46.23-23.79 6.38-7.01 11.43-14.55 15.47-22.48.93-1.83 1.8-3.69 2.63-5.56 3.03 5.06 6.35 9.96 9.95 14.64 8.94 11.63 19.6 21.89 31.92 29.8 32.12 20.64 74.82 20.26 94.7-16.54 13.45-24.88 13.04-52.41 6.78-78.88-1.09-4.63-2.36-9.21-3.78-13.76-2.99-9.63-6.6-19.03-10.41-28-.39-.92-.76-1.84-1.11-2.76 0-.01-.01-.02-.01-.03-.59-1.49-1.14-2.98-1.75-4.47 3.7 3.07 7.57 5.95 11.59 8.56h.01c12.24 7.95 25.81 13.42 39.91 14.53 11.14.85 22.62-2.03 29.81-11.08 9.08-11.45 9-27.69 6.13-41.36z"/><path class="st1" d="M1150.01 1140.86c-76.58-26.4-100.07-59.8-105.2-68.74 27.06-75.94 109.52-216.59 200.84-185.1 101.42 34.96 69.82 205.98 49.25 268.84-13.97 3.09-67.4 11.72-144.89-15z"/><path class="st0" d="M1284.64 902.09a90.94 90.94 0 00-6.12-5.46 90.71 90.71 0 00-6.42-4.79c-7.1-4.87-15.07-8.9-23.99-11.97-1.8-.62-3.6-1.18-5.39-1.68-.03-.01-.05-.02-.08-.02-4.43-1.23-8.81-2.1-13.18-2.63a84.54 84.54 0 00-7.89-.6c-2.72-.08-5.41-.04-8.08.14-84.41 5.31-154.07 131.4-176.88 197.57 0 0 2.06 5.24 8.76 13.47 12.46 15.26 40.97 40.77 102.17 61.88 67.02 23.1 116.26 20.5 139.06 17.09 9.24-1.38 14.14-2.9 14.14-2.9 22.3-64.64 45.41-200.49-16.1-260.1zm.48 247.97c-20.31 3.17-67.29 6.17-132.65-16.36-59.56-20.53-85.68-45.11-95.94-57.88-1.4-1.75-2.51-3.27-3.35-4.54 23.22-62.63 86.73-172.66 158.15-180.66 2.86-.32 5.74-.47 8.62-.46 3.18.02 6.38.25 9.58.71 4.54.64 9.09 1.73 13.66 3.3 6.42 2.21 12.26 5.01 17.57 8.35 3.13 1.96 6.07 4.1 8.84 6.41 2.5 2.07 4.84 4.28 7.05 6.62 52.25 55.05 29.44 179.2 12.39 233.86-1.17.21-2.47.43-3.92.65z"/><path class="st1" d="M1253.8 910.82c-4.6 0-8.91-.71-13.15-2.18-11.36-3.91-16.73-11.31-20.84-18.72l-1.51-2.74.8-3.04c68.98-258.13 229.69-735.38 231.21-739.83 6.97-20.22 33.58-43.7 57.43-43.7 3.81 0 7.46.6 10.87 1.77 12.29 4.24 21.92 16.07 27.1 33.29 4.39 14.57 4.71 30.59.84 41.79-1.64 4.78-166.03 481.61-271.36 726.92l-1.64 3.83-4.1.75c-5.52 1.02-10.53 1.86-15.65 1.86z"/><path class="st0" d="M1553.15 133.43c-5.91-19.68-17.29-33.32-32-38.39-4.22-1.45-8.73-2.19-13.4-2.19-27.43 0-56.81 25.82-64.77 48.9-1.54 4.46-158.34 469.22-229.49 733.35-.65 2.36-1.27 4.71-1.9 7.04l-.19.74-1.42 5.32 1.34 2.42 1.7 3.06c4.63 8.35 11.23 17.52 25.11 22.31 5.06 1.75 10.19 2.59 15.67 2.59 5.77 0 11.37-.94 17.07-1.99l5.78-1.05 2.42-.44 2.34-5.47.94-2.19c.76-1.77 1.53-3.55 2.29-5.34 105.53-247.07 267.62-717.34 269.27-722.11 4.37-12.67 4.08-30.51-.76-46.56zm-284.09 765.55c-.33.78-.67 1.56-1 2.32-2.59.47-5 .9-7.31 1.21-2.4.32-4.7.53-6.95.53-3.52 0-6.95-.48-10.61-1.74-6.3-2.17-10.27-5.52-13.67-10.44-1.01-1.43-1.96-3-2.91-4.71.28-1.07.58-2.14.86-3.21.66-2.45 1.32-4.91 2-7.4 70.91-262.15 226.73-724.45 228.21-728.72 5.82-16.91 29.65-38.45 50.07-38.45 2.87 0 5.66.41 8.34 1.34 21.7 7.49 29.78 45.93 23.12 65.2-6.7 19.5-163.08 472.41-267.11 716.92-1.02 2.41-2.04 4.8-3.04 7.15zM1081.59 1067.94c18.8-62.5 58.26-139.53 127.56-155.35-27.79 19.18-52.01 42.02-70.62 70.5-20.47 27.23-35.82 58.11-56.94 84.85z"/><path class="st0" d="M1472.77 149.08c-53.71 169.21-108.68 338-161.87 507.38-23.36 74.34-45.43 149.05-68.69 223.41 20.41-77.2 40.82-154.5 64.14-230.87 28.57-93.49 57.64-186.75 88.72-279.43 24.77-73.91 50.84-147.32 77.7-220.49z"/><g><path class="st1" d="M1035.51 1171.18c-22.21 33.12-47.86 63.8-74.78 93.16-15.49 16.93-31.33 33.58-48.41 48.88-18.02 16.12-37.55 30.52-56.51 45.51-34.28 27.12-70.79 60.23-76.82 106.23-2.83 21.59 12.36 36.1 33.14 38.48 20.04 2.29 39.77-7.43 55.58-18.83 33.29-24.19 59.77-58.13 86.73-88.87-22.36 28.22-44.49 57.23-71.06 81.68-15.18 13.96-33.2 26.67-53.71 31.11-18.47 3.99-41.21-.83-52.33-17.38-11.7-17.38-3.09-40.13 3.8-57.57 8.68-22.02 23.31-39.52 40.58-55.39 35.17-32.35 75.82-57.99 110.49-91 37.31-35.54 72.64-74.59 103.3-116.01z"/><path class="st1" d="M1097.56 1157.84c-15.11 38.33-36.29 71.79-62.76 103.33-15.26 18.15-31.17 35.74-46.08 54.18-14.6 18.04-28.11 36.6-25.56 61.09 2.22 21.51 16.07 37.46 37.37 41.53 22.22 4.21 38.7-8.35 51.06-25.6 13.34-18.61 22.91-40.09 33.32-60.42 10.67-20.81 20.88-41.83 30.3-63.25 13.67-31.09 24.98-63.11 36.07-95.21-10.11 35.36-21.01 70.38-35.15 104.36-9.08 21.85-18.97 43.32-29.41 64.54-9.86 20.04-19.36 41.23-33.17 58.93-12.77 16.39-29.91 27.27-51.35 24.42-20.58-2.75-36.66-14.93-43.26-34.88-15.47-46.62 28.41-84.89 56.55-115.68 17.58-19.23 34.69-38.75 49.8-60 12.8-18.01 22.99-37.35 32.27-57.34z"/><path class="st1" d="M1109.61 1287.15c-33.7 80.72-53.98 165.85-58.53 253.33-1.23 23.6-1.39 47.32-.38 70.92.93 21.97 2.62 42.6 15.58 61.15 11.33 16.21 31.67 31.87 52.52 25.06 19.16-6.24 27.77-34.06 31.35-51.54 3.19-15.6 2.8-31.91 3.54-47.77.48-10.15 1.05-20.33 1.58-30.49.14 36.82 5.2 76.97-11.73 110.96-9.27 18.65-25.53 30.74-47.02 24.8-19.85-5.3-35.4-23-43.85-41.05-9.4-20.12-9.23-43.35-9.83-65.12-.66-23.89.29-47.68 2.02-71.47 4.05-47.64 12.36-94.64 25.93-140.48 10.06-33.98 23.28-66.48 38.82-98.3zM986.95 1452.87c-13.62 26.2-27.11 52.39-38.66 79.58-11.22 27.72-27.55 56.71-29.85 86.97-1.43 15.46 1.02 34.93 13.12 45.94 13.32 12.14 31.65 6.51 44.65-3.21 25.1-18.75 39.42-47.52 54.79-74.12-13.3 28.65-26.24 58.2-51.26 78.64-13.12 10.72-31.58 17.12-47.19 7.95-15.3-8.98-20.94-27.46-21.78-44.18-.61-12.06 1.59-24.71 5.4-36.1 6.22-18.58 14.17-37.05 22.64-54.69 14.44-30.08 30.2-58.69 48.14-86.78zM825.57 1381.71c-2.43.03-4.83-.1-7.19-.39-10.42-1.23-20.05-5.35-28.16-11.61-.03-.01-.05-.03-.07-.05a62.27 62.27 0 01-9.4-8.97c1.6-.71 3.19-1.42 4.78-2.16a40.995 40.995 0 01-3.74-7.9c7.37 15.1 20.98 26.2 37.34 29.99 2.1.49 4.25.85 6.44 1.09z"/><path class="st1" d="M792.18 1367.61c-.64.71-1.29 1.41-1.96 2.1-10.69 11.14-24.23 19.5-37.2 27.73-17.95 11.38-36.48 21.94-55.2 32.01-4.27 2.32-8.58 4.65-12.91 6.96-2.29 1.22-4.6 2.44-6.91 3.65-23.52 12.32-47.97 23.8-73.39 30.9a65.778 65.778 0 01-6.36-5.78c9.2-1.92 18.05-5 26.97-7.98 20.69-7.64 40.89-16.57 60.76-26.13 20.98-10.11 41.7-20.88 61.86-32.51 14.62-8.46 30.17-17.01 42.32-28.9.67-.68 1.35-1.35 2.02-2.05zM597.59 1641.61c31.38-25.79 64.3-49.58 96.45-74.38 30.68-23.7 58.94-50.02 86.67-77.02-26.28 27.28-53.1 53.8-82.19 78.09-31.82 26.59-64.79 51.76-96.02 79.07-1.64-1.92-3.27-3.84-4.91-5.76zM837.63 1503.35c-1.2 1.37-2.4 2.74-3.62 4.1-32.28 36.55-65.95 71.36-101.69 104.6-21.4 19.89-44.16 38.92-63.32 61.08-12.76 14.79-22.83 30.34-31.25 47.53 1.06-2.61 2.19-5.18 3.37-7.72-2.39.18-4.77.49-7.18.53-.21 0-.43.01-.66.01 8.18-15.18 17.74-29.15 29.52-42.24 19.69-21.88 42.79-40.65 64.87-60.04 37.18-32.87 72.35-67.31 106.08-103.67 1.32-1.39 2.6-2.78 3.88-4.18zM861.24 1506.2c-12.97 13.67-24.47 27.68-34.47 43.68-9.96 18.4-20.69 39.81-16.41 61.32 9.62 48.37 67.52 18.4 93.11 2.59-25.5 22.45-84.38 53.12-99.35 3.37-6.82-22.64 3.28-46.91 15.33-65.92 11.24-17.77 25.4-32 41.79-45.04zM815.73 1753.24c1.82-5.3 3.95-10.53 6.3-15.69-2.64 2.79-5.2 5.67-7.88 8.44-2.77 2.89-5.53 5.78-8.3 8.65 34.15-40.89 69.96-80.33 103.9-121.42-30.63 40.59-63.02 79.75-94.02 120.02z"/><path class="st1" d="M675.58 1584.5c-17.34.88-40.28 1.05-50.85-15.39-14.26-22.18 6.29-42.66 24.64-52.68 25.11-13.67 51.11-25.56 76.02-39.68 19.61-11.11 38.28-23.72 56.82-36.48-36.09 32.13-76.44 56.12-119.52 77.68-16.71 8.38-44.31 22.2-34.79 45.92 7.2 17.89 31.34 18.76 47.68 20.63zM961.86 1673.5c-.44 1.23-.88 2.47-1.34 3.7-13.5 37.38-29.36 73.75-43.64 110.79 1.18-4.44 2.55-8.81 4.05-13.09a193.59 193.59 0 01-10.29 10.56c16.27-36.2 34.08-71.64 49.61-108.16.55-1.27 1.07-2.53 1.61-3.8zM1071.88 1839.81a134.59 134.59 0 01-4.69-9c-1.28 2.59-2.59 5.16-3.94 7.7-8.3-21.1-13.33-42.42-15.25-64.7a241.055 241.055 0 01-.9-19.69c-.16-27.67 4.58-55.01 10.88-81.87.77-3.28 1.56-6.57 2.37-9.84.29-1.19.59-2.38.89-3.58-.26 1.26-.53 2.54-.79 3.8-.71 3.44-1.38 6.87-2.04 10.32-4.91 25.94-8.24 52.1-7.55 78.64 1.62 31.31 7.89 59.82 21.02 88.22zM1207.9 1842.88c-3.61-4.68-6.92-9.58-9.95-14.64-.83 1.87-1.7 3.73-2.63 5.56-13.18-28.78-23.72-58.17-30.49-89.4-6.19-28.57-10.28-57.6-13.56-86.65-.41-3.61-.81-7.2-1.19-10.81.46 3.28.95 6.56 1.43 9.84 4.34 29.13 9.53 58.23 16.79 86.78 8.94 35.06 22.67 67.54 39.6 99.32zM1186.08 1542.51c5.52 16.58 11.96 32.67 20.13 48.15 9.47 17.96 22.29 38.18 40.24 48.68 18.87 11 40.21-3.23 43.83-23.34 4.07-22.53-4.23-47.13-10.79-68.42-7.12-23.05-15.26-45.75-21.84-68.98-6.5-22.88-10.82-46.25-13.85-69.84-5.87-45.86-6.4-91.96-4.44-138.08.88-20.93 2.18-41.85 3.42-62.76-1.32 82.29-2.85 163.91 15.02 244.81 10.1 45.7 31.86 88.56 39.31 134.81 3.32 20.67 2.37 44.73-17.34 57-19.62 12.18-38.23 2.92-52.51-12.63-22.31-24.28-34.48-57.67-41.18-89.4z"/><path class="st1" d="M1158.96 1238.17c-10.6 33.93-16.25 69.79-20.99 104.95-6.12 45.55-10.79 93.36-4.96 139.16 2.03 16.02 6.39 48.39 26.9 51.34 21.79 3.11 36.31-15 38.5-34.61 2.61-23.21-1.07-47.13-2.31-70.32-1.21-22.31-1.72-44.7-.91-67.03 1.27-35.9 6.35-71.18 13.83-106.23-6.13 40.06-9.86 80.22-9.27 120.78.33 23.26 2.2 46.41 3.99 69.59 1.66 21.66 5.87 46.71-1.12 67.81-5.85 17.58-27.7 32.66-46.73 26.86-20.74-7.38-26.05-32.12-29.07-51.5-6.53-46.05-1.41-93.73 5.62-139.4 5.79-37.71 13.64-75.43 26.52-111.4zM1324.24 1728.25c.61 1.49 1.16 2.98 1.75 4.47-16.21-29.35-30.35-59.49-42.22-91.03-.46-1.22-.92-2.45-1.37-3.67.52 1.17 1.03 2.34 1.56 3.51 14.81 33.26 32.18 64.78 51.88 95.28-4.03-2.61-7.9-5.49-11.6-8.56zM1055.17 1098.27c28 26.97 63.83 44.97 100.97 56.04 37.38 11.98 75.86 17.44 115.01 14.36-39.34 8.95-78.99 4.73-117.3-7.15-37.82-11.77-74.16-31.63-98.68-63.25zM1103.06 1208.89c-28.74 75.69-71.47 148.2-130.39 204.17 25.22-31.82 48.43-64.36 69.82-98.96 22.04-33.9 41.11-69.81 60.57-105.21zM775.5 1476.66c20.69-3.24 40.35-19.28 56.5-31.63 21.56-16.49 41.98-34.35 61.86-52.81 34.55-32.09 66.74-66.58 95.73-103.78-24.62 41.77-57.45 78.19-92.69 111.26-19.72 18.2-40.43 35.49-62.74 50.43-16.87 11.29-37.59 25.9-58.66 26.53zM660.62 1809.88c21.83-35.52 45.5-69.28 73.35-100.41 25.27-28.23 52.51-54.39 80.06-80.38 1.68 1.88 3.36 3.77 5.05 5.64-28.22 24.99-56.15 50.14-82.19 77.43-28.75 30.14-53.39 63.02-76.27 97.72zM443.58 1590.54c33.66-2.48 66.99-10.16 99.65-18.39 17.74-4.46 35.48-9.23 52.81-15.14 7.54-2.6 14.89-5.4 22.07-8.85 4.48-3.05 4.77-.16 8.05 3.64-11.03 7.18-24.54 10.41-37.09 13.8-17.66 4.79-35.53 8.72-53.46 12.34-30.29 6.09-61.09 11.61-92.03 12.6zM827.98 1639.42c-4.16-19.01 5.54-38.69 14.22-55.1 11.29-21.34 25.54-41.2 40.48-60.13 25.57-32.39 53.69-62.64 83.2-91.44-25.29 32.41-52.12 63.59-77.28 96.08-14.06 18.15-28 36.47-40.27 55.91-10.07 15.92-21.77 35.13-20.35 54.68zM942.32 1675.1c21.88-73.34 49.61-145.46 82.92-214.38-22.64 72.89-50.55 145.26-82.92 214.38zM1109.59 1702.13c-16.17-58.23-20.24-116.99-19.52-177.21.74-61.85 10.9-122.44 25.57-182.35-8.77 59.85-16.5 119.13-18.01 179.72-1.11 60.61 1.24 120.05 11.96 179.84z"/><path class="st1" d="M1169.95 1536.93c-13.2-40.48-20.75-82.95-20.11-125.7.36-24 .61-48.97 5.79-72.5 3.78-20.04 8.74-39.14 14.86-58.61-3.3 18.84-6.69 37.45-9.03 56.4-3.07 24.83-3.45 49.73-4.1 74.69-1.08 42.23 4.88 84.37 12.59 125.72zM818.85 1805.56c46.68-37.24 77.17-89.73 104.2-142.11 2.23 1.17 4.48 2.32 6.72 3.48-29.38 51.57-62.38 103.16-110.92 138.63zM958.91 1893.83c21.18-46.56 32.23-97.02 43.3-146.77 9.83-44.15 18.37-88.56 27.13-132.91-2.63 47.19-11.01 94.62-21.15 140.68-10.55 47.93-23.65 96.76-49.28 139zM1158.01 1865.5c-33.92-46.88-48.05-106.74-56.28-163.14 2.13-.16 7.41-1.9 7.67.57.77 7.49 1.35 15.04 2.31 22.51 2.16 16.91 5.47 34.03 9.84 50.5 8.33 31.42 18.49 62.26 36.46 89.56zM1322.6 1856.08c-23.01-3.83-40.59-18.52-55.47-35.83-18.17-21.13-31.68-45.97-43.11-71.28-19.96-45.52-34.06-94.83-38.69-144.44 10.87 46.5 24.19 92.45 43.35 136.29 10.94 25.02 23.4 49.67 39.48 71.84 13.94 19.26 31.11 36.61 54.44 43.42zM1403.05 1742.97c-33.78-7.27-57.02-41.08-73.61-68.95-9.68-16.71-18.19-34.04-25.11-52.08-5.29-13.74-10.9-28.3-12.64-43.03 10.11 30.82 26.41 60.87 42.79 88.75 16.75 28.57 36.67 62 68.57 75.31zM779.66 1337.71c26.37-6.18 53.45-12.24 77.91-24.26 28.58-14.02 52.98-33.07 75.47-55.47 39.12-38.91 71.73-83.77 105.25-127.42-30.48 48.79-63.34 99.68-106.09 138.77-22.91 20.94-47.87 40.41-77.32 51.23-24.51 9-49.41 13.75-75.22 17.15zM599.72 1705.33c.3-21.51 11.86-36.66 26.48-51.52 17.91-18.24 38.76-33.77 58.82-49.54 33.96-26.74 66.6-54.78 98.98-83.38-28.71 32.83-60.3 62-94.31 89.28-19.19 15.38-39.04 29.94-57.91 45.77-15.68 14.08-28.78 27.95-32.06 49.39zM629.56 1571.44c11.83-27.24 43.74-37.71 67.87-51.52 26.78-15.32 51.46-32.9 75.31-52.44 1.6 1.96 3.19 3.9 4.78 5.87-24.09 18.12-48.95 34.8-75.89 48.49-25.07 13.23-58.83 22.33-72.07 49.6zM1267.29 1646.2c1.58-24.56-.07-47.67-7.1-71.43-8.57-29.06-18.32-57.53-25.08-87.1-12.12-53.39-15.58-108.19-16.05-162.77 6.04 53.01 11.05 106.26 22.81 158.41 6.62 29.37 15.77 57.99 22.8 87.23 6.43 25.67 7.05 49.68 2.62 75.66zM754.99 1796.05c-4.34 2.53-8.8 4.87-13.35 6.98-.05-21.81-.11-43.66-.18-65.47 4.51 19.5 9.03 38.98 13.53 58.49zM544.75 1546.28c-9.05-4.53-17.8-9.23-26.48-14.46-8.28-5.95-15.47-12.74-22.72-19.84 2.15-1.33 4.32-2.62 6.53-3.86 5.81 7.29 11.64 14.33 18.5 20.72 7.85 6.18 15.87 11.87 24.17 17.44zM587.08 1510.07c-11.93-6.44-22.72-13.01-32.35-22.51 4.61-1.39 9.2-2.81 13.77-4.25 4.9 9.83 11.36 18.16 18.58 26.76zM576.3 1643.63c-4.96 1.03-9.95 1.87-14.97 2.49 9.68-16.18 16.95-33.48 20.62-52.11.8 16.88-1.39 33.45-5.65 49.62zM965.6 1829.03c-17.28 7.22-34.54 13.8-52.42 19.11-.74-4.24-1.22-8.55-1.48-12.88 18.11-.99 35.91-3.32 53.9-6.23zM1048.23 1773.96c-5.9-3.91-11.97-7.37-18.42-10.32 7.29.53 14.42 1.75 21.54 3.43-1.03 2.32-2.09 4.61-3.12 6.89zM1341.3 1777.26c-28.9-3.73-53.26-17.14-78.5-31.99 24.79 9.54 48.58 18.22 74.72 18.23 1.42 4.55 2.69 9.13 3.78 13.76zM1335.86 1637.82c-1.37-.88-.81-.36-1.26-1.38 16.73 2.87 32.92 3.81 49.53 3.52 1.45 2.15 2.9 4.32 4.31 6.52-18.18-1.09-37.87-2.59-53.64-9.85.54.92-.36.07 1.06 1.19zM1362.7 1610.18c-11.13-4.22-20.83-10.12-30.99-16.46 7.43 1.03 14.58 2 21.84 2.35 2.94 4.83 5.98 9.54 9.15 14.11zM682.83 1434.3c7.18 7.58 15.07 13.44 24.07 18.69-10.41-3.05-19.88-7.07-29-12.98 1.65-1.91 3.29-3.79 4.93-5.71z"/><path class="st1" d="M845.95 1310.73c-9.84-2.67-23.52-12.38-28.24-23.4 1.87-.9 3.76-1.71 5.67-2.41 1.82 10.35 15.07 22.29 22.57 25.81z"/></g><g><linearGradient id="SVGID_1_" gradientUnits="userSpaceOnUse" x1="867.764" y1="2029.075" x2="1148.397" y2="1413.493"><stop offset="0" stop-color="#27aae1"/><stop offset=".981" stop-color="#2b3990"/></linearGradient><path d="M1147.55 1148.02c-61.22-21.11-89.71-46.62-102.17-61.89l-11.96 11.06.02.01c-5.88 7.24-11.55 14.67-17.13 22.05-27.68 36.55-52.97 75.4-84.11 109.13-12.71 13.77-26.55 27.38-42.68 37.12-16.06 9.7-33.48 13.52-51.79 15.85-4.74.55-9.57 1.79-14.32 3.57 1.82 10.34 15.03 22.29 22.53 25.81-9.84-2.67-23.5-12.38-28.22-23.41-20.39 9.7-37.84 29.38-38.05 50.38 26.36-6.17 53.44-12.24 77.89-24.25 28.58-14.02 52.98-33.07 75.47-55.47 39.12-38.91 71.73-83.77 105.25-127.42-30.48 48.79-63.34 99.68-106.09 138.77-22.91 20.94-47.87 40.41-77.32 51.23-24.51 8.99-49.41 13.74-75.21 17.14-.04 4.29.64 8.63 2.16 12.96 7.38 15.08 20.98 26.15 37.35 29.93.85-.8 1.67-1.61 2.53-2.41 35.17-32.35 75.82-58 110.49-91 37.31-35.55 72.64-74.59 103.31-116.02-22.2 33.12-47.86 63.8-74.78 93.16-15.49 16.93-31.33 33.58-48.41 48.88-18.02 16.12-37.55 30.53-56.51 45.51-34.28 27.12-70.79 60.23-76.82 106.23-.51 3.91-.42 7.57.18 10.98 19.34-4.42 37.64-19.3 52.84-30.92 21.56-16.49 41.98-34.35 61.86-52.81 34.56-32.09 66.74-66.58 95.73-103.78-24.62 41.77-57.45 78.19-92.69 111.26-19.72 18.2-40.43 35.49-62.74 50.43-15.88 10.64-35.16 24.18-54.94 26.28 2.87 15.2 16.03 25.12 32.89 27.05 20.04 2.29 39.77-7.43 55.59-18.83 33.29-24.19 59.77-58.13 86.73-88.87-22.36 28.22-44.49 57.23-71.06 81.68-14.1 12.97-30.66 24.85-49.39 30.03-32.27 36.54-65.93 71.36-101.65 104.6-21.4 19.89-44.17 38.92-63.33 61.08-12.73 14.76-22.78 30.31-31.19 47.46-.65 1.59-1.29 3.18-1.87 4.79-7.56 20.93-9.9 46.46 2.66 66 5.64 8.78 13.32 14.7 22.02 18.49 21.83-35.51 45.49-69.27 73.34-100.39 24.43-27.28 50.69-52.63 77.3-77.77-2.92-3.8-5.36-8.58-7.16-14.55-6.82-22.64 3.28-46.91 15.33-65.92 11.26-17.77 25.41-32 41.81-45.04-12.97 13.67-24.47 27.68-34.47 43.68-9.96 18.4-20.69 39.81-16.41 61.32 2.62 13.15 8.81 20.47 16.94 23.9-1.99-17.65 6.88-35.61 14.9-50.79 11.29-21.34 25.54-41.2 40.48-60.13 25.57-32.39 53.69-62.64 83.2-91.44-25.29 32.41-52.12 63.59-77.28 96.08-14.06 18.15-28 36.47-40.27 55.91-9.37 14.82-20.14 32.48-20.44 50.63 21.83 8.6 57.11-10.17 75.58-21.58-20.78 18.29-63.72 42.03-87.01 23.28-27.33 24.22-54.33 48.65-79.57 75.1-28.74 30.13-53.37 63.01-76.25 97.71 15.23 6.63 33.65 6.63 50.09 3.43 10.7-2.09 21.02-5.73 30.93-10.34-.06-21.79-.11-43.61-.18-65.4 4.51 19.49 9.01 38.98 13.52 58.48 7.91-4.58 15.48-9.75 22.62-15.28 10.29-7.97 19.47-17.05 28.47-26.36 34.1-40.79 69.81-80.17 103.68-121.19-30.64 40.6-63.03 79.77-94.03 120.05-3.19 9.28-5.45 18.76-6.29 28.33-1.26 14.47 1.6 30.98 16.96 36.57 14.28 5.18 31.12.82 44.43-5.2 15.05-6.83 28.15-16.4 39.85-27.56 16.26-36.18 34.02-71.6 49.56-108.11-9.15 2.72-18.87 2.5-27.67-2.67a35.836 35.836 0 01-5.12-3.65c-28.79 50.22-61.32 100.05-108.59 134.6 46.13-36.8 76.44-88.49 103.23-140.26-7.53-9.68-10.69-22.73-11.3-34.86-.61-12.06 1.58-24.71 5.4-36.1 6.22-18.58 14.17-37.05 22.64-54.69 14.44-30.07 30.19-58.68 48.14-86.78-13.62 26.2-27.11 52.39-38.66 79.58-11.22 27.72-27.55 56.71-29.85 86.97-1.43 15.47 1.02 34.93 13.12 45.95 3.64 3.32 7.67 5.27 11.85 6.21 21.72-72.13 49.06-143.04 81.83-210.85-22.27 71.69-49.66 142.86-81.35 210.95 10.98 2.26 23.02-2.56 32.33-9.53 25.1-18.75 39.42-47.52 54.8-74.12-13.3 28.65-26.24 58.2-51.26 78.65-5.64 4.61-12.28 8.41-19.25 10.53-13.52 37.38-29.34 73.74-43.61 110.78-4.09 15.36-6.11 31.49-5.18 47.19 18.1-.99 35.91-3.24 53.88-6.14-17.27 7.22-34.56 13.71-52.43 19.02.32 1.85.67 3.7 1.08 5.53 5.38 24.01 20.71 46.88 46.07 52.27 40.47 8.62 79.14-26.97 98.18-58.89 1.68-2.8 3.26-5.66 4.79-8.55-8.26-21.05-13.3-42.33-15.23-64.56-5.85-3.87-11.86-7.3-18.25-10.23 5.97.43 11.83 1.35 17.66 2.58-.22-4-.35-8.02-.37-12.09-.16-27.67 4.59-55 10.89-81.86a92.817 92.817 0 01-5.31-9.75c-9.4-20.13-9.23-43.35-9.83-65.12-.66-23.89.29-47.68 2.02-71.47 4.05-47.64 12.36-94.64 25.93-140.48 3.25-10.97 6.86-21.77 10.73-32.45-8.15 16.75-16.61 33.74-28.01 48.34-12.77 16.39-29.91 27.27-51.35 24.42-11.4-1.52-21.41-5.95-29.21-12.98-.1.09-.19.19-.29.29.09-.11.17-.22.25-.32-6.25-5.65-11.08-12.98-14.02-21.86-15.47-46.62 28.41-84.9 56.55-115.68 17.58-19.24 34.69-38.75 49.8-60 12.83-18.01 23.02-37.36 32.31-57.35-15.11 38.33-36.29 71.79-62.76 103.33-15.26 18.15-31.17 35.74-46.09 54.18-14.6 18.04-28.11 36.6-25.56 61.09 1.27 12.32 6.37 22.79 14.48 30.28 23.31-29.81 44.89-60.32 64.86-92.63 22.04-33.9 41.11-69.81 60.57-105.21-27.79 73.19-68.71 143.36-124.65 198.52 5.94 5.22 13.39 8.9 22.11 10.57 22.22 4.21 38.7-8.35 51.06-25.6 13.34-18.61 22.91-40.09 33.32-60.42 10.67-20.81 20.88-41.83 30.3-63.25 13.67-31.09 24.98-63.11 36.07-95.21-10.11 35.36-21.01 70.38-35.15 104.36-6.78 16.31-14.01 32.41-21.59 48.35-24.66 68.95-39.62 140.77-43.44 214.27-1.23 23.6-1.39 47.32-.38 70.92.76 18.05 2.05 35.19 9.67 51.02.3-1.19.58-2.39.88-3.59-.27 1.27-.51 2.54-.77 3.81 1.63 3.36 3.54 6.67 5.8 9.91 9.51 13.6 25.35 26.75 42.52 26.64-15.5-57.26-19.45-115.06-18.74-174.26.74-61.85 10.9-122.44 25.57-182.35-8.77 59.85-16.5 119.13-18.01 179.72-1.09 59.61 1.18 118.09 11.45 176.89 3.21-.05 6.46-.51 9.73-1.57 19.16-6.24 27.77-34.06 31.35-51.54 3.19-15.6 2.8-31.91 3.54-47.77.48-10.15 1.05-20.33 1.58-30.49.11 29.1 3.25 60.27-3.78 88.84 4.34 29.17 9.53 58.33 16.8 86.92 8.92 35 22.64 67.42 39.53 99.17 8.96 11.68 19.62 22.01 31.98 29.95 32.12 20.64 74.83 20.26 94.71-16.55 13.45-24.89 13.03-52.43 6.76-78.91-28.87-3.73-53.25-17.11-78.48-31.95 24.78 9.53 48.58 18.21 74.71 18.22-2.99-9.63-6.58-19.02-10.4-27.99-.43-1-.82-2.01-1.21-3.01-16.16-29.3-30.28-59.39-42.13-90.86-1.25 1.02-2.56 2-4.01 2.9-19.62 12.18-38.23 2.92-52.51-12.63-22.32-24.27-34.48-57.66-41.18-89.39 5.52 16.58 11.96 32.67 20.13 48.15 9.47 17.96 22.29 38.18 40.24 48.68 7.01 4.09 14.37 4.68 21.03 2.79 1.15-23.05-.66-44.92-7.29-67.36-8.57-29.06-18.32-57.53-25.08-87.1-12.12-53.39-15.58-108.19-16.05-162.77 6.04 53.01 11.05 106.26 22.81 158.42 6.62 29.37 15.77 57.99 22.8 87.23 6.08 24.26 6.91 47.07 3.24 71.45 11.06-3.33 20.13-13.53 22.38-26 4.07-22.53-4.23-47.13-10.79-68.42-7.12-23.05-15.26-45.76-21.84-68.98-6.5-22.88-10.82-46.25-13.85-69.84-5.87-45.86-6.4-91.96-4.44-138.09.88-20.93 2.18-41.85 3.42-62.76-1.32 82.29-2.86 163.92 15.02 244.81 10.1 45.7 31.86 88.56 39.31 134.81.48 2.95.85 5.98 1.11 9.03 9.91 24.62 23.03 48.58 36.27 71.11 16.75 28.57 36.67 61.99 68.56 75.3.88-.84 1.73-1.73 2.52-2.72 9.1-11.48 9.02-27.72 6.14-41.39-4.04-19.05-12.83-36.21-23.27-52.41-18.18-1.08-37.86-2.57-53.63-9.84.54.93-.36.07 1.06 1.2-1.37-.88-.8-.36-1.26-1.39 16.73 2.87 32.91 3.8 49.51 3.51-4.54-6.7-9.3-13.25-14.05-19.71-2.55-3.28-4.99-6.67-7.39-10.13-11.1-4.23-20.84-10.06-30.97-16.38 7.45 1.04 14.62 2 21.9 2.35-10.13-16.66-18.93-34.47-26.98-51.65-37.8-80.6-55.29-169.69-53.44-258.59.83-39.33 8.28-77.21 12.95-116.1.12-1.03.32-2.72.46-4.64-22.83 3.41-72.05 6.02-139.08-17.08zm-139.36 606.82c-10.56 47.93-23.65 96.77-49.28 139.01 21.18-46.56 32.23-97.02 43.3-146.78 9.83-44.15 18.37-88.56 27.13-132.92-2.63 47.19-11.01 94.62-21.15 140.69zm220.48-14.01c10.94 25.02 23.4 49.67 39.48 71.84 13.95 19.26 31.11 36.61 54.45 43.42-23.01-3.83-40.59-18.52-55.48-35.83-18.17-21.13-31.68-45.97-43.11-71.28-19.96-45.52-34.06-94.83-38.69-144.44 10.87 46.5 24.19 92.45 43.35 136.29zm-28.94-364.63c.34 23.26 2.2 46.41 3.99 69.59 1.66 21.66 5.87 46.71-1.12 67.81-5.85 17.58-27.7 32.66-46.73 26.86-20.74-7.38-26.06-32.12-29.07-51.5-6.53-46.05-1.41-93.73 5.62-139.4 5.81-37.69 13.65-75.42 26.53-111.39-10.6 33.93-16.25 69.8-20.99 104.95-6.12 45.55-10.79 93.37-4.97 139.17 2.03 16.02 6.39 48.39 26.9 51.34 3.17.45 6.16.41 9 .03-12.55-39.49-19.69-80.82-19.07-122.41.36-24 .61-48.97 5.79-72.5 3.78-20.04 8.74-39.14 14.86-58.61-3.3 18.84-6.69 37.45-9.03 56.4-3.07 24.83-3.45 49.73-4.1 74.69-1.04 41.08 4.59 82.09 11.99 122.36 16.48-2.47 27.21-17.95 29.07-34.57 2.61-23.21-1.07-47.13-2.32-70.32-1.21-22.31-1.72-44.7-.91-67.03 1.27-35.9 6.35-71.18 13.83-106.23-6.13 40.04-9.85 80.2-9.27 120.76zm-45.88-214.68c-37.82-11.77-74.16-31.63-98.68-63.25 28 26.97 63.84 44.97 100.97 56.05 37.38 11.98 75.86 17.45 115.01 14.36-39.34 8.94-79 4.72-117.3-7.16z" fill="url(#SVGID_1_)"/><linearGradient id="SVGID_2_" gradientUnits="userSpaceOnUse" x1="1133.911" y1="2150.407" x2="1414.544" y2="1534.825"><stop offset="0" stop-color="#27aae1"/><stop offset=".981" stop-color="#2b3990"/></linearGradient><path d="M1329.44 1674.03c-9.68-16.71-18.19-34.04-25.11-52.08-1.96-5.09-3.96-10.29-5.79-15.56-.3 13.39-3.98 26.32-14.58 35.1 14.83 33.28 32.17 64.82 51.88 95.33 12.24 7.95 25.81 13.42 39.92 14.53 9.92.76 20.1-1.48 27.28-8.37-33.78-7.28-57.02-41.09-73.6-68.95z" fill="url(#SVGID_2_)"/><linearGradient id="SVGID_3_" gradientUnits="userSpaceOnUse" x1="463.002" y1="1844.551" x2="743.635" y2="1228.969"><stop offset="0" stop-color="#27aae1"/><stop offset=".981" stop-color="#2b3990"/></linearGradient><path d="M596.03 1557.02c7.54-2.6 14.89-5.4 22.08-8.85 1.2-.82 2.08-1.18 2.82-1.24 3.58-12.99 16.47-23.96 28.43-30.49 25.11-13.67 51.11-25.56 76.02-39.68 17.89-10.14 34.99-21.54 51.94-33.15 1.24-3.47 2.55-6.83 3.81-10.01 8.12-20.61 21.48-37.23 37.31-52.28-10.46-1.23-20.11-5.37-28.26-11.64-10.7 11.15-24.2 19.55-37.18 27.78-17.96 11.38-36.48 21.94-55.2 32.01-4.25 2.31-8.54 4.63-12.85 6.93 6.61 6.56 13.81 11.87 21.93 16.62-10.37-3.04-19.82-7.05-28.92-12.93-23.53 12.31-47.98 23.78-73.4 30.88.03.02.06.05.09.07-11.93 4.38-23.99 8.41-36.18 12.26 4.92 9.84 11.37 18.18 18.59 26.79-11.93-6.43-22.72-13.05-32.35-22.54-2.56.78-5.12 1.56-7.7 2.33-15.64 4.31-30.82 10.32-44.94 18.27 5.8 7.28 11.62 14.31 18.47 20.71 7.86 6.18 15.87 11.87 24.18 17.44-9.06-4.53-17.81-9.23-26.49-14.46-8.26-5.93-15.45-12.72-22.69-19.82-2.98 1.85-5.92 3.77-8.79 5.81-18.34 13.1-36.85 30.99-42.3 53.61-1.65 6.84-1.85 13.21-.92 19.12 33.66-2.48 66.99-10.16 99.65-18.39 17.78-4.46 35.52-9.24 52.85-15.15z" fill="url(#SVGID_3_)"/><linearGradient id="SVGID_4_" gradientUnits="userSpaceOnUse" x1="572.958" y1="1894.678" x2="853.591" y2="1279.096"><stop offset="0" stop-color="#27aae1"/><stop offset=".981" stop-color="#2b3990"/></linearGradient><path d="M727.67 1611.2c37.16-32.85 72.33-67.31 106.05-103.66-1.35.37-2.7.71-4.08 1-17.91 3.87-39.81-.58-51.26-15.95-25.55 26.44-51.64 52.13-79.89 75.71-29.7 24.83-60.39 48.43-89.76 73.67-5.5 6.66-10.42 13.7-14.43 21.23-6.21 11.68-9.39 27 .35 37.75 9.46 10.41 25.25 12.72 38.62 12.52 8.19-15.16 17.73-29.15 29.51-42.24 19.71-21.87 42.81-40.64 64.89-60.03zm-127.96 94.14c.3-21.51 11.86-36.66 26.48-51.52 17.91-18.24 38.76-33.77 58.82-49.54 33.96-26.74 66.6-54.78 98.98-83.38-28.71 32.83-60.3 62-94.31 89.28-19.19 15.38-39.04 29.94-57.91 45.77-15.68 14.08-28.79 27.95-32.06 49.39z" fill="url(#SVGID_4_)"/><linearGradient id="SVGID_5_" gradientUnits="userSpaceOnUse" x1="978.212" y1="2079.426" x2="1258.845" y2="1463.844"><stop offset="0" stop-color="#27aae1"/><stop offset=".981" stop-color="#2b3990"/></linearGradient><path d="M1151.25 1657.67c-1.84 7.23-4.32 14.29-7.71 21.1-7.29 14.65-18.9 25.21-33.95 26.2.67 6.82 1.24 13.67 2.12 20.46 2.16 16.91 5.47 34.03 9.84 50.5 8.33 31.43 18.48 62.27 36.46 89.57-33.45-46.24-47.65-105.1-55.93-160.82-1.81-.25-3.66-.59-5.55-1.11-15.96-4.26-29.14-16.55-38.09-30.59-4.92 25.93-8.25 52.08-7.57 78.61 1.61 31.26 7.89 59.72 20.97 88.08 2.69 4.7 5.65 9.23 9.05 13.47 12.84 16.08 31.57 27.92 52.73 26.94 18.09-.86 34.28-10.63 46.23-23.79 6.39-7.03 11.41-14.62 15.45-22.57-13.16-28.75-23.7-58.1-30.47-89.31-6.2-28.6-10.29-57.66-13.58-86.74z" fill="url(#SVGID_5_)"/><linearGradient id="SVGID_6_" gradientUnits="userSpaceOnUse" x1="444.139" y1="1835.951" x2="724.771" y2="1220.37"><stop offset="0" stop-color="#27aae1"/><stop offset=".981" stop-color="#2b3990"/></linearGradient><path d="M624.71 1569.11c-3.03-4.72-4.48-9.36-4.72-13.84-9.69 4.84-20.62 7.55-30.92 10.33-17.66 4.79-35.53 8.72-53.46 12.34-30.3 6.09-61.1 11.61-92.04 12.6 5.26 33.33 47.31 51.83 78.54 55.75 13.32 1.67 26.36 1.42 39.17-.18 9.68-16.18 17-33.47 20.66-52.11.81 16.89-1.41 33.46-5.67 49.63 9.59-1.97 19.06-4.62 28.44-7.71 21.76-17.57 44.12-34.37 66.43-51.24-16.65.61-36.73-.49-46.43-15.57z" fill="url(#SVGID_6_)"/><linearGradient id="SVGID_7_" gradientUnits="userSpaceOnUse" x1="544.597" y1="1881.748" x2="825.229" y2="1266.167"><stop offset="0" stop-color="#27aae1"/><stop offset=".981" stop-color="#2b3990"/></linearGradient><path d="M772.03 1477.41c-22.39 16.55-45.5 31.77-70.41 44.43-24.33 12.85-56.77 21.85-70.78 47.27 8.68 11.79 26.87 13.51 41.06 15 7.4-5.6 14.79-11.2 22.13-16.87 29.81-23.03 57.32-48.53 84.3-74.73-.33-.45-.69-.88-1.01-1.35-2.9-4.3-4.55-8.94-5.29-13.75z" fill="url(#SVGID_7_)"/><linearGradient id="SVGID_8_" gradientUnits="userSpaceOnUse" x1="482.841" y1="1853.595" x2="763.474" y2="1238.013"><stop offset="0" stop-color="#27aae1"/><stop offset=".981" stop-color="#2b3990"/></linearGradient><path d="M685.96 1431.08c20.98-10.12 41.7-20.88 61.86-32.52 14.63-8.45 30.14-17.06 42.29-28.95a62.046 62.046 0 01-9.37-8.97c-2.2.98-4.39 1.99-6.61 2.92-30.85 12.73-62.41 19.79-95.39 23.83-19.34 2.29-38.78 6.45-56.67 14.36-16.06 7.08-35.44 20.13-34.74 39.96.3 9.09 4.71 16.93 10.88 23.43 9.21-1.91 18.07-4.95 27-7.93 20.68-7.64 40.87-16.58 60.75-26.13z" fill="url(#SVGID_8_)"/><linearGradient id="SVGID_9_" gradientUnits="userSpaceOnUse" x1="531.582" y1="1875.815" x2="812.215" y2="1260.233"><stop offset="0" stop-color="#27aae1"/><stop offset=".981" stop-color="#2b3990"/></linearGradient><path d="M626.11 1551.74c.02.02.03.04.05.06l-.06.03c-.45 3.7.04 7.7 1.78 12.03.77 1.91 1.76 3.58 2.89 5.13 12.65-25.39 43.27-35.69 66.65-49.07 26.39-15.09 50.72-32.39 74.24-51.58.42-7.91 2.61-15.99 5.26-23.58-34.74 29.85-73.23 52.67-114.24 73.19-13.64 6.84-34.51 17.3-36.57 33.79z" fill="url(#SVGID_9_)"/><linearGradient id="SVGID_10_" gradientUnits="userSpaceOnUse" x1="682.351" y1="1944.548" x2="962.984" y2="1328.966"><stop offset="0" stop-color="#27aae1"/><stop offset=".981" stop-color="#2b3990"/></linearGradient><path d="M1044.8 1072.12c23.63-66.3 89.48-181.91 166.59-189.25l.2-.73c.62-2.32 1.26-4.68 1.89-7.03-84.4 5.34-154.07 131.39-176.87 197.56 0 0 2.07 5.25 8.77 13.46l5.61-5.19c-3.13-3.85-5.09-6.9-6.19-8.82z" fill="url(#SVGID_10_)"/><linearGradient id="SVGID_11_" gradientUnits="userSpaceOnUse" x1="843.287" y1="2017.916" x2="1123.92" y2="1402.334"><stop offset="0" stop-color="#27aae1"/><stop offset=".981" stop-color="#2b3990"/></linearGradient><path d="M1281.39 909.65c56.86 59.02 31.13 192.34 13.5 246.22-1.99.44-4.82.99-8.37 1.54.32 2.42.26 5.24.08 7.69 9.22-1.38 14.14-2.89 14.14-2.89 22.29-64.64 45.39-200.49-16.12-260.11-.76 1.78-1.53 3.59-2.28 5.35l-.95 2.2z" fill="url(#SVGID_11_)"/><linearGradient id="SVGID_12_" gradientUnits="userSpaceOnUse" x1="773.673" y1="1986.18" x2="1054.306" y2="1370.599"><stop offset="0" stop-color="#27aae1"/><stop offset=".981" stop-color="#2b3990"/></linearGradient><path d="M1286.52 1157.41c-21.36 3.29-70.08 6.36-136.51-16.55-60.16-20.74-87.55-45.79-99.02-59.92l-5.61 5.19c12.45 15.26 40.95 40.77 102.17 61.89 67.03 23.1 116.26 20.5 139.06 17.08.17-2.45.23-5.27-.09-7.69z" fill="url(#SVGID_12_)"/><linearGradient id="SVGID_13_" gradientUnits="userSpaceOnUse" x1="687.214" y1="1946.765" x2="967.847" y2="1331.183"><stop offset="0" stop-color="#27aae1"/><stop offset=".981" stop-color="#2b3990"/></linearGradient><path d="M1053.17 1071.28c23.22-62.63 86.73-172.66 158.16-180.64l-1.35-2.44 1.42-5.33c-77.11 7.34-142.96 122.95-166.59 189.25 1.1 1.92 3.05 4.96 6.19 8.82l5.54-5.13a60.312 60.312 0 01-3.37-4.53z" fill="url(#SVGID_13_)"/><linearGradient id="SVGID_14_" gradientUnits="userSpaceOnUse" x1="838.861" y1="2015.898" x2="1119.493" y2="1400.316"><stop offset="0" stop-color="#27aae1"/><stop offset=".981" stop-color="#2b3990"/></linearGradient><path d="M1276.53 915.56c52.3 55.01 29.55 179.17 12.5 233.85-1.16.22-2.48.44-3.91.66l1.3 6.53c.05.26.07.54.11.81 3.56-.55 6.38-1.1 8.37-1.54 17.63-53.88 43.36-187.2-13.5-246.22l-2.34 5.45-2.53.46z" fill="url(#SVGID_14_)"/><linearGradient id="SVGID_15_" gradientUnits="userSpaceOnUse" x1="773.531" y1="1986.115" x2="1054.164" y2="1370.534"><stop offset="0" stop-color="#27aae1"/><stop offset=".981" stop-color="#2b3990"/></linearGradient><path d="M1285.12 1150.07c-20.3 3.17-67.28 6.18-132.65-16.36-59.58-20.54-85.68-45.12-95.93-57.89l-5.54 5.13c11.47 14.13 38.86 39.18 99.02 59.92 66.43 22.91 115.15 19.84 136.51 16.55-.04-.27-.06-.55-.11-.81l-1.3-6.54z" fill="url(#SVGID_15_)"/><linearGradient id="SVGID_16_" gradientUnits="userSpaceOnUse" x1="709.485" y1="1956.918" x2="990.118" y2="1341.336"><stop offset="0" stop-color="#27aae1"/><stop offset=".981" stop-color="#2b3990"/></linearGradient><path d="M1553.15 133.42c-5.92-19.69-17.29-33.32-32-38.4-4.23-1.46-8.73-2.2-13.41-2.2-27.43 0-56.81 25.82-64.76 48.91-1.53 4.45-158.34 469.25-229.5 733.37 2.68-.17 5.38-.22 8.09-.14 70.26-260.09 227.24-726.27 228.74-730.67 6.97-20.22 33.58-43.7 57.43-43.7 3.81 0 7.46.6 10.87 1.77 12.29 4.24 21.92 16.07 27.1 33.29 4.39 14.57 4.71 30.59.84 41.79-1.63 4.74-162.63 471.75-268.06 719.19 2.13 1.74 4.17 3.56 6.12 5.45 105.52-247.07 267.64-717.36 269.28-722.12 4.39-12.65 4.1-30.49-.74-46.54z" fill="url(#SVGID_16_)"/><linearGradient id="SVGID_17_" gradientUnits="userSpaceOnUse" x1="754.214" y1="1977.309" x2="1034.847" y2="1361.727"><stop offset="0" stop-color="#27aae1"/><stop offset=".981" stop-color="#2b3990"/></linearGradient><path d="M1253.8 910.82c-4.6 0-8.91-.71-13.15-2.18-11.23-3.87-16.6-11.14-20.69-18.47-2.89-.02-5.76.15-8.63.47l1.69 3.05c4.62 8.35 11.22 17.52 25.1 22.31 5.07 1.75 10.2 2.59 15.68 2.59 5.77 0 11.36-.93 17.07-1.99l5.66-1.03a83.376 83.376 0 00-7.07-6.6h-.01c-5.53 1.01-10.54 1.85-15.65 1.85z" fill="url(#SVGID_17_)"/><linearGradient id="SVGID_18_" gradientUnits="userSpaceOnUse" x1="722.347" y1="1962.781" x2="1002.98" y2="1347.2"><stop offset="0" stop-color="#27aae1"/><stop offset=".981" stop-color="#2b3990"/></linearGradient><path d="M1211.39 882.88c2.7-.26 5.42-.38 8.15-.36l2.03-7.55c-2.71-.08-5.41-.03-8.09.14-.63 2.35-1.27 4.72-1.89 7.03l-.2.74z" fill="url(#SVGID_18_)"/><linearGradient id="SVGID_19_" gradientUnits="userSpaceOnUse" x1="784.052" y1="1990.911" x2="1064.684" y2="1375.33"><stop offset="0" stop-color="#27aae1"/><stop offset=".981" stop-color="#2b3990"/></linearGradient><path d="M1275.37 903.96c2.1 1.81 4.11 3.7 6.02 5.68l.95-2.2c.76-1.76 1.52-3.57 2.28-5.35-1.96-1.9-3.99-3.72-6.12-5.45-1.05 2.45-2.09 4.92-3.13 7.32z" fill="url(#SVGID_19_)"/><linearGradient id="SVGID_20_" gradientUnits="userSpaceOnUse" x1="782.691" y1="1990.291" x2="1063.324" y2="1374.709"><stop offset="0" stop-color="#27aae1"/><stop offset=".981" stop-color="#2b3990"/></linearGradient><path d="M1273.55 908.2l-4.1.75c2.49 2.07 4.86 4.27 7.07 6.6l2.52-.46 2.34-5.45a89.932 89.932 0 00-6.02-5.68c-.06.14-.12.28-.18.41l-1.63 3.83z" fill="url(#SVGID_20_)"/><linearGradient id="SVGID_21_" gradientUnits="userSpaceOnUse" x1="724.565" y1="1963.793" x2="1005.198" y2="1348.211"><stop offset="0" stop-color="#27aae1"/><stop offset=".981" stop-color="#2b3990"/></linearGradient><path d="M1211.33 890.64c2.86-.32 5.74-.49 8.63-.47-.05-.08-.1-.17-.15-.25l-1.51-2.74.8-3.04c.14-.54.29-1.09.44-1.63-2.73-.02-5.44.1-8.15.36l-1.42 5.33 1.36 2.44z" fill="url(#SVGID_21_)"/><linearGradient id="SVGID_22_" gradientUnits="userSpaceOnUse" x1="709.455" y1="1956.904" x2="990.087" y2="1341.322"><stop offset="0" stop-color="#27aae1"/><stop offset=".981" stop-color="#2b3990"/></linearGradient><path d="M1457.67 146.82c5.82-16.91 29.65-38.44 50.07-38.44 2.87 0 5.66.42 8.34 1.34 21.7 7.48 29.78 45.93 23.12 65.2-6.7 19.5-163.09 472.44-267.12 716.95 2.22 1.52 4.36 3.1 6.41 4.77 105.42-247.45 266.43-714.46 268.06-719.19 3.87-11.2 3.55-27.22-.84-41.79-5.18-17.22-14.81-29.05-27.1-33.29-3.41-1.17-7.06-1.77-10.87-1.77-23.86 0-50.46 23.48-57.43 43.7-1.5 4.4-158.48 470.58-228.74 730.67 2.62.08 5.25.26 7.89.58 70.92-262.16 226.74-724.45 228.21-728.73z" fill="url(#SVGID_22_)"/><linearGradient id="SVGID_23_" gradientUnits="userSpaceOnUse" x1="753.523" y1="1976.994" x2="1034.156" y2="1361.412"><stop offset="0" stop-color="#27aae1"/><stop offset=".981" stop-color="#2b3990"/></linearGradient><path d="M1243.19 901.3c-6.28-2.16-10.23-5.51-13.65-10.4-3.21-.45-6.4-.71-9.59-.73 4.09 7.33 9.46 14.6 20.69 18.47 4.24 1.46 8.55 2.18 13.15 2.18 5.11 0 10.12-.84 15.65-1.86h.01c-2.77-2.3-5.68-4.46-8.81-6.42-2.37.32-4.62.51-6.85.51-3.51 0-6.95-.49-10.6-1.75z" fill="url(#SVGID_23_)"/><linearGradient id="SVGID_24_" gradientUnits="userSpaceOnUse" x1="776.932" y1="1987.666" x2="1057.565" y2="1372.084"><stop offset="0" stop-color="#27aae1"/><stop offset=".981" stop-color="#2b3990"/></linearGradient><path d="M1269.04 899c2.2 1.57 4.31 3.22 6.33 4.96 1.03-2.41 2.08-4.87 3.13-7.32-2.05-1.67-4.2-3.26-6.41-4.77-1.02 2.4-2.04 4.77-3.05 7.13z" fill="url(#SVGID_24_)"/><linearGradient id="SVGID_25_" gradientUnits="userSpaceOnUse" x1="729.035" y1="1965.831" x2="1009.668" y2="1350.249"><stop offset="0" stop-color="#27aae1"/><stop offset=".981" stop-color="#2b3990"/></linearGradient><path d="M1227.47 882.96c.66-2.46 1.32-4.92 2-7.42-2.64-.32-5.27-.5-7.89-.58l-2.03 7.55c2.62.02 5.26.17 7.92.45z" fill="url(#SVGID_25_)"/><linearGradient id="SVGID_26_" gradientUnits="userSpaceOnUse" x1="731.976" y1="1967.171" x2="1012.609" y2="1351.59"><stop offset="0" stop-color="#27aae1"/><stop offset=".981" stop-color="#2b3990"/></linearGradient><path d="M1218.3 887.18l1.51 2.74c.05.08.1.17.15.25 3.18.02 6.38.27 9.59.73a54.55 54.55 0 01-2.94-4.74c.28-1.05.58-2.14.86-3.19-2.65-.28-5.3-.43-7.93-.45-.14.54-.29 1.09-.44 1.63l-.8 3.03z" fill="url(#SVGID_26_)"/><linearGradient id="SVGID_27_" gradientUnits="userSpaceOnUse" x1="774.256" y1="1986.446" x2="1054.889" y2="1370.864"><stop offset="0" stop-color="#27aae1"/><stop offset=".981" stop-color="#2b3990"/></linearGradient><path d="M1268.05 901.31c-2.62.48-5.07.91-7.41 1.23 3.12 1.95 6.04 4.12 8.81 6.42l4.1-.75 1.64-3.83c.06-.14.12-.28.18-.41a88.092 88.092 0 00-6.33-4.96c-.33.76-.66 1.54-.99 2.3z" fill="url(#SVGID_27_)"/><linearGradient id="SVGID_28_" gradientUnits="userSpaceOnUse" x1="703.879" y1="1954.362" x2="984.512" y2="1338.781"><stop offset="0" stop-color="#27aae1"/><stop offset=".981" stop-color="#2b3990"/></linearGradient><path d="M1096.83 1046.74c14.05-21.1 26.46-43.38 41.7-63.65 18.61-28.48 42.83-51.33 70.62-70.5-61.3 14-99.24 75.89-120.2 133.25l1.43-1.32 6.45 2.22z" fill="url(#SVGID_28_)"/><linearGradient id="SVGID_29_" gradientUnits="userSpaceOnUse" x1="683.21" y1="1944.94" x2="963.843" y2="1329.358"><stop offset="0" stop-color="#27aae1"/><stop offset=".981" stop-color="#2b3990"/></linearGradient><path d="M1096.83 1046.74l-6.46-2.23-1.43 1.32c-2.73 7.48-5.19 14.89-7.36 22.1 5.4-6.83 10.42-13.94 15.25-21.19z" fill="url(#SVGID_29_)"/><linearGradient id="SVGID_30_" gradientUnits="userSpaceOnUse" x1="701.443" y1="1953.252" x2="982.076" y2="1337.67"><stop offset="0" stop-color="#27aae1"/><stop offset=".981" stop-color="#2b3990"/></linearGradient><path d="M1472.77 149.07c-26.86 73.17-52.93 146.59-77.7 220.49-31.08 92.69-60.16 185.95-88.72 279.44-23.15 75.82-43.44 152.55-63.7 229.19.02.01.05.01.07.02 23.07-73.81 44.99-147.97 68.18-221.75 53.19-169.39 108.16-338.18 161.87-507.39z" fill="url(#SVGID_30_)"/><linearGradient id="SVGID_31_" gradientUnits="userSpaceOnUse" x1="743.881" y1="1972.598" x2="1024.514" y2="1357.017"><stop offset="0" stop-color="#27aae1"/><stop offset=".981" stop-color="#2b3990"/></linearGradient><path d="M1242.2 879.87c.17-.55.34-1.11.52-1.66-.02-.01-.05-.01-.07-.02-.16.56-.3 1.12-.45 1.68z" fill="url(#SVGID_31_)"/></g></svg>