<svg height="512" viewBox="0 0 64 64" width="512" xmlns="http://www.w3.org/2000/svg"><path d="M55 62H21a6 6 0 110-12h34a6 6 0 110 12z" fill="#534f44"/><path d="M27 46h22v4H27z" fill="#625d51"/><path d="M44 46H22a2 2 0 110-4h22z" fill="#7f786b"/><path d="M44 42H22V30c0-5.523 4.477-10 10-10h10a2 2 0 012 2z" fill="#f2c351"/><path d="M7.821 4.353l.558-1.92 19.997 5.812-.558 1.92z" fill="#9e968d"/><path d="M5 39l7-28-2.368-7.103a2.774 2.774 0 00-5.264 0L2 11v28" fill="#f2c351"/><path d="M6 35l-1 4H2v-4z" fill="#9e968d"/><path d="M11.794 11.825L12 11l-2-6 18.422 9.211A6.472 6.472 0 0132 20a9.968 9.968 0 00-7.071 2.929L25 23z" fill="#f7d881"/><path d="M22 39h14a2 2 0 002-2V25a2 2 0 00-2-2H25l-.071-.071A9.968 9.968 0 0022 30z" fill="#c7e2fc"/><path d="M33 50h2v3h-2zm-4 0h2v3h-2zm-4 0h2v3h-2zm20 0h2v3h-2zm-4 0h2v3h-2zm12 0h2v3h-2zm-16 0h2v3h-2zm-16 0h2v3h-2zm12 9h2v3h-2zm-4 0h2v3h-2zm-4 0h2v3h-2zm20 0h2v3h-2zm-4 0h2v3h-2zm-4 0h2v3h-2zm-16 0h2v3h-2z" fill="#7f786b"/><g fill="#7f786b"><path d="M59.887 59.473l-2.475-2.475-1.415 1.415 2.475 2.475a6.016 6.016 0 001.415-1.415zm-2.241-2.474h3.265c.054-.326.089-.658.089-.999 0-.342-.035-.674-.09-1h-3.264zm.826-5.887l-2.623 2.623 1.415 1.415 2.624-2.624a6.092 6.092 0 00-1.416-1.414zm-42.36 8.36a6.03 6.03 0 001.414 1.415l2.566-2.566-1.415-1.415z"/><path d="M15 56c0 .341.035.673.09.999H19v-2h-3.91A6.01 6.01 0 0015 56z"/><path d="M16.113 52.527l2.565 2.565 1.415-1.415-2.565-2.565a6.016 6.016 0 00-1.415 1.415z"/></g><path d="M60 46H44V36h13a5 5 0 015 5v3a2 2 0 01-2 2z" fill="#f2c351"/><path d="M60 46H44V36h13a5 5 0 015 5v3a2 2 0 01-2 2z" fill="#f2c351"/><path d="M46 39h2v4h-2zm3 0h2v4h-2zm3 0h2v4h-2z" fill="#7f786b"/><path d="M48 36v-4h8v4" fill="#f7d881"/><path d="M49 32v-2a4 4 0 014-4h2v3h-2a1 1 0 00-1 1v2" fill="#cbc3b6"/><path d="M53 59h2v3h-2zm-4-9h2v3h-2zm0 9h2v3h-2zM2 39h3l2 2 4-1v-1.882c0-.685.387-1.312 1-1.618.613-.306 1-.933 1-1.618V34l2-2 1 2v7.172a2 2 0 01-.586 1.414L11.29 46.71a4.404 4.404 0 01-7.294-1.722z" fill="#7f786b"/><path d="M6.5 7.999C5.673 7.999 5 7.326 5 6.5a1.501 1.501 0 013 0c0 .826-.673 1.499-1.5 1.499zM6.5 6a.5.5 0 100 1 .5.5 0 000-1zm21 12.999c-.827 0-1.5-.673-1.5-1.5s.673-1.5 1.5-1.5 1.5.673 1.5 1.5-.673 1.5-1.5 1.5zm0-1.999a.5.5 0 100 1 .5.5 0 000-1z" fill="#534f44"/><path d="M30.781 16.219L33 14l-1-4-4-2-1 2h-3l-.8 1.6 5.222 2.611a6.467 6.467 0 012.359 2.008z" fill="#f2c351"/><path d="M55 59H21a3 3 0 110-6h34a3 3 0 110 6z" fill="#fff"/><path d="M21 55h4v2h-4zm6 0h6v2h-6zm8 0h6v2h-6zm8 0h6v2h-6zm8 0h4v2h-4z" fill="#7f786b"/><path d="M26 57.999c-1.103 0-2-.897-2-2s.897-2 2-2 2 .897 2 2-.897 2-2 2zm0-2.001V56zm8 2.001c-1.103 0-2-.897-2-2s.897-2 2-2 2 .897 2 2-.897 2-2 2zm0-2.001V56zm8 2.001c-1.103 0-2-.897-2-2s.897-2 2-2 2 .897 2 2-.897 2-2 2zm0-2.001V56zm8 2.001c-1.103 0-2-.897-2-2s.897-2 2-2 2 .897 2 2-.897 2-2 2zm0-2.001V56z" fill="#625d51"/><path d="M24.929 22.929A9.968 9.968 0 0022 30v9h5.313c4.434-1.898 7.541-6.299 7.541-11.427 0-1.616-.318-3.156-.88-4.573H25z" fill="#ebf7fe"/></svg>