<svg xmlns="http://www.w3.org/2000/svg" viewBox="0 0 512.003 512.003"><circle cx="304.551" cy="26.483" r="26.483" fill="#f5a338"/><path fill="#fbccad" d="M304.553 203.034v17.656l8.827 114.758h35.311V203.034z"/><path fill="#337ab5" d="M75.031 132.41h17.655v326.62H75.031z"/><g fill="#fbccad"><path d="M304.553 220.69v-79.449h-88.276v79.449l-17.655 150.069h123.586zM290.995 35.61c-9.534-16.949-30.994-22.961-47.943-13.427a35.203 35.203 0 00-17.946 30.782V70.62c0 19.5 15.81 35.31 35.31 35.31 1.156 0 2.322-.053 3.469-.168 18.423-2.295 32.15-18.105 31.841-36.661V52.966a34.97 34.97 0 00-4.731-17.356z"/></g><path d="M290.995 35.61c-9.534-16.949-30.994-22.961-47.943-13.427a35.203 35.203 0 00-17.946 30.782v14.68c18.881-4.086 48.428-13.161 65.889-32.035z" fill="#f5a338"/><path fill="#ebebeb" d="M304.553 220.69v-79.449h-17.655l-26.483 44.138-26.535-44.138h-17.603v79.449l-17.655 150.069h123.586z"/><g fill="#4398d1"><path d="M315.737 315.727l-11.185-95.038h-88.276l-11.185 95.038c-1.139 9.684 5.782 18.458 15.466 19.597.689.079 1.386.124 2.074.124h75.564c9.754 0 17.655-7.901 17.664-17.646a17.3 17.3 0 00-.122-2.075zM216.277 476.69L198.622 512h61.793v-35.31z"/></g><path fill="#fbccad" d="M216.281 370.76h44.14v105.93h-44.14z"/><path fill="#4398d1" d="M304.553 476.69L322.208 512h-61.793v-35.31z"/><g fill="#fbccad"><path d="M260.411 370.76h44.14v105.93h-44.14zM136.829 211.862H66.208v35.31h88.02a17.632 17.632 0 0014.362-7.398l26.765-36.74-32.044-26.703-26.482 35.531z"/></g><path d="M203.035 141.241a26.501 26.501 0 00-21.186 10.593l-18.538 24.497 32.044 26.703 12.094-17.655h8.828v-44.138h-13.242z" fill="#ebebeb"/><path fill="#97d3e6" d="M145.656 512H22.07l17.655-52.966h88.276z"/><g fill="#7dbdd1"><path d="M57.381 485.52h17.655v26.483H57.381zM92.691 485.52h17.655v26.483H92.691z"/></g><path fill="#337ab5" d="M13.242 450.21h141.24v17.655H13.242z"/><path d="M348.691 176.552c0-19.5-15.81-35.31-35.31-35.31h-8.828v61.793h44.138v-26.483z" fill="#ebebeb"/><path fill="#4398d1" d="M481.104 512h-88.275l-17.656-105.931H498.76z"/><path d="M498.76 406.069h-17.655v-17.655c0-24.373-19.765-44.138-44.138-44.138s-44.138 19.765-44.138 44.138v17.655h-17.655v-17.655c0-34.127 27.666-61.793 61.793-61.793s61.793 27.666 61.793 61.793v17.655z" fill="#97d3e6"/><path fill="#ffc096" d="M251.591 370.76h17.655v105.93h-17.655z"/><path fill="#337ab5" d="M251.591 476.69h17.655V512h-17.655z"/><path d="M305.074 225.103a276.552 276.552 0 01-97.792 101.411 17.639 17.639 0 0015.351 8.934h75.564c9.754 0 17.655-7.901 17.664-17.646 0-.689-.044-1.386-.124-2.074l-10.663-90.625z" fill="#4193c9"/></svg>