<svg xmlns="http://www.w3.org/2000/svg" viewBox="0 0 512 512"><path d="M224.068 146.772v248.587a126.81 126.81 0 0031.933 4.068 126.81 126.81 0 0031.933-4.068V147.957c-20.129 8.138-43.256 8.097-63.866-1.185z" fill="#ffa92c"/><path d="M224.068 146.772v248.587a126.81 126.81 0 0031.933 4.068V153.883c-11.404-.181-22.085-2.676-31.933-7.111z" fill="#f2961d"/><path d="M240.035 152.038a80.807 80.807 0 01-15.966-5.266v248.587c5.2 1.351 10.53 2.377 15.966 3.063V152.038z" fill="#e58615"/><path d="M471.821 512a7.608 7.608 0 01-7.608-7.608v-85.24a7.608 7.608 0 1115.216 0v85.24a7.608 7.608 0 01-7.608 7.608zm-63.057 0a7.608 7.608 0 01-7.608-7.608V486.91a7.608 7.608 0 1115.216 0v17.482a7.608 7.608 0 01-7.608 7.608zM40.18 512a7.608 7.608 0 01-7.608-7.608v-85.24a7.608 7.608 0 1115.216 0v85.24A7.607 7.607 0 0140.18 512zm63.058 0a7.608 7.608 0 01-7.608-7.608V486.91a7.608 7.608 0 1115.216 0v17.482a7.608 7.608 0 01-7.608 7.608z" fill="#85c2ef"/><path d="M468.518 243.413h-32.612a3.294 3.294 0 01-3.25-2.818c-5.103-33.57-13.733-38.836-8.645-41.773l28.196-16.279a3.302 3.302 0 001.209-4.512l-21.02-36.408a3.304 3.304 0 00-4.513-1.209l-28.189 16.275a3.292 3.292 0 01-4.221-.811c-21.211-26.483-31.327-26.807-28.398-31.882l16.247-28.142c.912-1.58.371-3.6-1.209-4.512l-36.407-21.02a3.304 3.304 0 00-4.513 1.209l-2.215 3.836c.113 31.646-17.46 58.558-42.837 72.287 50.245 16.791 86.476 64.191 86.476 120.083 0 69.929-56.689 126.618-126.618 126.618s-126.618-56.689-126.618-126.618c0-56.543 37.069-104.413 88.225-120.675-23.254-13.066-39.611-37.205-41.659-65.081-.041-.569-.06-1.134-.09-1.702l-5.052-8.75a3.304 3.304 0 00-4.513-1.209l-36.407 21.02a3.302 3.302 0 00-1.209 4.512l16.014 27.737a3.291 3.291 0 01-.813 4.222 180.157 180.157 0 00-27.855 27.782 3.29 3.29 0 01-4.216.806l-27.689-15.986a3.304 3.304 0 00-4.513 1.209l-21.02 36.408a3.303 3.303 0 001.209 4.512l27.594 15.932a3.29 3.29 0 011.407 4.062 177.795 177.795 0 00-10.184 38.059 3.294 3.294 0 01-3.25 2.818H43.484a3.303 3.303 0 00-3.303 3.303v42.04a3.303 3.303 0 003.303 3.303h31.878c1.634 0 3.003 1.202 3.25 2.818a177.81 177.81 0 0010.184 38.059 3.291 3.291 0 01-1.407 4.063l-27.594 15.932a3.303 3.303 0 00-1.209 4.512l21.02 36.408a3.304 3.304 0 004.513 1.209l27.689-15.986a3.29 3.29 0 014.216.806 180.157 180.157 0 0027.855 27.782 3.29 3.29 0 01.813 4.222l-16.014 27.737a3.303 3.303 0 001.209 4.512l36.407 21.02c1.58.912 3.6.371 4.513-1.209l16.041-27.782a3.289 3.289 0 014.054-1.41c31.813 12.337 40.777 7.358 40.777 13.31v32.193a3.303 3.303 0 003.303 3.303h42.04a3.303 3.303 0 003.303-3.303v-32.298c0-1.632 1.198-3 2.811-3.249a177.818 177.818 0 0037.824-10.179 3.29 3.29 0 014.065 1.406l16.171 28.009a3.304 3.304 0 004.513 1.209l36.407-21.02a3.302 3.302 0 001.209-4.512l-16.247-28.142a3.293 3.293 0 01.804-4.216 180.073 180.073 0 0027.594-27.667 3.292 3.292 0 014.221-.812l28.189 16.275c1.58.912 3.6.371 4.513-1.209l21.02-36.408c.912-1.58.371-3.6-1.209-4.512l-28.196-16.279a3.291 3.291 0 01-1.41-4.057 177.827 177.827 0 0010.055-37.717 3.294 3.294 0 013.25-2.818h32.612a3.303 3.303 0 003.303-3.303v-42.04a3.308 3.308 0 00-3.306-3.303z" fill="#585a60"/><path d="M289.088.312c-2.21-.928-4.659.683-4.659 3.074 0 73.41.292 68.954-.683 70.643l-11.25 19.486a5.629 5.629 0 01-4.864 2.808h-20.239a6.166 6.166 0 01-5.324-3.074c-11.854-20.53-11.78-19.819-11.78-22.151V3.265c0-2.328-2.381-3.909-4.527-3.009C193.225 13.879 173.105 46.729 175.696 82c4.993 67.953 87.282 100.571 137.516 53.702C356.295 95.505 344.204 23.5 289.088.312z" fill="#ffa92c"/><path d="M292.655 93.515l11.25-19.486c.975-1.689.683 2.273.683-65.127a82.376 82.376 0 00-15.5-8.591c-2.21-.928-4.659.683-4.659 3.074 0 73.41.292 68.954-.683 70.643l-11.25 19.486a5.629 5.629 0 01-4.864 2.808h20.158a5.629 5.629 0 004.865-2.807zM195.854 82c-2.146-29.202 11.287-56.732 34.435-73.077V3.265c0-2.328-2.381-3.909-4.527-3.009C193.225 13.879 173.105 46.729 175.696 82c3.305 44.983 43.86 80.881 91.739 75.084-38.293-4.693-68.728-36.259-71.581-75.084z" fill="#f2961d"/><path d="M59.794 182.542l23.866 13.779a213.714 213.714 0 0121.33-43.857l-20.873-12.051a3.304 3.304 0 00-4.513 1.209l-21.02 36.408a3.304 3.304 0 001.21 4.512zm11.74 85.02c0-8.166.472-16.22 1.36-24.148h-29.41a3.303 3.303 0 00-3.303 3.303v42.04a3.303 3.303 0 003.303 3.303h29.45a216.808 216.808 0 01-1.4-24.498zm66.578-155.369a215.324 215.324 0 0137.958-28.867c-.041-.448-.088-.894-.121-1.345-.041-.569-.06-1.134-.09-1.702l-5.052-8.75a3.304 3.304 0 00-4.513-1.209l-36.407 21.02a3.303 3.303 0 00-1.209 4.512l9.434 16.341zm-54.35 226.9l-23.968 13.838a3.303 3.303 0 00-1.209 4.512l21.02 36.408a3.304 3.304 0 004.513 1.209l21.033-12.144a213.68 213.68 0 01-21.389-43.823zm54.481 83.96l-9.565 16.568a3.303 3.303 0 001.209 4.512l36.407 21.02c1.58.912 3.6.371 4.513-1.209l6.567-11.375a215.342 215.342 0 01-39.131-29.516zm93.435 52.112v5.089a3.303 3.303 0 003.303 3.303c45.279 0 43.463.574 44.812-1.518a214.544 214.544 0 01-48.115-6.874z" fill="#4c4f56"/></svg>