<svg xmlns="http://www.w3.org/2000/svg" viewBox="0 0 512.001 512.001"><path d="M326.622 494.345H79.449L44.139 220.69h317.793zM17.656 185.38h370.76v35.31H17.656z" fill="#4398d1"/><path fill="#398cc4" d="M44.139 220.69L48.694 256h308.683l4.555-35.31z"/><path fill="#726891" d="M185.38 185.379H61.794v-79.448l35.31-44.138h52.966l35.31 44.138z"/><path fill="#e8594a" d="M97.101 0h52.966v61.793H97.101z"/><path fill="#7a709c" d="M61.794 105.93h123.59v79.45H61.794z"/><path fill="#e66712" d="M309.164 37.692l15.795-7.885 36.031 72.183-15.795 7.884z"/><path d="M344.281 0h35.31v35.31h-35.31zm-44.142 70.621h-79.448C220.691 31.62 252.311 0 291.311 0h52.966v35.31l-44.138 35.311z" fill="#f77219"/><path fill="#d4d4d4" d="M247.171 70.62h52.966v35.31h-52.966z"/><path fill="#ebebeb" d="M247.173 105.931h52.966l44.138 44.138v35.31H220.691v-52.965z"/><path d="M450.208 370.759h-13.824a53.747 53.747 0 00-23.985 5.658 53.588 53.588 0 01-47.969 0 53.741 53.741 0 00-23.985-5.658h-13.824c-24.373 0-44.138 19.765-44.138 44.138v52.966c0 24.373 19.765 44.138 44.138 44.138h13.824a53.747 53.747 0 0023.985-5.658 53.588 53.588 0 0147.969 0 53.74 53.74 0 0023.984 5.658h13.824c24.373 0 44.138-19.765 44.138-44.138v-52.966c.001-24.373-19.764-44.138-44.137-44.138z" fill="#f5a338"/><path d="M450.208 459.034h-13.824a53.747 53.747 0 01-23.985-5.658 53.588 53.588 0 00-47.969 0 53.741 53.741 0 01-23.985 5.658h-13.824c-24.373 0-44.138-19.765-44.138-44.138 0-24.373 19.765-44.138 44.138-44.138h13.824a53.747 53.747 0 0123.985 5.658 53.588 53.588 0 0047.969 0 53.74 53.74 0 0123.984-5.658h13.824c24.373 0 44.138 19.765 44.138 44.138.001 24.374-19.764 44.138-44.137 44.138z" fill="#f9b44d"/><path d="M441.381 397.24h17.655v17.655h-17.655zm-88.28 0h17.655v17.655h-17.655zm-35.31 8.83h17.655v17.655h-17.655zm88.28 0h17.655v17.655h-17.655z" fill="#f5a338"/><path d="M247.173 256v-70.621H105.932v203.034c0 14.627 11.855 26.483 26.483 26.483h88.276c14.627 0 26.483-11.855 26.483-26.483v-88.276l35.84 17.92c9.454 4.732 20.948.9 25.679-8.545 0-.009.009-.009.009-.018l.221-.441c4.943-9.702 1.077-21.575-8.616-26.509-.035-.018-.079-.044-.124-.062L247.173 256z" fill="#97d3e6"/><path d="M300.183 282.483L247.173 256v-70.621h-6.691c-32.044 105.357-88.276 169.746-134.179 206.927 1.898 12.968 13.012 22.581 26.112 22.59h88.276c14.627 0 26.483-11.855 26.483-26.483v-88.276l35.84 17.92c9.454 4.732 20.948.9 25.679-8.545 0-.009.009-.009.009-.018l.221-.441c4.943-9.702 1.077-21.575-8.616-26.509-.044-.017-.08-.044-.124-.061z" fill="#8ac9de"/><path d="M132.411 326.62h17.655v88.28h-17.655zm35.31 0h17.655v88.28h-17.655zm35.31 0h17.655v88.28h-17.655z" fill="#7dbdd1"/></svg>