<svg xmlns="http://www.w3.org/2000/svg" viewBox="0 0 250 260.49"><defs><style>.cls-3{fill:#2eff74}</style></defs><g id="Layer_2" data-name="Layer 2"><g id="Layer_2-2" data-name="Layer 2"><circle cx="91.42" cy="83.05" r="59.66" fill="#e8e8e8"/><path d="M109.9 224.23a94.64 94.64 0 1194.64-94.63 94.74 94.74 0 01-94.64 94.63zm0-175.84a81.21 81.21 0 1081.21 81.21 81.3 81.3 0 00-81.21-81.21z" fill="#4c96d7"/><path class="cls-3" d="M212.92 126.5c-21.54-9.22-28.72-21.7-49.53-32.45C136 79.89 114.7 82.36 99.27 90.62c-11.51 6.16-18.33 12.95-21.11 19.95a95.32 95.32 0 0127.77 5.68c14.7 5.47 39.65 17.09 62.38 19.14 0 0-3.17 6.27-19.57 2.17s-33.92-12.42-46.22-16.87a72 72 0 00-25.75-4.1 23.25 23.25 0 004 14.24c13.88 22 46.39 44 71.05 45.24 58.84 2.87 98.21-40.34 98.21-40.34s-11.5 1.75-37.11-9.23z"/><path class="cls-3" d="M109.9 19.69A109.87 109.87 0 001.21 145.82 42 42 0 019.6 130v-.39a100.32 100.32 0 11100.3 100.3c-42.62 0-81.37-30.35-92.18-61.09-7-20 12.46-41.58 30.67-47.34a99.22 99.22 0 0128.38-4.89 20 20 0 011.39-6 83.52 83.52 0 00-31.36 4.14c-15.39 5.27-29.86 16.09-36.06 30.04a38.71 38.71 0 00-3.5 15.16 45.65 45.65 0 004.18 18.38A109.89 109.89 0 10109.9 19.69z"/><path d="M66.2 14.64l1.7-.71 2 4.83a8 8 0 01-4 3.54 6.8 6.8 0 01-9.25-3.58c-1.53-3.66.15-7.51 4-9.11a6.71 6.71 0 015.56-.08l-.64 1.56a5.3 5.3 0 00-4.19.06 5.17 5.17 0 104 9.54 5.68 5.68 0 002.57-2zm25.22.26l-3.63-3.49-.82.2-3.26.63.79 4-1.89.37L80 3.45l5.14-1C88.6 1.77 91 3.1 91.56 6a4.22 4.22 0 01-2.08 4.72l4 3.81zm-1.74-8.58c-.37-1.88-1.84-2.7-4.25-2.23l-3.19.63 1.16 5.92 3.2-.64c2.4-.45 3.45-1.79 3.08-3.68zm25.38 5.42v1.67l-9.74.17-.19-13.42 9.46-.16v1.67l-7.55.12.07 4.12 6.73-.11v1.63l-6.72.11.07 4.34zM137 14.85l-.31 1.64-9.58-1.8 2.51-13.19 9.31 1.75-.31 1.64-7.42-1.4-.76 4.06 6.61 1.24-.3 1.6-6.61-1.24-.8 4.26zm27.11-3.06l-5.06 12.43-1.46-.59-3.68-12.31-3.78 9.27-1.77-.72 5.06-12.43 1.45.59 3.69 12.31 3.77-9.27zM18.35 202l1.15 1.35-8.95 7.65 4.38 5.13-1.27 1.08-5.53-6.49zm12.16 26.41l-5-4.32-3.22 1.66-1.39-1.19 13-6.53 1.34 1.15-4.43 13.88-1.42-1.21zm.52-1.58l2.24-6.75-6.27 3.25zm25.77 7.08L50 245.49l-1.26-.74-1.4-12.42L42.3 241l-1.53-.9 6.78-11.57 1.26.74 1.4 12.41 5-8.63zm10.5 4.88l5 1.74a6.71 6.71 0 11-4.45 12.66l-5-1.74zm1 12.79a5 5 0 103.34-9.52L68.43 241l-3.34 9.52zm17.77 5.08l.88-1.38a6.15 6.15 0 003.83 2.16c2.14.33 3.19-.41 3.37-1.57.5-3.24-7.29-2.35-6.53-7.28.32-2.05 2.07-3.56 5.31-3.06a7 7 0 013.78 1.78l-.81 1.43a6.1 6.1 0 00-3.22-1.6c-2.09-.33-3.14.48-3.32 1.64-.5 3.24 7.28 2.37 6.53 7.24-.31 2-2.1 3.54-5.35 3a7.08 7.08 0 01-4.47-2.36zm20.93-2.89a6.54 6.54 0 016.46-7 6 6 0 014.78 2l-1.13 1.23a4.46 4.46 0 00-3.54-1.51 5.16 5.16 0 00.23 10.31 4.49 4.49 0 003.48-1.69l1.18 1.19a6 6 0 01-4.71 2.21 6.56 6.56 0 01-6.75-6.74zm31.08.05l-6.49 1.34-.66 3.56-1.8.37 2.81-14.29 1.72-.36 8.28 12-1.84.38zm-.92-1.38l-4-5.9-1.3 7zm22.42-11.63c1.1 2.7-.05 5.08-3.06 6.3l-2.85 1.17 1.53 3.72-1.65.68-5.06-12.44 4.5-1.84c3.01-1.18 5.49-.29 6.59 2.41zm-1.65.68c-.73-1.78-2.24-2.34-4.36-1.48l-2.8 1.14 2.27 5.58 2.8-1.14c2.16-.86 2.81-2.33 2.09-4.1zm9.29-10.06l1.54-.9 6.82 11.55-1.58.92zM187 217.27l8.46 10.4-1.13.92-12.11-3 6.31 7.76-1.38 1.13-8.49-10.48 1.14-.92 12.11 3-6.31-7.76zm19-10.34l1.12-1.29 4 3.43a7.08 7.08 0 01-1.81 4.69 6.87 6.87 0 01-10.35-9 6 6 0 014.71-2.27l.17 1.62a4.75 4.75 0 00-3.54 1.71 5.16 5.16 0 007.78 6.77 5 5 0 001.26-2.77z"/></g></g></svg>