<svg height="512" width="512" xmlns="http://www.w3.org/2000/svg"><circle cx="448" cy="200" fill="#743b20" r="40"/><path d="M432 160h16v16h-16zm-144 0h16v16h-16z" fill="#feb784"/><path d="M280 120h24v16h-24z" fill="#743b20"/><rect fill="#9fe4ed" height="224" rx="56" width="112" x="160" y="24"/><path d="M184 328H56a32 32 0 01-32-32 32 32 0 0132-32h128v64z" fill="#e0e0de"/><path d="M184 392H56a32 32 0 01-32-32 32 32 0 0132-32h128v64z" fill="#d6d6d4"/><path d="M184 456H56a32 32 0 01-32-32 32 32 0 0132-32h128v64z" fill="#e0e0de"/><path d="M48 288h136v16H48zm0 64h136v16H48zm0 64h136v16H48z" fill="#bfbfbd"/><path d="M24 456h184v32H24z" fill="#7a432a"/><path d="M208 456h-83l-32 32h115z" fill="#743b20"/><path d="M440 352h48v144h-48z" fill="#fec093"/><path d="M230.535 341.451L187.265 452a25.416 25.416 0 0015.411 33.922A25.416 25.416 0 00234 472l46-112z" fill="#feb784"/><path d="M440 496v-48c21.687-23.557 20.977-57.276 0-80v-16h48v-29.308a40 40 0 00-34.343-39.6L432 280l-32-8-32 56-32-56-32 8-31.546 5.258a32 32 0 00-23.628 17.8l-18.291 38.392L280 360l8-16h8v24c-20.977 22.724-21.687 56.443 0 80v48" fill="#374559"/><path d="M360 328h16v40h-16z" fill="#29384a"/><path d="M212 488a28 28 0 01-28-28v-36h56v36a28 28 0 01-28 28z" fill="#fec9a3"/><path d="M248 424h-64V296h72v40l-16 24z" fill="#4db7e5"/><path d="M208 248h16v48h-16zm0-56h16v40h-16zm-23.589-61.47a42.8 42.8 0 00-26.941-26.941l5.06-15.178a58.874 58.874 0 0137.059 37.059zM208 24h16v40h-16zm39.589 106.53l-15.178-5.06a58.874 58.874 0 0137.059-37.059l5.06 15.178a42.8 42.8 0 00-26.941 26.941zm-63.178-48a42.8 42.8 0 00-26.941-26.941l5.06-15.178a58.874 58.874 0 0137.059 37.059zm63.178 0l-15.178-5.06a58.874 58.874 0 0137.059-37.059l5.06 15.178a42.8 42.8 0 00-26.941 26.941zm-63.178 96a42.8 42.8 0 00-26.941-26.941l5.06-15.178a58.874 58.874 0 0137.059 37.059zM208 80h16v40h-16zm39.589 98.53l-15.178-5.06a58.874 58.874 0 0137.059-37.059l5.06 15.178a42.8 42.8 0 00-26.941 26.941zm-63.178 48a42.8 42.8 0 00-26.941-26.941l5.06-15.178a58.874 58.874 0 0137.059 37.059zM208 136h16v40h-16zm39.589 90.53l-15.178-5.06a58.874 58.874 0 0137.059-37.059l5.06 15.178a42.8 42.8 0 00-26.941 26.941z" fill="#60d1e0"/><path d="M408 344l-40-16-40 16-24-64 32-8v-56h64v56l32 8z" fill="#fec9a3"/><path d="M336 272l-32 8 24 64 40-16zm64 0l-32 56 40 16 24-64z" fill="#4c5d72"/><path d="M440 448v48H296v-48c-21.69-23.56-20.98-57.28 0-80h144a60.121 60.121 0 0113.53 23.44c5.77 19.04 1.5 40.24-13.53 56.56z" fill="#e0e0de"/><path d="M440 448v48H296v-3.01c55.65-19.51 114.4-50.95 157.53-101.55 5.77 19.04 1.5 40.24-13.53 56.56z" fill="#d6d6d4"/><path d="M296.009 392c-.206 0-.414-.007-.623-.023a8 8 0 01-7.363-8.591l8-104a8 8 0 0115.954 1.228l-8 104a8 8 0 01-7.968 7.386zm143.982 0a8 8 0 01-7.968-7.386l-8-104a8 8 0 1115.954-1.228l8 104a8 8 0 01-7.363 8.591 8.106 8.106 0 01-.623.023z" fill="#e0e0de"/><path d="M400 248.427V216h-64v32.427a71.4 71.4 0 0064 0zM288 128h8v48h-8a24 24 0 01-24-24 24 24 0 0124-24z" fill="#feb784"/><path d="M440 112v56a72.006 72.006 0 01-72 72 74.533 74.533 0 01-7.66-.4A72.024 72.024 0 01296 168v-56a64 64 0 0164-64h16a64 64 0 0164 64z" fill="#fec9a3"/><path d="M440 112v56a72.006 72.006 0 01-72 72 74.533 74.533 0 01-7.66-.4A87.962 87.962 0 00405 163v-48a87.688 87.688 0 00-25.78-62.22 86.717 86.717 0 00-5.18-4.78H376a64 64 0 0164 64z" fill="#fec093"/><path d="M332 128a12 12 0 1012 12 12.013 12.013 0 00-12-12zm72 0a12 12 0 1012 12 12.013 12.013 0 00-12-12z" fill="#7a432a"/><path d="M456 104v32l-16-8-24-40s-8.17 3.71-20.88 8.87C366.1 108.66 313.38 128 280 128v-24a79.945 79.945 0 0180-80h16a80 80 0 0180 80z" fill="#7a432a"/><path d="M368 200a24.027 24.027 0 01-24-24h16a8 8 0 0016 0h16a24.027 24.027 0 01-24 24z" fill="#f7a468"/><path d="M456 104v32l-16-8-24-40s-8.17 3.71-20.88 8.87a88.114 88.114 0 00-64.67-67.23A79.687 79.687 0 01360 24h16a80 80 0 0180 80z" fill="#743b20"/><path d="M440 128h8a24 24 0 0124 24 24 24 0 01-24 24h-8v-48z" fill="#feb784"/></svg>