<svg height="512" width="512" xmlns="http://www.w3.org/2000/svg"><circle cx="256" cy="256" fill="#eab14d" r="256"/><path d="M256 0c-4.57 0-9.111.125-13.622.361C377.43 7.443 484.757 119.185 484.757 256S377.43 504.557 242.378 511.639c4.511.236 9.052.361 13.622.361 141.385 0 256-114.615 256-256S397.385 0 256 0z" fill="#e49542"/><circle cx="256" cy="256" fill="#f4fbff" r="199.487"/><path d="M256 56.513c-5.525 0-10.994.235-16.405.675C342.094 65.532 422.678 151.351 422.678 256s-80.584 190.467-183.083 198.812c5.411.441 10.88.676 16.405.676 110.174 0 199.487-89.314 199.487-199.487S366.174 56.513 256 56.513z" fill="#daf1f4"/><path d="M256 117.911a7.726 7.726 0 01-7.726-7.726v-11.34a7.727 7.727 0 0115.453 0v11.34a7.727 7.727 0 01-7.727 7.726zm102.687 42.883a7.726 7.726 0 01-5.463-13.19l8.019-8.018a7.726 7.726 0 1110.926 10.927l-8.019 8.019a7.708 7.708 0 01-5.463 2.262zm53.628 102.933h-11.34a7.726 7.726 0 110-15.452h11.34a7.726 7.726 0 110 15.452zM366.11 374.433a7.708 7.708 0 01-5.464-2.263l-8.018-8.018a7.729 7.729 0 010-10.928 7.73 7.73 0 0110.928 0l8.018 8.018a7.729 7.729 0 01-5.464 13.191zm-110.952 45.61a7.726 7.726 0 01-7.726-7.726v-11.34a7.726 7.726 0 1115.452 0v11.34a7.726 7.726 0 01-7.726 7.726zm-110.706-46.206a7.7 7.7 0 01-5.463-2.264 7.726 7.726 0 010-10.927l8.019-8.018a7.727 7.727 0 0110.926 10.928l-8.019 8.018a7.7 7.7 0 01-5.463 2.263zm-34.269-110.951h-11.34a7.726 7.726 0 110-15.452h11.34a7.726 7.726 0 110 15.452zm42.884-102.687a7.701 7.701 0 01-5.463-2.263l-8.019-8.018a7.727 7.727 0 0110.926-10.928l8.019 8.019a7.727 7.727 0 01-5.463 13.19zM256 263.727h-65.62a7.727 7.727 0 010-15.453h57.893v-98.297a7.726 7.726 0 1115.452 0V256a7.725 7.725 0 01-7.725 7.727z" fill="#2b4d66"/><path d="M335.266 304.491a7.697 7.697 0 01-3.527-.857l-79.272-40.764c-3.795-1.951-5.289-6.609-3.338-10.404s6.609-5.29 10.405-3.338l79.272 40.763a7.726 7.726 0 013.338 10.404 7.728 7.728 0 01-6.878 4.196z" fill="#da4a54"/><circle cx="256" cy="256" fill="#365e7d" r="20.622"/></svg>