<svg xmlns="http://www.w3.org/2000/svg" width="512" height="512"><path d="M315.044 213.542l-49.365-36.658a9.652 9.652 0 00-10.145-.881 9.655 9.655 0 00-5.344 8.669v12.104h-31.356c-5.35 0-9.703 4.353-9.703 9.703v29.707c0 5.351 4.353 9.703 9.703 9.703h31.356v12.104a9.654 9.654 0 005.343 8.668 9.706 9.706 0 004.369 1.044 9.66 9.66 0 005.775-1.923l49.366-36.66a9.743 9.743 0 003.919-7.79 9.742 9.742 0 00-3.918-7.79zm-50.268 34.741v-9.687a7.293 7.293 0 00-7.293-7.293h-33.765v-19.941h33.765a7.293 7.293 0 007.293-7.293v-9.686l36.29 26.95-36.29 26.95zM479.935 253.029l-29.51-42.299a10.594 10.594 0 00-8.687-4.533h-63.072c-5.839 0-10.59 4.75-10.59 10.59v62.752c0 5.84 4.751 10.59 10.59 10.59h92.584c5.839 0 10.59-4.75 10.59-10.59v-20.451c0-2.18-.66-4.276-1.905-6.059zm-12.683 22.513h-84.589v-54.758h56.989l27.6 39.56v15.198z" fill="#fff" data-original="#000000" xmlns="http://www.w3.org/2000/svg"/><path d="M511.985 355.228v-99.851c0-5.952-1.8-11.677-5.205-16.556l-35.157-50.392a28.952 28.952 0 00-23.73-12.379h-17.192a7.293 7.293 0 100 14.586h17.192c4.687 0 9.085 2.294 11.767 6.138l35.158 50.393a14.275 14.275 0 012.58 8.209v92.596h-24.851c-.177-.35-.364-.693-.549-1.037-.065-.12-.126-.242-.192-.362a49.63 49.63 0 00-1.066-1.851c-.124-.206-.255-.408-.382-.613a50.125 50.125 0 00-1.301-1.988c-.167-.241-.338-.477-.508-.714-8.378-11.715-21.615-19.719-36.747-21.04a49.539 49.539 0 00-2.183-.149 49.546 49.546 0 00-2.251-.057 49.546 49.546 0 00-3.042.1c-.465.029-.929.065-1.392.106-15.134 1.321-28.372 9.327-36.75 21.045-.169.235-.339.47-.504.708a55.07 55.07 0 00-1.301 1.987c-.128.206-.259.409-.385.617a51.01 51.01 0 00-1.065 1.85c-.065.12-.127.242-.192.362-.185.344-.372.688-.549 1.037h-24.765V190.638h27.962a7.293 7.293 0 100-14.586h-27.962v-71.581c0-7.641-6.217-13.858-13.858-13.858H13.858C6.217 90.612 0 96.829 0 104.47v161.144a7.293 7.293 0 1014.586 0V105.199h328.249V347.974H151.051c-.172-.34-.354-.673-.534-1.008-.071-.133-.14-.268-.212-.401a49.357 49.357 0 00-1.054-1.831c-.132-.218-.269-.432-.404-.648a52.547 52.547 0 00-1.294-1.975c-.155-.224-.315-.444-.473-.664-8.377-11.736-21.626-19.756-36.775-21.078a49.253 49.253 0 00-2.183-.149c-.748-.034-1.498-.057-2.251-.057a49.546 49.546 0 00-3.042.1c-.465.029-.929.065-1.392.106-15.144 1.322-28.39 9.337-36.767 21.067-.162.226-.325.45-.483.679a50.88 50.88 0 00-1.295 1.977c-.133.214-.27.426-.4.642a49.461 49.461 0 00-1.055 1.833c-.072.131-.14.265-.211.398-.18.336-.362.67-.535 1.011H14.587v-36.719c0-4.028-3.265-7.293-7.293-7.293S0 307.226 0 311.255v37.448c0 7.641 6.217 13.858 13.858 13.858h9.157v12.946c0 5.963 4.851 10.815 10.815 10.815h23.883c6.577 20.322 25.674 35.065 48.158 35.065s41.581-14.742 48.158-35.065h225.18c6.577 20.322 25.674 35.065 48.158 35.065s41.581-14.742 48.158-35.065h8.192c15.595-.001 28.283-12.688 28.283-28.323l-.015-2.771zm-456.096 7.6c-.043.27-.078.542-.116.813a50.151 50.151 0 00-.283 2.39c-.051.54-.091 1.082-.124 1.625-.015.248-.034.495-.045.744a50.69 50.69 0 00-.051 3.334H37.602v-9.174h18.325c-.015.089-.024.179-.038.268zm85.963 9.699c-.022.446-.058.893-.097 1.339-.011.124-.017.25-.028.374-.05.518-.114 1.036-.187 1.554-.007.053-.013.108-.021.161-.071.489-.156.976-.247 1.463-3.128 16.7-17.806 29.381-35.4 29.381s-32.273-12.681-35.4-29.381a36.595 36.595 0 01-.247-1.463c-.008-.053-.013-.108-.021-.161a35.766 35.766 0 01-.187-1.554c-.012-.124-.018-.249-.028-.374a35.587 35.587 0 01-.097-1.339 35.386 35.386 0 01.001-3.512c.01-.199.028-.397.041-.596.025-.382.05-.763.087-1.142.023-.241.054-.48.083-.721.039-.332.079-.664.127-.994.038-.262.082-.522.126-.782.051-.302.103-.603.161-.902a36.47 36.47 0 01.588-2.523c.069-.256.143-.51.217-.764.087-.294.175-.587.27-.88.082-.253.169-.504.256-.754.097-.28.195-.559.299-.837.063-.167.131-.332.197-.498.279-.71.577-1.409.898-2.094.039-.084.075-.17.115-.253a35.47 35.47 0 011.374-2.578 35.768 35.768 0 012.917-4.271c6.131-7.692 15.284-12.707 25.256-13.546.146-.012.291-.023.438-.033.839-.06 1.682-.099 2.531-.099s1.692.039 2.531.099l.438.033c9.971.839 19.125 5.854 25.256 13.546l.002.003a35.768 35.768 0 013.16 4.693c.398.703.777 1.419 1.128 2.153.04.083.075.169.115.253.321.685.62 1.384.898 2.094.065.166.134.331.197.498.104.278.202.557.299.837.087.251.174.501.256.754a38.804 38.804 0 01.711 2.513 38.247 38.247 0 01.364 1.654c.058.299.111.6.161.902.044.26.088.521.126.782.048.33.088.662.127.994.028.24.059.48.083.721.037.378.062.76.087 1.142.013.199.031.397.041.596.028.583.045 1.169.045 1.759a40.716 40.716 0 01-.047 1.753zm235.533-9.699c-.043.269-.078.541-.116.812a49.824 49.824 0 00-.283 2.389 48.892 48.892 0 00-.124 1.628c-.015.247-.034.494-.045.742a50.733 50.733 0 00-.051 3.335H156.473c.006-.32.01-.64.01-.96 0-.794-.024-1.585-.06-2.374-.012-.249-.03-.496-.045-.744a48.712 48.712 0 00-.407-4.015c-.038-.271-.074-.543-.116-.813-.014-.089-.024-.178-.038-.267h221.607c-.015.089-.025.178-.039.267zm85.963 9.699c-.022.446-.058.893-.097 1.339-.011.124-.017.25-.028.374-.05.518-.114 1.036-.187 1.554-.008.053-.013.108-.021.161-.071.489-.156.976-.247 1.463-3.127 16.7-17.806 29.381-35.4 29.381-17.589 0-32.266-12.675-35.398-29.369-.092-.49-.177-.98-.248-1.472-.008-.059-.014-.118-.023-.177a36.38 36.38 0 01-.185-1.537c-.013-.133-.019-.268-.031-.401a34.218 34.218 0 01-.095-1.313 36.466 36.466 0 01-.045-1.754c0-.59.016-1.176.045-1.759.01-.199.028-.397.041-.595.025-.382.05-.764.087-1.143.023-.24.054-.479.082-.718.039-.334.079-.667.127-.997.038-.259.082-.517.125-.775.051-.305.104-.61.163-.912.053-.273.111-.545.171-.817a34.248 34.248 0 01.638-2.48 32.233 32.233 0 01.529-1.642c.093-.268.187-.536.287-.802.066-.176.138-.35.207-.524a35.54 35.54 0 01.884-2.06c.043-.093.083-.188.127-.28a36.087 36.087 0 011.375-2.58 35.88 35.88 0 012.903-4.251l.014-.018c6.131-7.688 15.282-12.701 25.251-13.54l.438-.033c.839-.06 1.682-.099 2.531-.099s1.692.039 2.531.099l.438.033c9.969.839 19.119 5.852 25.25 13.54l.015.019a35.85 35.85 0 013.158 4.693c.395.698.771 1.408 1.12 2.137.044.092.083.187.127.28.316.674.609 1.362.884 2.06.069.175.141.348.207.524.1.266.193.534.287.802.092.262.182.525.268.789a37.65 37.65 0 011.07 4.146c.059.304.113.611.164.918.043.256.087.513.124.77.049.333.089.669.128 1.005.028.237.058.473.081.71.037.382.063.766.088 1.151.013.196.031.392.04.589.028.583.045 1.17.045 1.76-.001.586-.017 1.17-.045 1.751zm20.369-.792h-5.748c.006-.32.009-.64.009-.96 0-.794-.024-1.586-.06-2.375-.012-.248-.03-.495-.045-.742a48.892 48.892 0 00-.407-4.017c-.038-.271-.074-.543-.116-.812-.014-.089-.024-.178-.038-.267h19.334c-1.872 5.336-6.96 9.173-12.929 9.173z" fill="#fff" data-original="#000000" xmlns="http://www.w3.org/2000/svg"/><path d="M427.368 347.392c-12.893 0-23.382 10.489-23.382 23.383s10.489 23.383 23.382 23.383 23.383-10.489 23.383-23.383c-.001-12.894-10.49-23.383-23.383-23.383zm0 32.178c-4.85 0-8.795-3.946-8.795-8.796s3.945-8.796 8.795-8.796 8.796 3.946 8.796 8.796c-.001 4.85-3.947 8.796-8.796 8.796zM105.871 347.392c-12.893 0-23.383 10.489-23.383 23.383s10.49 23.383 23.383 23.383c12.893 0 23.383-10.489 23.383-23.383 0-12.894-10.49-23.383-23.383-23.383zm0 32.178c-4.85 0-8.796-3.946-8.796-8.796s3.946-8.796 8.796-8.796 8.796 3.946 8.796 8.796-3.946 8.796-8.796 8.796zM178.294 210.337l-60.986-57.292a7.294 7.294 0 00-9.987 0l-60.989 57.292a7.294 7.294 0 109.987 10.632l55.995-52.601 55.994 52.601a7.267 7.267 0 004.991 1.978 7.294 7.294 0 004.995-12.61z" fill="#fff" data-original="#000000" xmlns="http://www.w3.org/2000/svg"/><path d="M157.9 219.74l-37.331-35.069c-4.629-4.349-11.882-4.349-16.511 0l-37.33 35.067a12.097 12.097 0 00-3.804 8.79v51.014c0 6.649 5.409 12.057 12.058 12.057h24.69v.001h49.973c6.649 0 12.057-5.409 12.057-12.057v-51.015c0-3.315-1.386-6.518-3.802-8.788zm-40.237 57.273h-10.697v-25.284h10.697v25.284zm29.453 0H132.25v-29.906c0-5.495-4.471-9.965-9.966-9.965h-19.94c-5.495 0-9.965 4.471-9.965 9.965v29.906H77.512v-47.391l34.802-32.693 34.802 32.693v47.391z" fill="#fff" data-original="#000000" xmlns="http://www.w3.org/2000/svg"/></svg>