<svg xmlns="http://www.w3.org/2000/svg" viewBox="0 0 512 512"><path d="M470.3 73.499L452 89.4v347c0 49.2-99.101 75-196 75s-196-25.8-196-75v-347L35.7 70.8l27.9-11.4h384.8l21.9 14.099z" fill="#e5e5e5"/><path d="M470.3 73.499L452 89.4v347c0 49.2-99.101 75-196 75v-452h192.4l21.9 14.099z" fill="#c8c6cd"/><path d="M316.901 116.101L256 111.9l-119.099-7.8c-3.9-.3-8.101 1.199-11.102 4.2A14.524 14.524 0 00121 119.1v166.3c0 24.899 20.099 45 45 45s45-20.101 45-45v-60c0-8.401 6.599-15 15-15s15 6.599 15 15v30c0 13.2 5.7 25.199 15 33.3 7.8 7.2 18.3 11.7 30 11.7 24.901 0 45-20.101 45-45V131.1c0-8.1-6-14.701-14.099-14.999z" fill="#00c7ce"/><path d="M512 104.4v91c0 53.099-21.899 104.099-60 140.4-6.301 6.301-12.9 11.999-20.099 17.1C398 377.799 357.1 390.4 316 390.4c-19.799 0-39.901-3.3-60-9.3-19.799 6-40.201 9.3-60 9.3-41.1 0-82.301-12.9-115.901-37.5-7.2-5.101-13.799-10.8-20.099-17.1-38.101-36.301-60-87.301-60-140.4v-91c0-24.901 20.099-45 45-45h18.6c-1.8 3.9-2.999 7.5-3.3 11.7-.3.9-.3 2.099-.3 3.3v15H45c-8.401 0-15 6.599-15 15v91c0 34.2 10.499 67.2 30 94.499 10.201 14.702 22.8 27.9 37.8 38.701 43.2 31.8 99.399 40.199 152.5 23.099 1.199-.298 2.401-.298 3.6-.298.901-.3 1.5-.3 2.1-.3 1.8-.3 3.3 0 5.099.599 53.401 17.1 109.9 8.701 153.1-22.798 15-11.102 27.9-24.3 37.8-39.3 19.2-27.301 30-60.3 30-94.2v-91c0-8.401-6.599-15-15-15h-15v-15c0-1.201 0-2.401-.3-3.3-.3-4.2-1.5-7.8-3.3-11.7H467c24.901-.002 45 20.098 45 44.998z" fill="#5a5a5a"/><path d="M331 131.101v124.3c0 24.899-20.099 45-45 45-11.7 0-22.2-4.501-30-11.7V111.9l60.901 4.2C325 116.399 331 123 331 131.101z" fill="#00b6be"/><path d="M512 104.4v91c0 53.099-21.899 104.099-60 140.4-6.301 6.301-12.9 11.999-20.099 17.1C398 377.799 357.1 390.4 316 390.4c-19.799 0-39.901-3.3-60-9.3v-30c1.8-.3 3.3 0 5.099.599 53.401 17.1 109.9 8.701 153.1-22.798 15-11.102 27.9-24.3 37.8-39.3 19.2-27.301 30-60.3 30-94.2v-91c0-8.401-6.599-15-15-15h-15v-15c0-1.201 0-2.401-.3-3.3-.3-4.2-1.5-7.8-3.3-11.7H467c24.901-.001 45 20.099 45 44.999z" fill="#444"/><path d="M256 .6C158.5.6 60 25.2 60 74.4s99.101 75 196 75 196-25.8 196-75S353.5.6 256 .6z" fill="#00ddc1"/><path d="M286 330.4h-60c-24.901 0-45 20.099-45 45 0 24.899 20.099 45 45 45h60c24.901 0 45-20.101 45-45 0-24.9-20.099-45-45-45z" fill="#b35c4b"/><path d="M331 375.4c0 24.899-20.099 45-45 45h-30v-90h30c24.901 0 45 20.1 45 45z" fill="#a24f3d"/><path d="M452 74.4c0 49.2-99.101 75-196 75V.6c97.5 0 196 24.6 196 73.8z" fill="#00c7ce"/></svg>