<svg xmlns="http://www.w3.org/2000/svg" width="512" height="512" viewBox="0 0 61 48"><g fill="#082680" xmlns="http://www.w3.org/2000/svg"><path d="M24.264 15.6a1 1 0 00-.317-1.379 8.146 8.146 0 00-4.327-1.231 8.233 8.233 0 00-7.377 4.646 1 1 0 001.8.866 6.221 6.221 0 015.577-3.512 6.142 6.142 0 013.265.927 1 1 0 001.379-.317z" data-original="#000000"/><path d="M0 33.05a11.613 11.613 0 0017.209 10.163c5.425 5.683 14.29 6.284 20.434 1.387a12.832 12.832 0 0019.345-13.93A10.29 10.29 0 0049 13.023a1 1 0 10.16 1.994 8.293 8.293 0 016.048 14.573 1 1 0 00-.3 1.05 10.838 10.838 0 01-19.454 9.064 1.003 1.003 0 00-1.68 1.096c.623.95 1.368 1.813 2.216 2.568-5.573 4.074-13.344 3.165-17.827-2.084a1 1 0 00-1.311-.189A9.61 9.61 0 012 33.05a9.646 9.646 0 014.735-8.274 10.084 10.084 0 0110.207.135 1 1 0 10.969-1.75 12.558 12.558 0 00-8.45-1.491c-.009-.167-.021-.335-.021-.5a10.188 10.188 0 0115.569-8.643A1 1 0 0026.4 12.2a12.226 12.226 0 018.788-5.8 1 1 0 00-.264-1.982 14.234 14.234 0 00-9.7 5.934A12.19 12.19 0 007.44 21.17c0 .347.021.7.053 1.049A11.472 11.472 0 000 33.05z" data-original="#000000"/><path d="M51.37 33.79a6.847 6.847 0 01-6.84 6.84 1 1 0 000 2 8.85 8.85 0 008.84-8.84 1 1 0 00-2 0zM33 10a1 1 0 001 1c6.891 0 7 7.675 7 8a1 1 0 002 0c0-.327.109-8 7-8a1 1 0 000-2c-6.891 0-7-7.675-7-8a1 1 0 00-2 0c0 .327-.109 8-7 8a1 1 0 00-1 1zm9-4.248A8.566 8.566 0 0045.728 10 8.566 8.566 0 0042 14.248 8.566 8.566 0 0038.272 10 8.566 8.566 0 0042 5.752zM26 41.005v.006A1 1 0 0028 41c0-.245.084-6 5-6a1 1 0 000-2c-4.916 0-5-5.757-5-6v-.006A1 1 0 0026 27c0 .245-.084 6-5 6a1 1 0 000 2c4.916 0 5 5.757 5 6zM24.656 34A6.715 6.715 0 0027 31.287 6.715 6.715 0 0029.344 34 6.721 6.721 0 0027 36.713 6.721 6.721 0 0024.656 34zm23.5-10.559A10.987 10.987 0 0035.847 27.9a1 1 0 001.664 1.11 9.013 9.013 0 0110.106-3.641 1 1 0 10.539-1.926z" data-original="#000000"/></g></svg>