<svg height="70" viewBox="0 0 512 512" width="70" xmlns="http://www.w3.org/2000/svg"><path d="M444.394 3.996H159.322c-37.183 0-67.606 30.423-67.606 67.606v23.004h257.871c37.183 0 67.606 30.423 67.606 67.606v168.547h27.201c37.183 0 67.606-30.423 67.606-67.606V71.602c0-37.184-30.423-67.606-67.606-67.606z" fill="#dfebfa"/><path d="M396.461 91.515H111.389a67.033 67.033 0 00-19.673 2.946v.145h257.871c37.183 0 67.606 30.423 67.606 67.606v168.547h27.2a67.033 67.033 0 0019.673-2.946V159.121c.001-37.183-30.422-67.606-67.605-67.606z" fill="#b1dbfc"/><path d="M352.678 91.515H67.606C30.423 91.515 0 121.938 0 159.121v191.55c0 37.183 30.423 67.606 67.606 67.606h171.096c7.335 0 12.811 6.826 11.133 13.966-4.537 19.317-11.48 39.745-21.744 60.686-4.609 9.405 5.876 18.966 14.782 13.454 25.751-15.937 62.389-42.61 93.244-80.317 4.056-4.957 10.156-7.79 16.561-7.79 37.183 0 67.606-30.423 67.606-67.606V159.12c0-37.182-30.423-67.605-67.606-67.605z" fill="#60b8fe"/><path d="M293.618 432.243c1.677-7.141-3.798-13.966-11.133-13.966h-43.783c7.335 0 12.81 6.825 11.133 13.966-4.537 19.317-11.48 39.745-21.744 60.686-4.609 9.405 5.876 18.966 14.782 13.454a413.564 413.564 0 0033.509-23.108c7.832-17.563 13.399-34.696 17.236-51.032zM43.783 350.671v-191.55c0-37.183 30.423-67.606 67.606-67.606H67.606C30.423 91.515 0 121.938 0 159.121v191.55c0 37.183 30.423 67.606 67.606 67.606h43.783c-37.184 0-67.606-30.422-67.606-67.606z" fill="#23a8fe"/><path d="M169.562 145.235h-32.155c-7.164 0-13.026 5.862-13.026 13.026v26.727c0 7.165 5.862 13.026 13.026 13.026h17.333a5.09 5.09 0 015.09 5.09v16.925c0 1.82 2.004 2.933 3.551 1.974a40.61 40.61 0 0019.208-34.513v-29.229c0-7.164-5.862-13.026-13.027-13.026zM255.084 145.235H222.93c-7.164 0-13.026 5.862-13.026 13.026v26.727c0 7.165 5.862 13.026 13.026 13.026h17.333a5.09 5.09 0 015.09 5.09v16.925c0 1.82 2.004 2.933 3.551 1.974a40.61 40.61 0 0019.208-34.513v-29.229c-.002-7.164-5.863-13.026-13.028-13.026z" fill="#dfebfa"/><path d="M179.403 203.104a5.09 5.09 0 00-5.09-5.09H156.98c-7.164 0-13.026-5.862-13.026-13.026v-26.727c0-7.164 5.862-13.026 13.026-13.026h-19.573c-7.164 0-13.026 5.862-13.026 13.026v26.727c0 7.164 5.862 13.026 13.026 13.026h17.332a5.09 5.09 0 015.09 5.09v16.925c0 1.82 2.004 2.934 3.551 1.974a40.586 40.586 0 0016.023-18.785zM264.925 203.104a5.09 5.09 0 00-5.09-5.09h-17.333c-7.164 0-13.026-5.862-13.026-13.026v-26.727c0-7.164 5.862-13.026 13.026-13.026H222.93c-7.164 0-13.026 5.862-13.026 13.026v26.727c0 7.164 5.862 13.026 13.026 13.026h17.332a5.09 5.09 0 015.09 5.09v16.925c0 1.82 2.004 2.934 3.551 1.974a40.586 40.586 0 0016.023-18.785v-.114z" fill="#b1dbfc"/><g fill="#0193fa"><path d="M342.879 267.512H76.928a7.726 7.726 0 110-15.452H342.88a7.726 7.726 0 11-.001 15.452zM342.879 303.053H76.928a7.726 7.726 0 110-15.452H342.88a7.726 7.726 0 11-.001 15.452zM342.879 338.594H76.928a7.726 7.726 0 110-15.452H342.88a7.726 7.726 0 11-.001 15.452zM276.391 374.134H143.415a7.726 7.726 0 110-15.452h132.976a7.726 7.726 0 110 15.452z"/></g></svg>