<svg xmlns="http://www.w3.org/2000/svg" viewBox="0 0 511.999 511.999"><path d="M263.8 221.202L241 241.001c-10.8 9.3-21.301 18.6-22.8 19.799-5.7 5.7-15.3 5.7-21.299 0 0 0-79.801-80.099-82.8-83.098 0-.3-57.301-19.2-60.3-20.101-3.9-1.5-6.899-4.199-8.701-7.5-3.3-6.299-41.499-82.299-43.599-85.898-2.699-6-1.8-12.9 3.001-17.401l20.999-21.301L46.802 4.504c4.501-4.801 11.1-5.7 17.1-3.001 0 0 82 41.501 86.198 43.599 3.602 1.802 6 4.501 7.5 8.401 0 .3 18.9 57.299 20.101 60.601l86.1 86.1c5.7 5.699 5.7 15.299-.001 20.998z" fill="#d3d3d8"/><path d="M25.501 25.503l215.5 215.5c-10.8 9.3-21.301 18.6-22.8 19.799-5.7 5.7-15.3 5.7-21.299 0 0 0-79.801-80.099-82.8-83.098 0-.3-57.301-19.2-60.3-20.101-3.9-1.5-6.899-4.199-8.701-7.5-3.3-6.299-41.499-82.299-43.599-85.898-2.699-6-1.8-12.9 3.001-17.401l20.998-21.301z" fill="#babac0"/><path d="M357.4 260.801l-5.4 47.401-17.401 26.4-22.8 33.9-49.2 6.301-31.5-38.701c-5.4-6.299-4.199-15.899 2.1-21l37.8-44.099 28.5-32.999c4.799-6.601 14.099-8.101 21-3.6l36.901 26.397z" fill="#5a5a5a"/><path d="M334.6 334.601l-22.8 33.9-49.2 6.301-31.5-38.701c-5.4-6.299-4.199-15.899 2.1-21l37.8-44.099 63.6 63.599z" fill="#444"/><path d="M484.799 484.8c-40.201 39.901-106.198 35.4-140.399-10.201l-81.801-99.797 51-61.201 43.801-52.8 116.9 83.301c45.899 34.5 50.4 100.498 10.499 140.698z" fill="#ff3636"/><path d="M484.799 484.8c-40.201 39.901-106.198 35.4-140.399-10.201l-81.801-99.797 51-61.201 171.2 171.199z" fill="#e10000"/><path d="M490.175 64.503c-6-6-15.3-6-21.301 0l-42.299 42.299c-6 6-15.601 6-21.301 0-6-5.7-6-15.3 0-21.301l42.299-42.299c6-6 6-15.3 0-21.301-29.099-29.099-76.8-29.099-105.898 0l-48.3 48.301c-8.401 8.399-13.2 19.799-13.2 31.8v58.499c0 4.501-1.8 8.701-5.4 11.4L26.915 385.5c-30.899 26.1-36 71.1-11.1 100.5 1.5 1.8 4.26 3.3 5.461 4.799 29.099 29.101 76.8 27.001 103.199-4.2l215.699-249.597c2.699-3.301 6.899-5.101 11.4-5.101h58.499c12.001 0 23.401-4.799 31.8-13.2l48.301-48.3c29.1-29.098 29.1-76.799.001-105.898z" fill="#e7e7e7"/><path d="M490.175 170.402l-48.301 48.3c-8.399 8.401-19.799 13.2-31.8 13.2h-58.499c-4.501 0-8.701 1.8-11.4 5.101L124.477 486.599c-26.4 31.201-74.101 33.301-103.199 4.2l383.998-383.998c5.7 6 15.3 6 21.301 0l42.299-42.299c6-6 15.3-6 21.301 0 29.097 29.1 29.097 76.801-.002 105.9z" fill="#d3d3d8"/><path d="M84.876 448.501c-5.7 5.7-15.3 5.7-21.301 0-5.7-6-5.7-15.601 0-21.301 6-6 15.601-6 21.301 0 6.001 5.7 6.001 15.301 0 21.301z" fill="#6e6e6e"/><path d="M84.876 448.501c-5.7 5.7-15.3 5.7-21.301 0L84.876 427.2c6.001 5.7 6.001 15.301 0 21.301z" fill="#5a5a5a"/></svg>