<svg xmlns="http://www.w3.org/2000/svg" width="512" height="512" viewBox="0 0 512.001 512.001"><g xmlns="http://www.w3.org/2000/svg" fill="#082680"><path d="M376 236.141c0-16.542-13.458-30-30-30h-45.003c-5.522 0-10 4.477-10 10s4.478 10 10 10H346c5.514 0 10 4.486 10 10v40c0 5.514-4.486 10-10 10H166c-5.514 0-10-4.486-10-10v-40c0-5.514 4.486-10 10-10h44.997c5.522 0 10-4.477 10-10s-4.478-10-10-10H166c-16.542 0-30 13.458-30 30v40c0 16.542 13.458 30 30 30h180c16.542 0 30-13.458 30-30z" data-original="#000000"/><path d="M486.196 319.723c-.234-14.059-8.484-26.196-20.362-32.049a1755.13 1755.13 0 00-.278-10.343c-.215-7.393-.419-14.376-.419-21.189 0-6.815.204-13.8.42-21.195 1.019-34.913 2.174-74.484-20.929-98.271-13.42-13.818-32.781-20.535-59.189-20.535-7.693 0-15.129.271-22.372.719a37.317 37.317 0 00-1.093-13.171c-5.33-19.892-25.851-31.742-45.743-26.409a37.32 37.32 0 00-11.261 5.136c-10.05-4.959-21.565-6.142-32.593-3.186-12.012 3.218-22.051 10.921-28.268 21.69-4.401 7.623-6.502 16.137-6.22 24.721-15.523-.831-30.163-2.59-45.412-4.428-19.132-2.306-38.874-4.683-60.582-5.027-7.452-9.098-18.766-14.916-31.416-14.916a40.6 40.6 0 00-14.124 2.529C76.918 95.25 64.66 90.47 51.699 90.47 23.192 90.47 0 113.662 0 142.169c0 26.39 19.877 48.226 45.444 51.324a36.18 36.18 0 001.012 2.132c-.767 12.919-.391 26.325-.012 39.324.216 7.394.42 14.377.42 21.191 0 6.815-.204 13.8-.42 21.195-1.019 34.913-2.174 74.484 20.929 98.271 13.42 13.818 32.781 20.535 59.189 20.535 2.928 0 5.858-.039 8.828-.116C138.597 418.589 158.034 436 181.469 436c11.2 0 21.858-3.987 30.223-11.139a37.352 37.352 0 0012.643 2.197c20.594 0 37.349-16.755 37.349-37.349 0-1.186-.062-2.358-.17-3.516 20.382.347 38.708 2.549 58.01 4.876 20.688 2.493 42.082 5.072 65.915 5.072 1.051 0 2.094-.017 3.14-.041 9.102 7.984 21.013 12.839 34.043 12.839 12.96 0 25.218-4.781 34.656-13.329a40.59 40.59 0 0014.123 2.529c22.387 0 40.6-18.213 40.6-40.6 0-16.994-10.583-31.852-25.805-37.816zM261.43 110.919c3.546-6.143 9.272-10.536 16.123-12.372 7.779-2.085 15.983-.558 22.51 4.189a10 10 0 0013.185-1.256 17.286 17.286 0 018.159-4.883c9.245-2.476 18.773 3.027 21.249 12.267a17.183 17.183 0 01-.231 9.727c-7.781.8-15.388 1.715-22.9 2.621-20.423 2.461-39.754 4.783-61.583 4.916-.398-5.269.788-10.533 3.488-15.209zM20 142.169c0-17.479 14.221-31.7 31.699-31.7 9.623 0 18.616 4.301 24.674 11.8a10 10 0 0013.122 2.169 20.522 20.522 0 0110.984-3.17c11.358 0 20.6 9.241 20.6 20.601 0 10.346-7.722 19.13-17.961 20.433a10 10 0 00-8.396 12.508 16.46 16.46 0 01.558 4.258c0 9.043-7.357 16.4-16.4 16.4-7.924 0-14.708-5.643-16.13-13.417a10 10 0 00-10.116-8.196c-.31.009-.621.014-.934.014-17.479.001-31.7-14.22-31.7-31.7zm204.335 264.889c-3.323 0-6.549-.939-9.328-2.717a10 10 0 00-13.085 2.041A26.498 26.498 0 01181.47 416c-14.642 0-26.553-11.912-26.553-26.553s11.911-26.553 26.553-26.553c8.054 0 15.583 3.598 20.658 9.872a10.001 10.001 0 0013.06 2.201 17.277 17.277 0 019.147-2.605c9.566 0 17.349 7.783 17.349 17.349 0 9.564-7.783 17.347-17.349 17.347zM256 366.141c-.886 0-1.797.008-2.706.016-6.854-8.411-17.288-13.796-28.959-13.796a37.36 37.36 0 00-12.208 2.046c-8.422-7.39-19.238-11.513-30.657-11.513-20.983 0-38.761 13.957-44.556 33.073-3.5.112-6.933.174-10.352.174-20.718 0-35.387-4.733-44.843-14.469-17.211-17.721-16.231-51.29-15.283-83.753.21-7.213.428-14.671.428-21.778 0-7.106-.218-14.563-.428-21.775-.206-7.035-.409-14.193-.427-21.249a36.373 36.373 0 0012.87 2.353c19.865 0 36.065-15.995 36.396-35.783 15.222-5.965 25.805-20.823 25.805-37.816a40.88 40.88 0 00-.372-5.419c17.016.723 32.835 2.624 49.378 4.618 20.688 2.494 42.082 5.072 65.915 5.072s45.228-2.578 65.917-5.072c21.027-2.534 40.89-4.928 63.521-4.928 20.719 0 35.387 4.733 44.843 14.469 17.211 17.721 16.231 51.289 15.283 83.752-.21 7.213-.428 14.671-.428 21.778 0 7.105.218 14.562.428 21.772.061 2.07.12 4.17.177 6.277-13.075 1.458-24.259 9.84-29.374 21.726-25.568 3.098-45.445 24.934-45.445 51.323a51.423 51.423 0 003.518 18.71c-18.22-.609-34.969-2.621-52.523-4.737-20.69-2.493-42.084-5.071-65.918-5.071zm215.401 11.999a20.524 20.524 0 01-10.983-3.169 9.998 9.998 0 00-13.122 2.169c-6.058 7.5-15.052 11.801-24.674 11.801-17.479 0-31.7-14.221-31.7-31.7s14.221-31.7 31.7-31.7c.309 0 .615.004.923.013a10 10 0 0010.127-8.196c1.423-7.774 8.206-13.417 16.13-13.417 9.043 0 16.399 7.357 16.399 16.4a16.46 16.46 0 01-.558 4.258 10.002 10.002 0 008.396 12.508C484.278 338.41 492 347.194 492 357.541c.001 11.357-9.24 20.599-20.599 20.599z" data-original="#000000"/><path d="M256 226.141c5.522 0 10-4.477 10-10s-4.478-10-10-10h-.007c-5.522 0-9.996 4.477-9.996 10s4.481 10 10.003 10z" data-original="#000000"/></g></svg>