<svg xmlns="http://www.w3.org/2000/svg" width="512" height="512" viewBox="0 0 64 64"><path d="M58.9 4.224a3 3 0 00-5.5-.724L41 24.981V21a4 4 0 00-4-4h-5v-2h5a1 1 0 000-2v-3a1 1 0 00-1-1h-4a1 1 0 00-1 1v3a1 1 0 00-1 1v3.142A4 4 0 0027 21v6.057a3.078 3.078 0 00-1.207.736 1.123 1.123 0 01-1.586 0 3.194 3.194 0 00-4.414 0A7.354 7.354 0 0018.3 30h-1.391l-1.149-2.544a2 2 0 01.823-2.555l3.958-2.285a1.992 1.992 0 012.624.565 1 1 0 001.624-1.168 3.974 3.974 0 00-3.563-1.64l-1.7-2.945-1.5-2.6.866-.5 3.464-2a1 1 0 00.367-1.366l-2-3.464a1 1 0 00-1.367-.366l-3.464 2-10.392 6a1 1 0 00-.366 1.368l2 3.464a1 1 0 001.366.366 3 3 0 014.1 1.1l1.7 2.944a3.978 3.978 0 00-.361 3.907L14.714 30H10a1 1 0 000 2h7.7l-.286 2H10a1 1 0 000 2h2.142l.308 2H10a1 1 0 00-1 1c0 10.477 8.972 19 20 19a20.554 20.554 0 0012.044-3.868L40.142 60H17.858l-.485-3.152a1 1 0 00-1.977.3l.616 4A1 1 0 0017 62h24a1 1 0 00.988-.848l1.38-8.966A18.443 18.443 0 0049 39a1 1 0 00-1-1h-2.45l.308-2H48a1 1 0 001-1v-4a1 1 0 00-1-1h-2.97l3.591-6.219a1 1 0 00-1.732-1L42.72 30h-2.308L55.134 4.5a1 1 0 111.731 1l-7.976 13.817a1 1 0 101.732 1L58.6 6.5a2.986 2.986 0 00.3-2.276zM15.83 23.026l-1-1.732 1.732-1 1.732-1 1 1.732zm3.66-13.66l1 1.732-1.732 1-.5-.866-.5-.866zm-9.5 8.563a4.98 4.98 0 00-1.575.256l-1.05-1.819 8.66-5 .5.866.5.866-.866.5a1 1 0 00-.366 1.366l1.5 2.6-1.1.637-2.447 1.413a5.018 5.018 0 00-3.755-1.685zM29 26v-2h10v2zm4-15h2v2h-2zm-2 8h6a2 2 0 012 2v1H29v-1a2 2 0 012-2zM17.133 36L15.7 46l-1.534-10zm-4.375 4l1.3 8.434A16.258 16.258 0 0111.031 40zm34.211 0a16.258 16.258 0 01-3.024 8.433L45.242 40zM47 34H35.714a1 1 0 000 2h8.12l-2.341 15.218a18.706 18.706 0 01-24.546.38l2.541-1.525a2.509 2.509 0 012.8.145 4.536 4.536 0 005.418 0 2.509 2.509 0 012.8-.145 2.65 2.65 0 003.994-2.647l-.647-4.526a1 1 0 00-1.98.283l.647 4.526a.635.635 0 01-.285.635.629.629 0 01-.693.015 4.511 4.511 0 00-1.771-.6L29 36.929a1 1 0 10-2 .142l.778 10.882a4.509 4.509 0 00-1.271.665 2.529 2.529 0 01-3.018 0 4.576 4.576 0 00-1.11-.607l1.611-12.887a1 1 0 00-1.984-.248L20.4 47.73a4.524 4.524 0 00-1.943.628l-1.171.7 2.4-16.821a5.388 5.388 0 01.192-.843l.009-.02a5.386 5.386 0 011.316-2.171 1.123 1.123 0 011.586 0 3.194 3.194 0 004.414 0 1.123 1.123 0 011.586 0 5.4 5.4 0 011.316 2.17l.009.021a5.289 5.289 0 01.192.844l1 6.981a1 1 0 101.979-.284L32.3 32H47zm-15.3-4a7.356 7.356 0 00-1.319-2H39v.445L38.1 30z" fill="#082680" data-original="#000000" xmlns="http://www.w3.org/2000/svg"/></svg>