<svg xmlns="http://www.w3.org/2000/svg" viewBox="0 0 474.816 474.816"><linearGradient id="a" gradientUnits="userSpaceOnUse" x1="-60.788" y1="594.177" x2="-4.343" y2="594.177" gradientTransform="matrix(8 0 0 -8 493.108 4891.968)"><stop offset="0" stop-color="#006df0"/><stop offset="1" stop-color="#00e7f0"/></linearGradient><path d="M218.556 277.104l-33.464-42.12c-50.072-63.056-60.168-65.76-135.04-36.192L.004 218.552l42.12-33.464c63.048-50.072 65.752-60.168 36.2-135.048L58.556 0 92.02 42.12c50.064 63.048 60.168 65.744 135.04 36.192l50.048-19.76-42.12 33.464c-63.048 50.072-65.752 60.168-36.2 135.048l19.768 50.04zm-103.2-112.48c20.08 0 35.56 8.552 54.28 27.76-10.552-37.424-5.096-57.776 22.752-84.912-37.424 10.552-57.768 5.096-84.912-22.752 10.552 37.424 5.096 57.776-22.752 84.912a114.085 114.085 0 0130.632-5.008z" fill="url(#a)"/><linearGradient id="b" gradientUnits="userSpaceOnUse" x1="-60.788" y1="565.177" x2="-4.343" y2="565.177" gradientTransform="matrix(8 0 0 -8 493.108 4891.968)"><stop offset="0" stop-color="#006df0"/><stop offset="1" stop-color="#00e7f0"/></linearGradient><path d="M230.748 474.816l-33.456-42.128c-30.608-38.552-35.144-39.776-80.952-21.696l-50.04 19.76 42.12-33.464c38.56-30.624 39.776-35.16 21.696-80.952l-19.752-50.048 33.456 42.128c30.608 38.552 35.144 39.776 80.952 21.696l50.04-19.76-42.12 33.464c-38.56 30.624-39.776 35.16-21.696 80.952l19.752 50.048zm-74.536-90.968a42.164 42.164 0 0128.632 11.456 42.728 42.728 0 0110.512-39.048 42.736 42.736 0 01-39.048-10.456 42.729 42.729 0 01-10.472 39.048 59.026 59.026 0 0110.376-1z" fill="url(#b)"/><linearGradient id="c" gradientUnits="userSpaceOnUse" x1="-60.788" y1="587.177" x2="-4.343" y2="587.177" gradientTransform="matrix(8 0 0 -8 493.108 4891.968)"><stop offset="0" stop-color="#006df0"/><stop offset="1" stop-color="#00e7f0"/></linearGradient><path d="M430.748 298.816l-33.456-42.128c-30.608-38.544-35.152-39.784-80.952-21.696l-50.04 19.76 42.12-33.464c38.56-30.624 39.776-35.16 21.696-80.952l-19.752-50.048 33.456 42.128c30.608 38.552 35.144 39.784 80.952 21.696l50.04-19.76-42.12 33.464c-38.56 30.624-39.776 35.16-21.696 80.952l19.752 50.048zm-74.536-90.968a42.164 42.164 0 0128.632 11.456 42.728 42.728 0 0110.512-39.048 42.736 42.736 0 01-39.048-10.456 42.729 42.729 0 01-10.472 39.048 59.026 59.026 0 0110.376-1z" fill="url(#c)"/></svg>