<svg xmlns="http://www.w3.org/2000/svg" width="512" height="512"><path xmlns="http://www.w3.org/2000/svg" d="M331.131 397.871a92.14 92.14 0 00-58.261-71.794l14.822-51.877A8 8 0 00280 264h-80a8 8 0 00-7.692 10.2l14.822 51.879a92.14 92.14 0 00-58.261 71.794l-5.469 34.641A48 48 0 00190.812 488h98.376a48 48 0 0047.412-55.486zM210.606 280h58.788l-11.912 41.693a91.106 91.106 0 00-34.964 0zm102.911 180.788A31.961 31.961 0 01289.188 472h-98.376a32 32 0 01-31.612-36.99l5.47-34.643a76.236 76.236 0 0158.424-62.467l-29.6 41.446 13.02 9.3L232 352.964V392h16v-39.036l25.49 35.686 13.02-9.3-29.6-41.446a76.236 76.236 0 0158.421 62.463l5.47 34.643a31.957 31.957 0 01-7.284 25.778z" fill="#082680" data-original="#000000"/><path xmlns="http://www.w3.org/2000/svg" d="M456.717 326.768a105.272 105.272 0 00-71.633-89.441l14.608-51.127A8 8 0 00392 176h-80a8 8 0 00-7.692 10.2l14.606 51.122A104.919 104.919 0 00291.39 251.2l9.22 13.076a88.658 88.658 0 0132.216-14.2l-34.9 40.717 12.148 10.412L344 261.626V312h16v-50.374l33.926 39.58 12.148-10.412-34.906-40.724a88.912 88.912 0 0169.632 78.289l10.846 108.456A32 32 0 01419.8 472H344v16h75.8a48 48 0 0047.762-52.776zM322.606 192h58.788l-11.855 41.491a104.63 104.63 0 00-35.084-.02z" fill="#082680" data-original="#000000"/><path xmlns="http://www.w3.org/2000/svg" d="M444.088 235.482a137.294 137.294 0 00-32.62-21.945l-6.936 14.418a121.348 121.348 0 0167.545 92.533l15.847-2.207a137.428 137.428 0 00-43.836-82.799zM68.765 461.37a32.041 32.041 0 01-7.994-24.828l21.351-196.428A134.447 134.447 0 01198.791 121.1l-45.106 57.993 12.63 9.822L208 135.316V208h16v-72.684l41.685 53.6 12.63-9.822-45.088-57.97a135.353 135.353 0 0180.944 41.361l11.659-10.957a151.219 151.219 0 00-64.992-40.641l22.17-76.659A8 8 0 00275.323 24h-120a8 8 0 00-7.723 10.081l20.9 77.547A150.447 150.447 0 0066.215 238.386l-21.35 196.427A48 48 0 0092.583 488H136v-16H92.583a32.042 32.042 0 01-23.818-10.63zm97-421.37h98.918l-19.354 66.921A149.6 149.6 0 00216 104a151.653 151.653 0 00-32.069 3.416z" fill="#082680" data-original="#000000"/><path xmlns="http://www.w3.org/2000/svg" d="M50.309 236.656a167.194 167.194 0 0166.452-116l-9.523-12.856A183.237 183.237 0 0034.4 234.928l-4.8 44.208 15.9 1.728zm-24.189 74.48l1.738-16 15.906 1.73-1.738 15.999z" fill="#082680" data-original="#000000"/></svg>