<svg xmlns="http://www.w3.org/2000/svg" viewBox="0 0 512.001 512.001"><path d="M310.229 127.241c-.418-65.98-54.245-119.126-120.225-118.708S70.878 62.78 71.296 128.759l.094 77.559a67.058 67.058 0 0018.125 46.43 68.32 68.32 0 0050.057 20.318h101.632a68.923 68.923 0 0050.5-20.736 67.899 67.899 0 0018.62-47.531l-.095-77.558z" fill="#f5a338"/><path d="M301.594 307.2h-51.2c-14.14 0-25.6-11.46-25.6-25.6v-34.133h-68.267V281.6c0 14.14-11.46 25.6-25.6 25.6h-51.2c-28.279 0-51.2 22.921-51.2 51.2V512h324.267V358.4c0-28.279-22.921-51.2-51.2-51.2z" fill="#fbccad"/><path d="M195.781 281.446a73.555 73.555 0 0029.013-8.09v-25.89h-68.267v26.146a76.632 76.632 0 0039.254 7.834z" fill="#fab98f"/><path d="M352.794 358.4c0-28.279-22.921-51.2-51.2-51.2h-27.452c-35.174 44.885-100.079 52.753-144.956 17.587a103.346 103.346 0 01-17.587-17.587H79.727c-28.279 0-51.2 22.921-51.2 51.2v51.2h48.478a76.438 76.438 0 0010.957 76.8V512h205.397v-25.6a76.438 76.438 0 0010.957-76.8h48.478v-51.2z" fill="#ebebeb"/><path d="M352.794 358.4c0-28.279-22.921-51.2-51.2-51.2h-27.452a103.143 103.143 0 01-20.028 19.337c43.691 42.197 44.902 111.821 2.705 155.511A109.956 109.956 0 01205.696 512h87.663v-25.6a76.438 76.438 0 0010.957-76.8h48.478v-51.2z" fill="#e0e0e0"/><path fill="#4398d1" d="M412.5 273.07h17.07v51.2H412.5z"/><g fill="#97d3e6"><path d="M438.128 324.267h-40.875c-9.429 0-17.067 7.637-17.067 17.067 0 .572.026 1.143.085 1.707l5.12 51.2c.879 8.721 8.218 15.36 16.981 15.36h10.155l-25.6 102.4h68.267V341.333c0-9.429-7.638-17.066-17.066-17.066zM387.362 122.163a45.615 45.615 0 00-28.732-28.732l5.393-16.213a62.792 62.792 0 0139.535 39.535l-16.196 5.41zM412.5 0h17.07v42.667H412.5zM454.758 122.163l-16.213-5.393a62.792 62.792 0 0139.535-39.535l5.393 16.213a45.607 45.607 0 00-28.715 28.715zM387.362 70.963a45.615 45.615 0 00-28.732-28.732l5.393-16.213a62.792 62.792 0 0139.535 39.535l-16.196 5.41zM454.758 70.963l-16.213-5.393a62.792 62.792 0 0139.535-39.535l5.393 16.213a45.607 45.607 0 00-28.715 28.715zM387.362 173.363a45.615 45.615 0 00-28.732-28.732l5.393-16.213a62.792 62.792 0 0139.535 39.535l-16.196 5.41zM412.5 68.27h17.07v42.667H412.5zM454.758 173.363l-16.213-5.393a62.792 62.792 0 0139.535-39.535l5.393 16.213a45.607 45.607 0 00-28.715 28.715zM387.362 224.563a45.615 45.615 0 00-28.732-28.732l5.393-16.213a62.792 62.792 0 0139.535 39.535l-16.196 5.41zM412.5 136.53h17.07v42.667H412.5zM454.758 224.563l-16.213-5.393a62.792 62.792 0 0139.535-39.535l5.393 16.213a45.607 45.607 0 00-28.715 28.715zM387.362 275.763a45.615 45.615 0 00-28.732-28.732l5.393-16.213a62.792 62.792 0 0139.535 39.535l-16.196 5.41zM412.5 204.8h17.07v42.667H412.5zM454.758 275.763l-16.213-5.393a62.792 62.792 0 0139.535-39.535l5.393 16.213a45.607 45.607 0 00-28.715 28.715z"/></g><path d="M403.994 477.867c-14.14 0-25.6-11.46-25.6-25.6V435.2h17.067v17.067c0 4.71 3.823 8.533 8.533 8.533s8.533-3.823 8.533-8.533V409.6h17.067v42.667c0 14.139-11.461 25.6-25.6 25.6z" fill="#4398d1"/><path d="M267.46 150.989v34.133c.529 41.105-30.729 75.674-71.68 79.266-42.325 2.825-78.925-29.184-81.749-71.509a79.652 79.652 0 01-.171-5.146v-68.267a76.385 76.385 0 019.19-36.437l10.854 9.984a222.896 222.896 0 00133.556 57.976z" fill="#fbccad"/><path fill="#4398d1" d="M275.994 440.627V307.2h-17.067v110.933H122.394V307.2h-17.067v133.427L87.962 486.4l.298 25.6h204.8l.299-25.6z"/><path d="M293.359 486.4l-17.365-45.773v-113.63a273.602 273.602 0 01-17.067 50.825v40.311h-22.682A308.525 308.525 0 01131.686 512H293.06l.299-25.6z" fill="#398cc4"/><path d="M242.663 147.49c-1.05 50.005-32.367 94.353-79.13 112.085a76.894 76.894 0 0032.239 4.796c40.96-3.584 72.218-38.153 71.689-79.266v-34.133a222.536 222.536 0 01-24.798-3.482z" fill="#fbc5a1"/></svg>